{"glyphs":{"0":{"ha":718,"x_min":97,"x_max":621,"o":"m 358 -15 q 199 28 256 -15 q 119 146 142 71 q 97 317 97 221 l 97 808 q 121 979 97 906 q 202 1095 144 1053 q 358 1138 260 1138 q 516 1095 458 1138 q 597 979 574 1053 q 621 808 621 906 l 621 317 q 599 146 621 221 q 519 28 576 71 q 358 -15 463 -15 m 358 42 q 471 76 431 42 q 528 169 511 110 q 544 304 544 228 l 544 819 q 528 955 544 896 q 471 1047 511 1014 q 358 1081 431 1081 q 247 1047 288 1081 q 190 955 207 1014 q 172 819 172 896 l 172 304 q 190 169 172 228 q 247 76 207 110 q 358 42 288 42 z "},"1":{"ha":486,"x_min":69,"x_max":306,"o":"m 231 0 l 231 1024 q 196 990 218 1006 q 149 962 174 974 q 102 942 124 950 q 69 931 81 933 l 69 994 q 110 1011 88 1000 q 157 1040 133 1022 q 203 1078 181 1057 q 242 1125 225 1100 l 306 1125 l 306 0 l 231 0 z "},"2":{"ha":679,"x_min":75,"x_max":594,"o":"m 75 0 l 75 56 l 388 531 q 453 634 422 583 q 502 740 483 685 q 521 865 521 796 q 477 1019 521 964 q 350 1075 433 1075 q 228 1043 271 1075 q 170 954 186 1011 q 153 824 154 897 l 153 806 l 81 806 l 81 828 q 108 1001 81 932 q 195 1103 136 1069 q 347 1138 254 1138 q 532 1063 469 1138 q 594 854 594 988 q 574 728 594 788 q 521 615 553 669 q 454 507 489 560 l 160 63 l 572 63 l 572 0 l 75 0 z "},"3":{"ha":674,"x_min":94,"x_max":592,"o":"m 331 -15 q 194 18 246 -15 q 118 110 142 51 q 94 250 94 169 l 94 271 l 164 271 q 164 260 164 269 q 164 249 164 251 q 182 138 165 183 q 235 68 199 92 q 331 44 272 44 q 425 66 383 44 q 491 143 467 88 q 515 299 515 199 q 475 483 515 411 q 335 556 435 554 q 319 556 333 556 q 303 556 304 556 l 303 621 q 319 621 304 621 q 335 621 333 621 q 474 678 433 621 q 515 861 515 736 q 478 1017 515 956 q 347 1078 442 1078 q 211 1031 257 1078 q 164 874 165 985 q 164 866 164 872 q 164 857 164 860 l 94 857 l 94 875 q 118 1013 94 954 q 197 1105 142 1072 q 346 1138 253 1138 q 486 1101 432 1138 q 566 1001 540 1064 q 592 861 592 939 q 546 667 592 733 q 432 586 500 600 q 505 547 468 578 q 567 457 542 517 q 592 300 592 397 q 565 137 592 208 q 482 25 539 65 q 331 -15 425 -15 z "},"4":{"ha":685,"x_min":78,"x_max":629,"o":"m 425 0 l 425 346 l 78 346 l 78 417 l 413 1125 l 499 1125 l 499 414 l 629 414 l 629 346 l 499 346 l 499 0 l 425 0 m 156 414 l 425 414 l 425 1017 l 156 414 z "},"5":{"ha":663,"x_min":97,"x_max":583,"o":"m 333 -12 q 198 19 250 -12 q 122 116 146 51 q 97 275 97 181 l 169 275 q 186 145 169 196 q 240 70 203 94 q 338 46 278 46 q 442 77 404 46 q 495 174 479 108 q 511 344 511 240 q 492 528 511 463 q 435 621 474 594 q 340 647 397 647 q 257 626 297 647 q 182 553 217 606 l 122 553 l 122 1125 l 531 1125 l 529 1061 l 185 1061 l 182 624 q 249 681 206 656 q 360 706 292 706 q 488 665 439 706 q 560 547 538 625 q 583 351 583 468 q 569 190 583 258 q 523 76 554 121 q 445 9 492 31 q 333 -12 399 -12 z "},"6":{"ha":689,"x_min":97,"x_max":606,"o":"m 347 -15 q 203 24 258 -15 q 123 139 149 63 q 97 328 97 215 l 97 818 q 123 990 97 918 q 203 1099 149 1061 q 346 1138 258 1138 q 482 1110 429 1138 q 560 1026 535 1082 q 586 885 586 971 q 586 872 586 883 q 586 858 586 860 l 515 858 q 476 1029 515 982 q 351 1076 438 1076 q 260 1056 301 1076 q 195 982 219 1035 q 171 833 171 929 l 171 596 q 251 635 199 614 q 363 656 303 656 q 508 624 454 656 q 583 517 561 592 q 606 314 606 443 q 580 136 606 210 q 498 24 554 63 q 347 -15 442 -15 m 347 47 q 447 69 407 47 q 509 147 488 90 q 531 304 531 203 q 517 475 531 411 q 465 567 504 539 q 347 596 426 596 q 279 586 314 596 q 215 563 244 576 q 171 539 186 550 l 171 329 q 191 158 171 219 q 251 72 211 96 q 347 47 290 47 z "},"7":{"ha":571,"x_min":49,"x_max":489,"o":"m 183 0 l 413 1064 l 49 1064 l 49 1125 l 489 1125 l 489 1088 l 256 0 l 183 0 z "},"8":{"ha":693,"x_min":90,"x_max":603,"o":"m 347 -15 q 197 24 253 -15 q 115 132 140 63 q 90 293 90 201 q 107 429 90 376 q 151 513 124 482 q 208 561 178 544 q 265 589 239 578 q 144 678 190 611 q 99 860 99 744 q 122 1001 99 938 q 199 1101 144 1064 q 347 1138 254 1138 q 494 1100 440 1138 q 570 999 547 1063 q 593 856 593 935 q 548 677 593 742 q 428 589 503 613 q 485 561 454 578 q 542 513 515 544 q 585 429 568 482 q 603 293 603 376 q 578 132 603 201 q 497 24 553 63 q 347 -15 440 -15 m 347 44 q 444 68 403 44 q 507 147 485 92 q 529 294 529 201 q 511 428 529 372 q 453 517 493 483 q 347 557 414 550 q 240 517 281 550 q 181 428 199 483 q 163 294 163 372 q 185 147 163 201 q 250 68 208 92 q 347 44 292 44 m 347 621 q 450 655 413 625 q 504 737 488 685 q 521 857 521 789 q 478 1023 521 971 q 347 1075 435 1075 q 215 1023 258 1075 q 172 857 172 971 q 188 737 172 789 q 243 655 204 685 q 347 621 282 625 z "},"9":{"ha":696,"x_min":90,"x_max":599,"o":"m 356 -15 q 218 13 272 -15 q 138 97 164 40 q 111 239 111 154 q 111 251 111 240 q 111 264 111 263 l 182 264 q 221 93 182 140 q 357 46 260 46 q 446 67 408 46 q 504 140 483 88 q 525 289 525 193 l 525 526 q 456 488 504 508 q 333 467 408 467 q 189 499 242 467 q 113 606 136 531 q 90 810 90 681 q 117 987 90 914 q 201 1099 143 1060 q 351 1138 258 1138 q 494 1099 440 1138 q 574 984 549 1060 q 599 794 599 908 l 599 304 q 574 133 599 206 q 497 23 550 61 q 356 -15 444 -15 m 350 526 q 459 546 415 526 q 525 583 503 565 l 525 793 q 506 965 525 904 q 448 1051 486 1026 q 351 1075 410 1075 q 251 1051 293 1075 q 188 972 210 1028 q 167 818 167 915 q 179 647 167 711 q 231 555 192 583 q 350 526 271 526 z "},"A":{"ha":650,"x_min":44,"x_max":606,"o":"m 44 0 l 281 1125 l 368 1125 l 606 0 l 529 0 l 471 311 l 179 311 l 119 0 l 44 0 m 190 367 l 461 367 l 325 1033 l 190 367 z "},"Á":{"ha":650,"x_min":44,"x_max":606,"o":"m 44 0 l 281 1125 l 368 1125 l 606 0 l 529 0 l 471 311 l 179 311 l 119 0 l 44 0 m 190 367 l 461 367 l 325 1033 l 190 367 m 307 1192 l 396 1461 l 471 1461 l 346 1192 l 307 1192 z "},"Ă":{"ha":650,"x_min":44,"x_max":606,"o":"m 44 0 l 281 1125 l 368 1125 l 606 0 l 529 0 l 471 311 l 179 311 l 119 0 l 44 0 m 190 367 l 461 367 l 325 1033 l 190 367 m 324 1210 q 212 1247 254 1210 q 167 1364 169 1285 l 218 1364 q 250 1281 219 1304 q 324 1257 281 1257 q 397 1281 367 1257 q 432 1364 428 1304 l 483 1364 q 437 1247 481 1285 q 324 1210 393 1210 z "},"Ắ":{"ha":650,"x_min":44,"x_max":606,"o":"m 44 0 l 281 1125 l 368 1125 l 606 0 l 529 0 l 471 311 l 179 311 l 119 0 l 44 0 m 190 367 l 461 367 l 325 1033 l 190 367 m 276 1413 l 367 1575 l 442 1575 l 315 1413 l 276 1413 m 324 1210 q 212 1247 254 1210 q 167 1364 169 1285 l 218 1364 q 250 1281 219 1304 q 324 1257 281 1257 q 397 1281 367 1257 q 432 1364 428 1304 l 483 1364 q 437 1247 481 1285 q 324 1210 393 1210 z "},"Ặ":{"ha":650,"x_min":44,"x_max":606,"o":"m 44 0 l 281 1125 l 368 1125 l 606 0 l 529 0 l 471 311 l 179 311 l 119 0 l 44 0 m 190 367 l 461 367 l 325 1033 l 190 367 m 283 -187 l 283 -83 l 367 -83 l 367 -187 l 283 -187 m 324 1210 q 212 1247 254 1210 q 167 1364 169 1285 l 218 1364 q 250 1281 219 1304 q 324 1257 281 1257 q 397 1281 367 1257 q 432 1364 428 1304 l 483 1364 q 437 1247 481 1285 q 324 1210 393 1210 z "},"Ằ":{"ha":650,"x_min":44,"x_max":606,"o":"m 44 0 l 281 1125 l 368 1125 l 606 0 l 529 0 l 471 311 l 179 311 l 119 0 l 44 0 m 190 367 l 461 367 l 325 1033 l 190 367 m 343 1413 l 217 1575 l 292 1575 l 382 1413 l 343 1413 m 324 1210 q 212 1247 254 1210 q 167 1364 169 1285 l 218 1364 q 250 1281 219 1304 q 324 1257 281 1257 q 397 1281 367 1257 q 432 1364 428 1304 l 483 1364 q 437 1247 481 1285 q 324 1210 393 1210 z "},"Ẳ":{"ha":650,"x_min":44,"x_max":606,"o":"m 44 0 l 281 1125 l 368 1125 l 606 0 l 529 0 l 471 311 l 179 311 l 119 0 l 44 0 m 190 367 l 461 367 l 325 1033 l 190 367 m 331 1353 l 300 1385 q 348 1420 332 1403 q 364 1460 364 1438 q 349 1495 364 1483 q 304 1507 333 1507 q 274 1505 289 1507 q 242 1497 258 1503 l 242 1535 q 281 1544 261 1542 q 318 1547 300 1547 q 394 1526 367 1547 q 421 1464 421 1504 q 394 1399 421 1425 q 331 1353 367 1372 m 324 1210 q 212 1247 254 1210 q 167 1364 169 1285 l 218 1364 q 250 1281 219 1304 q 324 1257 281 1257 q 397 1281 367 1257 q 432 1364 428 1304 l 483 1364 q 437 1247 481 1285 q 324 1210 393 1210 z "},"Ẵ":{"ha":650,"x_min":44,"x_max":606,"o":"m 44 0 l 281 1125 l 368 1125 l 606 0 l 529 0 l 471 311 l 179 311 l 119 0 l 44 0 m 190 367 l 461 367 l 325 1033 l 190 367 m 324 1210 q 212 1247 254 1210 q 167 1364 169 1285 l 218 1364 q 250 1281 219 1304 q 324 1257 281 1257 q 397 1281 367 1257 q 432 1364 428 1304 l 483 1364 q 437 1247 481 1285 q 324 1210 393 1210 m 397 1425 q 342 1442 367 1425 q 297 1474 318 1458 q 254 1490 276 1490 q 223 1476 235 1490 q 211 1436 211 1463 l 161 1436 q 167 1474 161 1449 q 192 1520 174 1499 q 247 1542 210 1542 q 306 1526 281 1542 q 352 1493 331 1510 q 396 1476 374 1476 q 429 1490 418 1476 q 442 1539 440 1504 l 489 1539 q 483 1496 489 1524 q 458 1447 478 1468 q 397 1425 439 1425 z "},"Ǎ":{"ha":650,"x_min":44,"x_max":606,"o":"m 44 0 l 281 1125 l 368 1125 l 606 0 l 529 0 l 471 311 l 179 311 l 119 0 l 44 0 m 190 367 l 461 367 l 325 1033 l 190 367 m 297 1221 l 179 1447 l 242 1447 l 325 1278 l 408 1447 l 471 1447 l 353 1221 l 297 1221 z "},"Â":{"ha":650,"x_min":44,"x_max":606,"o":"m 44 0 l 281 1125 l 368 1125 l 606 0 l 529 0 l 471 311 l 179 311 l 119 0 l 44 0 m 190 367 l 461 367 l 325 1033 l 190 367 m 160 1197 l 279 1447 l 371 1447 l 489 1197 l 436 1197 l 325 1410 l 214 1197 l 160 1197 z "},"Ấ":{"ha":650,"x_min":44,"x_max":614,"o":"m 44 0 l 281 1125 l 368 1125 l 606 0 l 529 0 l 471 311 l 179 311 l 119 0 l 44 0 m 190 367 l 461 367 l 325 1033 l 190 367 m 160 1197 l 279 1392 l 371 1392 l 489 1197 l 436 1197 l 325 1357 l 214 1197 l 160 1197 m 468 1321 l 542 1481 l 614 1481 l 521 1321 l 468 1321 z "},"Ậ":{"ha":650,"x_min":44,"x_max":606,"o":"m 44 0 l 281 1125 l 368 1125 l 606 0 l 529 0 l 471 311 l 179 311 l 119 0 l 44 0 m 190 367 l 461 367 l 325 1033 l 190 367 m 160 1197 l 279 1392 l 371 1392 l 489 1197 l 436 1197 l 325 1357 l 214 1197 l 160 1197 m 283 -187 l 283 -83 l 367 -83 l 367 -187 l 283 -187 z "},"Ầ":{"ha":650,"x_min":44,"x_max":606,"o":"m 44 0 l 281 1125 l 368 1125 l 606 0 l 529 0 l 471 311 l 179 311 l 119 0 l 44 0 m 190 367 l 461 367 l 325 1033 l 190 367 m 160 1197 l 279 1392 l 371 1392 l 489 1197 l 436 1197 l 325 1357 l 214 1197 l 160 1197 m 504 1321 l 411 1481 l 483 1481 l 557 1321 l 504 1321 z "},"Ẩ":{"ha":650,"x_min":44,"x_max":606,"o":"m 44 0 l 281 1125 l 368 1125 l 606 0 l 529 0 l 471 311 l 179 311 l 119 0 l 44 0 m 190 367 l 461 367 l 325 1033 l 190 367 m 488 1319 l 457 1351 q 505 1387 489 1369 q 521 1426 521 1404 q 506 1462 521 1450 q 461 1474 490 1474 q 431 1472 446 1474 q 399 1464 415 1469 l 399 1501 q 438 1511 418 1508 q 475 1514 457 1514 q 551 1492 524 1514 q 578 1431 578 1471 q 551 1364 578 1389 q 488 1319 524 1339 m 160 1197 l 279 1392 l 371 1392 l 489 1197 l 436 1197 l 325 1357 l 214 1197 l 160 1197 z "},"Ẫ":{"ha":650,"x_min":44,"x_max":606,"o":"m 44 0 l 281 1125 l 368 1125 l 606 0 l 529 0 l 471 311 l 179 311 l 119 0 l 44 0 m 190 367 l 461 367 l 325 1033 l 190 367 m 160 1197 l 279 1392 l 371 1392 l 489 1197 l 436 1197 l 325 1357 l 214 1197 l 160 1197 m 397 1461 q 342 1478 367 1461 q 297 1510 318 1494 q 254 1526 276 1526 q 223 1513 235 1526 q 211 1472 211 1499 l 161 1472 q 167 1510 161 1485 q 192 1556 174 1535 q 247 1578 210 1578 q 306 1562 281 1578 q 352 1529 331 1546 q 396 1513 374 1513 q 429 1526 418 1513 q 442 1575 440 1540 l 489 1575 q 483 1532 489 1560 q 458 1483 478 1504 q 397 1461 439 1461 z "},"Ȁ":{"ha":650,"x_min":44,"x_max":606,"o":"m 44 0 l 281 1125 l 368 1125 l 606 0 l 529 0 l 471 311 l 179 311 l 119 0 l 44 0 m 190 367 l 461 367 l 325 1033 l 190 367 m 229 1243 l 110 1447 l 192 1447 l 269 1243 l 229 1243 m 365 1243 l 272 1447 l 344 1447 l 403 1243 l 365 1243 z "},"Ä":{"ha":650,"x_min":44,"x_max":606,"o":"m 44 0 l 281 1125 l 368 1125 l 606 0 l 529 0 l 471 311 l 179 311 l 119 0 l 44 0 m 190 367 l 461 367 l 325 1033 l 190 367 m 399 1342 l 399 1447 l 476 1447 l 476 1342 l 399 1342 m 176 1342 l 176 1447 l 253 1447 l 253 1342 l 176 1342 z "},"Ạ":{"ha":650,"x_min":44,"x_max":606,"o":"m 44 0 l 281 1125 l 368 1125 l 606 0 l 529 0 l 471 311 l 179 311 l 119 0 l 44 0 m 190 367 l 461 367 l 325 1033 l 190 367 m 283 -187 l 283 -83 l 367 -83 l 367 -187 l 283 -187 z "},"À":{"ha":650,"x_min":44,"x_max":606,"o":"m 44 0 l 281 1125 l 368 1125 l 606 0 l 529 0 l 471 311 l 179 311 l 119 0 l 44 0 m 190 367 l 461 367 l 325 1033 l 190 367 m 304 1192 l 192 1461 l 267 1461 l 342 1192 l 304 1192 z "},"Ả":{"ha":650,"x_min":44,"x_max":606,"o":"m 44 0 l 281 1125 l 368 1125 l 606 0 l 529 0 l 471 311 l 179 311 l 119 0 l 44 0 m 190 367 l 461 367 l 325 1033 l 190 367 m 324 1239 l 293 1271 q 342 1306 325 1289 q 360 1346 360 1324 q 344 1382 360 1371 q 296 1393 329 1393 q 267 1391 282 1393 q 235 1386 251 1389 l 235 1425 q 308 1433 272 1433 q 368 1424 344 1433 q 404 1397 392 1415 q 417 1350 417 1378 q 404 1302 417 1322 q 370 1267 392 1282 q 324 1239 349 1251 z "},"Ȃ":{"ha":650,"x_min":44,"x_max":606,"o":"m 44 0 l 281 1125 l 368 1125 l 606 0 l 529 0 l 471 311 l 179 311 l 119 0 l 44 0 m 190 367 l 461 367 l 325 1033 l 190 367 m 167 1293 q 190 1380 169 1346 q 244 1431 210 1414 q 325 1447 279 1447 q 407 1431 372 1447 q 462 1380 442 1414 q 483 1293 482 1346 l 432 1293 q 400 1376 431 1353 q 325 1399 369 1399 q 251 1376 282 1399 q 218 1293 221 1353 l 167 1293 z "},"Ā":{"ha":650,"x_min":44,"x_max":606,"o":"m 44 0 l 281 1125 l 368 1125 l 606 0 l 529 0 l 471 311 l 179 311 l 119 0 l 44 0 m 190 367 l 461 367 l 325 1033 l 190 367 m 206 1294 l 206 1350 l 444 1350 l 444 1294 l 206 1294 z "},"Ą":{"ha":650,"x_min":44,"x_max":624,"o":"m 44 0 l 281 1125 l 368 1125 l 606 0 l 529 0 l 471 311 l 179 311 l 119 0 l 44 0 m 190 367 l 461 367 l 325 1033 l 190 367 m 579 -279 q 523 -272 549 -279 q 478 -250 497 -264 q 450 -215 460 -236 q 440 -168 440 -194 q 455 -105 440 -135 q 494 -48 469 -75 q 550 0 519 -21 l 592 0 q 544 -53 565 -26 q 511 -107 524 -81 q 499 -162 499 -133 q 528 -219 499 -201 q 599 -236 557 -236 q 612 -235 606 -236 q 624 -233 618 -235 l 615 -276 q 600 -278 610 -278 q 579 -279 590 -279 z "},"Å":{"ha":650,"x_min":44,"x_max":606,"o":"m 44 0 l 281 1125 l 368 1125 l 606 0 l 529 0 l 471 311 l 179 311 l 119 0 l 44 0 m 190 367 l 461 367 l 325 1033 l 190 367 m 325 1224 q 244 1251 282 1224 q 206 1342 206 1279 q 244 1432 206 1404 q 325 1460 282 1460 q 407 1432 369 1460 q 444 1342 444 1404 q 407 1251 444 1279 q 325 1224 369 1224 m 325 1267 q 376 1284 353 1267 q 399 1342 399 1301 q 376 1401 399 1383 q 325 1418 353 1418 q 274 1401 297 1418 q 251 1342 251 1383 q 274 1284 251 1301 q 325 1267 297 1267 z "},"Ǻ":{"ha":650,"x_min":44,"x_max":606,"o":"m 44 0 l 281 1125 l 368 1125 l 606 0 l 529 0 l 471 311 l 179 311 l 119 0 l 44 0 m 190 367 l 461 367 l 325 1033 l 190 367 m 325 1224 q 244 1251 282 1224 q 206 1342 206 1279 q 244 1432 206 1404 q 325 1460 282 1460 q 407 1432 369 1460 q 444 1342 444 1404 q 407 1251 444 1279 q 325 1224 369 1224 m 325 1267 q 376 1284 353 1267 q 399 1342 399 1301 q 376 1401 399 1383 q 325 1418 353 1418 q 274 1401 297 1418 q 251 1342 251 1383 q 274 1284 251 1301 q 325 1267 297 1267 m 307 1526 l 396 1796 l 471 1796 l 346 1526 l 307 1526 z "},"Ã":{"ha":650,"x_min":44,"x_max":606,"o":"m 44 0 l 281 1125 l 368 1125 l 606 0 l 529 0 l 471 311 l 179 311 l 119 0 l 44 0 m 190 367 l 461 367 l 325 1033 l 190 367 m 397 1276 q 342 1293 367 1276 q 297 1326 318 1310 q 254 1342 276 1342 q 223 1328 235 1342 q 211 1288 211 1314 l 161 1288 q 167 1325 161 1300 q 192 1372 174 1350 q 247 1393 210 1393 q 306 1377 281 1393 q 352 1344 331 1361 q 396 1328 374 1328 q 429 1342 418 1328 q 442 1390 440 1356 l 489 1390 q 483 1347 489 1375 q 458 1298 478 1319 q 397 1276 439 1276 z "},"Æ":{"ha":874,"x_min":-21,"x_max":828,"o":"m -21 0 l 415 1125 l 828 1125 l 828 1058 l 517 1058 l 517 618 l 739 618 l 739 557 l 517 557 l 517 65 l 828 65 l 828 0 l 438 0 l 438 311 l 183 311 l 68 0 l -21 0 m 206 372 l 436 372 l 436 1010 l 206 372 z "},"Ǽ":{"ha":874,"x_min":-21,"x_max":828,"o":"m -21 0 l 415 1125 l 828 1125 l 828 1058 l 517 1058 l 517 618 l 739 618 l 739 557 l 517 557 l 517 65 l 828 65 l 828 0 l 438 0 l 438 311 l 183 311 l 68 0 l -21 0 m 206 372 l 436 372 l 436 1010 l 206 372 m 458 1192 l 547 1461 l 622 1461 l 497 1192 l 458 1192 z "},"B":{"ha":678,"x_min":104,"x_max":621,"o":"m 104 0 l 104 1125 l 336 1125 q 465 1103 414 1125 q 544 1043 515 1082 q 584 953 572 1004 q 596 844 596 903 q 585 749 596 800 q 547 660 575 699 q 464 607 519 621 q 563 540 529 588 q 609 435 597 493 q 621 328 621 378 q 612 206 621 264 q 576 101 603 147 q 501 27 550 54 q 369 0 451 0 l 104 0 m 179 60 l 360 60 q 509 125 471 60 q 547 326 547 190 q 531 450 547 394 q 477 539 515 506 q 371 572 439 572 l 179 572 l 179 60 m 179 632 l 369 632 q 465 661 432 632 q 512 738 499 690 q 525 844 525 786 q 510 957 525 907 q 451 1035 494 1007 q 318 1064 407 1064 l 179 1064 l 179 632 z "},"Ḃ":{"ha":678,"x_min":104,"x_max":621,"o":"m 104 0 l 104 1125 l 336 1125 q 465 1103 414 1125 q 544 1043 515 1082 q 584 953 572 1004 q 596 844 596 903 q 585 749 596 800 q 547 660 575 699 q 464 607 519 621 q 563 540 529 588 q 609 435 597 493 q 621 328 621 378 q 612 206 621 264 q 576 101 603 147 q 501 27 550 54 q 369 0 451 0 l 104 0 m 179 60 l 360 60 q 509 125 471 60 q 547 326 547 190 q 531 450 547 394 q 477 539 515 506 q 371 572 439 572 l 179 572 l 179 60 m 179 632 l 369 632 q 465 661 432 632 q 512 738 499 690 q 525 844 525 786 q 510 957 525 907 q 451 1035 494 1007 q 318 1064 407 1064 l 179 1064 l 179 632 m 297 1261 l 297 1406 l 381 1406 l 381 1261 l 297 1261 z "},"C":{"ha":679,"x_min":81,"x_max":611,"o":"m 354 -15 q 184 31 243 -15 q 103 153 125 76 q 81 324 81 231 l 81 801 q 104 974 81 899 q 188 1094 128 1050 q 354 1138 247 1138 q 508 1099 453 1138 q 588 988 564 1060 q 611 821 611 917 l 611 764 l 539 764 l 539 821 q 524 958 539 901 q 468 1044 508 1014 q 354 1075 428 1075 q 231 1042 274 1075 q 172 949 188 1008 q 157 810 157 889 l 157 313 q 174 170 157 229 q 233 79 190 111 q 354 47 276 47 q 469 79 429 47 q 524 169 510 111 q 539 303 539 226 l 539 371 l 611 371 l 611 315 q 589 144 611 219 q 511 27 567 69 q 354 -15 456 -15 z "},"Ć":{"ha":679,"x_min":81,"x_max":611,"o":"m 354 -15 q 184 31 243 -15 q 103 153 125 76 q 81 324 81 231 l 81 801 q 104 974 81 899 q 188 1094 128 1050 q 354 1138 247 1138 q 508 1099 453 1138 q 588 988 564 1060 q 611 821 611 917 l 611 764 l 539 764 l 539 821 q 524 958 539 901 q 468 1044 508 1014 q 354 1075 428 1075 q 231 1042 274 1075 q 172 949 188 1008 q 157 810 157 889 l 157 313 q 174 170 157 229 q 233 79 190 111 q 354 47 276 47 q 469 79 429 47 q 524 169 510 111 q 539 303 539 226 l 539 371 l 611 371 l 611 315 q 589 144 611 219 q 511 27 567 69 q 354 -15 456 -15 m 322 1192 l 411 1461 l 486 1461 l 361 1192 l 322 1192 z "},"Č":{"ha":679,"x_min":81,"x_max":611,"o":"m 354 -15 q 184 31 243 -15 q 103 153 125 76 q 81 324 81 231 l 81 801 q 104 974 81 899 q 188 1094 128 1050 q 354 1138 247 1138 q 508 1099 453 1138 q 588 988 564 1060 q 611 821 611 917 l 611 764 l 539 764 l 539 821 q 524 958 539 901 q 468 1044 508 1014 q 354 1075 428 1075 q 231 1042 274 1075 q 172 949 188 1008 q 157 810 157 889 l 157 313 q 174 170 157 229 q 233 79 190 111 q 354 47 276 47 q 469 79 429 47 q 524 169 510 111 q 539 303 539 226 l 539 371 l 611 371 l 611 315 q 589 144 611 219 q 511 27 567 69 q 354 -15 456 -15 m 313 1221 l 194 1447 l 257 1447 l 340 1278 l 424 1447 l 486 1447 l 368 1221 l 313 1221 z "},"Ç":{"ha":679,"x_min":81,"x_max":611,"o":"m 354 -15 q 184 31 243 -15 q 103 153 125 76 q 81 324 81 231 l 81 801 q 104 974 81 899 q 188 1094 128 1050 q 354 1138 247 1138 q 508 1099 453 1138 q 588 988 564 1060 q 611 821 611 917 l 611 764 l 539 764 l 539 821 q 524 958 539 901 q 468 1044 508 1014 q 354 1075 428 1075 q 231 1042 274 1075 q 172 949 188 1008 q 157 810 157 889 l 157 313 q 174 170 157 229 q 233 79 190 111 q 354 47 276 47 q 469 79 429 47 q 524 169 510 111 q 539 303 539 226 l 539 371 l 611 371 l 611 315 q 589 144 611 219 q 511 27 567 69 q 354 -15 456 -15 m 329 -258 q 310 -258 319 -258 q 289 -256 300 -257 l 289 -215 q 305 -217 297 -217 q 319 -218 313 -218 q 391 -204 368 -218 q 414 -160 414 -190 q 403 -126 414 -140 q 372 -103 393 -112 q 319 -92 351 -94 l 319 0 l 360 0 l 360 -65 q 445 -94 419 -68 q 471 -160 471 -119 q 455 -214 471 -192 q 408 -247 439 -236 q 329 -258 376 -258 z "},"Ĉ":{"ha":679,"x_min":81,"x_max":611,"o":"m 354 -15 q 184 31 243 -15 q 103 153 125 76 q 81 324 81 231 l 81 801 q 104 974 81 899 q 188 1094 128 1050 q 354 1138 247 1138 q 508 1099 453 1138 q 588 988 564 1060 q 611 821 611 917 l 611 764 l 539 764 l 539 821 q 524 958 539 901 q 468 1044 508 1014 q 354 1075 428 1075 q 231 1042 274 1075 q 172 949 188 1008 q 157 810 157 889 l 157 313 q 174 170 157 229 q 233 79 190 111 q 354 47 276 47 q 469 79 429 47 q 524 169 510 111 q 539 303 539 226 l 539 371 l 611 371 l 611 315 q 589 144 611 219 q 511 27 567 69 q 354 -15 456 -15 m 175 1197 l 294 1447 l 386 1447 l 504 1197 l 451 1197 l 340 1410 l 229 1197 l 175 1197 z "},"Ċ":{"ha":679,"x_min":81,"x_max":611,"o":"m 354 -15 q 184 31 243 -15 q 103 153 125 76 q 81 324 81 231 l 81 801 q 104 974 81 899 q 188 1094 128 1050 q 354 1138 247 1138 q 508 1099 453 1138 q 588 988 564 1060 q 611 821 611 917 l 611 764 l 539 764 l 539 821 q 524 958 539 901 q 468 1044 508 1014 q 354 1075 428 1075 q 231 1042 274 1075 q 172 949 188 1008 q 157 810 157 889 l 157 313 q 174 170 157 229 q 233 79 190 111 q 354 47 276 47 q 469 79 429 47 q 524 169 510 111 q 539 303 539 226 l 539 371 l 611 371 l 611 315 q 589 144 611 219 q 511 27 567 69 q 354 -15 456 -15 m 299 1261 l 299 1406 l 382 1406 l 382 1261 l 299 1261 z "},"D":{"ha":718,"x_min":104,"x_max":638,"o":"m 104 0 l 104 1125 l 350 1125 q 525 1082 463 1125 q 613 965 588 1039 q 638 801 638 892 l 638 335 q 613 163 638 239 q 527 44 588 88 q 357 0 467 0 l 104 0 m 179 60 l 353 60 q 489 99 444 60 q 547 202 533 138 q 561 343 561 267 l 561 796 q 544 938 561 878 q 482 1031 528 999 q 350 1064 436 1064 l 179 1064 l 179 60 z "},"Ǳ":{"ha":1275,"x_min":104,"x_max":1249,"o":"m 104 0 l 104 1125 l 350 1125 q 525 1082 463 1125 q 613 965 588 1039 q 638 801 638 892 l 638 335 q 613 163 638 239 q 527 44 588 88 q 357 0 467 0 l 104 0 m 179 60 l 353 60 q 489 99 444 60 q 547 202 533 138 q 561 343 561 267 l 561 796 q 544 938 561 878 q 482 1031 528 999 q 350 1064 436 1064 l 179 1064 l 179 60 m 761 0 l 761 60 l 1165 1065 l 797 1065 l 797 1125 l 1247 1125 l 1247 1078 l 839 60 l 1249 60 l 1249 0 l 761 0 z "},"Ǆ":{"ha":1275,"x_min":104,"x_max":1249,"o":"m 104 0 l 104 1125 l 350 1125 q 525 1082 463 1125 q 613 965 588 1039 q 638 801 638 892 l 638 335 q 613 163 638 239 q 527 44 588 88 q 357 0 467 0 l 104 0 m 179 60 l 353 60 q 489 99 444 60 q 547 202 533 138 q 561 343 561 267 l 561 796 q 544 938 561 878 q 482 1031 528 999 q 350 1064 436 1064 l 179 1064 l 179 60 m 761 0 l 761 60 l 1165 1065 l 797 1065 l 797 1125 l 1247 1125 l 1247 1078 l 839 60 l 1249 60 l 1249 0 l 761 0 m 969 1221 l 851 1447 l 914 1447 l 997 1278 l 1081 1447 l 1143 1447 l 1025 1221 l 969 1221 z "},"Ð":{"ha":779,"x_min":13,"x_max":638,"o":"m 104 0 l 104 567 l 13 567 l 13 618 l 104 618 l 104 1125 l 350 1125 q 525 1082 463 1125 q 613 965 588 1039 q 638 801 638 892 l 638 335 q 613 163 638 239 q 527 44 588 88 q 357 0 467 0 l 104 0 m 179 60 l 353 60 q 489 99 444 60 q 547 202 533 138 q 561 343 561 267 l 561 796 q 544 938 561 878 q 482 1031 528 999 q 350 1064 436 1064 l 179 1064 l 179 618 l 310 618 l 310 567 l 179 567 l 179 60 z "},"Ď":{"ha":718,"x_min":104,"x_max":638,"o":"m 104 0 l 104 1125 l 350 1125 q 525 1082 463 1125 q 613 965 588 1039 q 638 801 638 892 l 638 335 q 613 163 638 239 q 527 44 588 88 q 357 0 467 0 l 104 0 m 179 60 l 353 60 q 489 99 444 60 q 547 202 533 138 q 561 343 561 267 l 561 796 q 544 938 561 878 q 482 1031 528 999 q 350 1064 436 1064 l 179 1064 l 179 60 m 332 1221 l 214 1447 l 276 1447 l 360 1278 l 443 1447 l 506 1447 l 388 1221 l 332 1221 z "},"Đ":{"ha":719,"x_min":14,"x_max":639,"o":"m 104 0 l 104 567 l 14 567 l 14 618 l 104 618 l 104 1125 l 351 1125 q 526 1082 464 1125 q 614 965 589 1039 q 639 801 639 892 l 639 335 q 614 163 639 239 q 528 44 589 88 q 358 0 467 0 l 104 0 m 181 60 l 354 60 q 490 99 446 60 q 549 202 535 138 q 563 343 563 267 l 563 796 q 546 938 563 878 q 483 1031 529 999 q 350 1064 438 1064 l 181 1064 l 181 618 l 311 618 l 311 567 l 181 567 l 181 60 z "},"Ḋ":{"ha":718,"x_min":104,"x_max":638,"o":"m 104 0 l 104 1125 l 350 1125 q 525 1082 463 1125 q 613 965 588 1039 q 638 801 638 892 l 638 335 q 613 163 638 239 q 527 44 588 88 q 357 0 467 0 l 104 0 m 179 60 l 353 60 q 489 99 444 60 q 547 202 533 138 q 561 343 561 267 l 561 796 q 544 938 561 878 q 482 1031 528 999 q 350 1064 436 1064 l 179 1064 l 179 60 m 318 1261 l 318 1406 l 401 1406 l 401 1261 l 318 1261 z "},"ǲ":{"ha":1169,"x_min":104,"x_max":1128,"o":"m 104 0 l 104 1125 l 350 1125 q 525 1082 463 1125 q 613 965 588 1039 q 638 801 638 892 l 638 335 q 613 163 638 239 q 527 44 588 88 q 357 0 467 0 l 104 0 m 179 60 l 353 60 q 489 99 444 60 q 547 202 533 138 q 561 343 561 267 l 561 796 q 544 938 561 878 q 482 1031 528 999 q 350 1064 436 1064 l 179 1064 l 179 60 m 763 0 l 763 54 l 1053 746 l 793 746 l 793 803 l 1128 803 l 1128 754 l 840 57 l 1124 57 l 1124 0 l 763 0 z "},"ǅ":{"ha":1169,"x_min":104,"x_max":1128,"o":"m 104 0 l 104 1125 l 350 1125 q 525 1082 463 1125 q 613 965 588 1039 q 638 801 638 892 l 638 335 q 613 163 638 239 q 527 44 588 88 q 357 0 467 0 l 104 0 m 179 60 l 353 60 q 489 99 444 60 q 547 202 533 138 q 561 343 561 267 l 561 796 q 544 938 561 878 q 482 1031 528 999 q 350 1064 436 1064 l 179 1064 l 179 60 m 763 0 l 763 54 l 1053 746 l 793 746 l 793 803 l 1128 803 l 1128 754 l 840 57 l 1124 57 l 1124 0 l 763 0 m 917 899 l 799 1125 l 861 1125 l 944 956 l 1028 1125 l 1090 1125 l 972 899 l 917 899 z "},"E":{"ha":546,"x_min":103,"x_max":496,"o":"m 103 0 l 103 1125 l 492 1125 l 492 1064 l 179 1064 l 179 613 l 436 613 l 436 554 l 179 554 l 179 60 l 496 60 l 496 0 l 103 0 z "},"É":{"ha":546,"x_min":103,"x_max":496,"o":"m 103 0 l 103 1125 l 492 1125 l 492 1064 l 179 1064 l 179 613 l 436 613 l 436 554 l 179 554 l 179 60 l 496 60 l 496 0 l 103 0 m 283 1192 l 372 1461 l 447 1461 l 322 1192 l 283 1192 z "},"Ĕ":{"ha":546,"x_min":103,"x_max":496,"o":"m 103 0 l 103 1125 l 492 1125 l 492 1064 l 179 1064 l 179 613 l 436 613 l 436 554 l 179 554 l 179 60 l 496 60 l 496 0 l 103 0 m 300 1210 q 188 1247 231 1210 q 143 1364 146 1285 l 194 1364 q 226 1281 196 1304 q 300 1257 257 1257 q 374 1281 343 1257 q 408 1364 404 1304 l 460 1364 q 413 1247 457 1285 q 300 1210 369 1210 z "},"Ě":{"ha":546,"x_min":103,"x_max":496,"o":"m 103 0 l 103 1125 l 492 1125 l 492 1064 l 179 1064 l 179 613 l 436 613 l 436 554 l 179 554 l 179 60 l 496 60 l 496 0 l 103 0 m 274 1221 l 156 1447 l 218 1447 l 301 1278 l 385 1447 l 447 1447 l 329 1221 l 274 1221 z "},"Ê":{"ha":546,"x_min":103,"x_max":496,"o":"m 103 0 l 103 1125 l 492 1125 l 492 1064 l 179 1064 l 179 613 l 436 613 l 436 554 l 179 554 l 179 60 l 496 60 l 496 0 l 103 0 m 136 1197 l 256 1447 l 347 1447 l 465 1197 l 413 1197 l 301 1410 l 190 1197 l 136 1197 z "},"Ế":{"ha":546,"x_min":103,"x_max":590,"o":"m 103 0 l 103 1125 l 492 1125 l 492 1064 l 179 1064 l 179 613 l 436 613 l 436 554 l 179 554 l 179 60 l 496 60 l 496 0 l 103 0 m 136 1197 l 256 1392 l 347 1392 l 465 1197 l 413 1197 l 301 1357 l 190 1197 l 136 1197 m 444 1321 l 518 1481 l 590 1481 l 497 1321 l 444 1321 z "},"Ệ":{"ha":546,"x_min":103,"x_max":496,"o":"m 103 0 l 103 1125 l 492 1125 l 492 1064 l 179 1064 l 179 613 l 436 613 l 436 554 l 179 554 l 179 60 l 496 60 l 496 0 l 103 0 m 136 1197 l 256 1392 l 347 1392 l 465 1197 l 413 1197 l 301 1357 l 190 1197 l 136 1197 m 258 -187 l 258 -83 l 342 -83 l 342 -187 l 258 -187 z "},"Ề":{"ha":546,"x_min":103,"x_max":533,"o":"m 103 0 l 103 1125 l 492 1125 l 492 1064 l 179 1064 l 179 613 l 436 613 l 436 554 l 179 554 l 179 60 l 496 60 l 496 0 l 103 0 m 136 1197 l 256 1392 l 347 1392 l 465 1197 l 413 1197 l 301 1357 l 190 1197 l 136 1197 m 481 1321 l 388 1481 l 460 1481 l 533 1321 l 481 1321 z "},"Ể":{"ha":546,"x_min":103,"x_max":554,"o":"m 103 0 l 103 1125 l 492 1125 l 492 1064 l 179 1064 l 179 613 l 436 613 l 436 554 l 179 554 l 179 60 l 496 60 l 496 0 l 103 0 m 464 1319 l 433 1351 q 481 1387 465 1369 q 497 1426 497 1404 q 482 1462 497 1450 q 438 1474 467 1474 q 407 1472 422 1474 q 375 1464 392 1469 l 375 1501 q 414 1511 394 1508 q 451 1514 433 1514 q 527 1492 500 1514 q 554 1431 554 1471 q 527 1364 554 1389 q 464 1319 500 1339 m 136 1197 l 256 1392 l 347 1392 l 465 1197 l 413 1197 l 301 1357 l 190 1197 l 136 1197 z "},"Ễ":{"ha":546,"x_min":103,"x_max":496,"o":"m 103 0 l 103 1125 l 492 1125 l 492 1064 l 179 1064 l 179 613 l 436 613 l 436 554 l 179 554 l 179 60 l 496 60 l 496 0 l 103 0 m 136 1197 l 256 1392 l 347 1392 l 465 1197 l 413 1197 l 301 1357 l 190 1197 l 136 1197 m 374 1461 q 319 1478 343 1461 q 274 1510 294 1494 q 231 1526 253 1526 q 199 1513 211 1526 q 188 1472 188 1499 l 138 1472 q 144 1510 138 1485 q 168 1556 150 1535 q 224 1578 186 1578 q 282 1562 257 1578 q 328 1529 307 1546 q 372 1513 350 1513 q 406 1526 394 1513 q 418 1575 417 1540 l 465 1575 q 460 1532 465 1560 q 435 1483 454 1504 q 374 1461 415 1461 z "},"Ȅ":{"ha":546,"x_min":86,"x_max":496,"o":"m 103 0 l 103 1125 l 492 1125 l 492 1064 l 179 1064 l 179 613 l 436 613 l 436 554 l 179 554 l 179 60 l 496 60 l 496 0 l 103 0 m 206 1243 l 86 1447 l 168 1447 l 246 1243 l 206 1243 m 342 1243 l 249 1447 l 321 1447 l 379 1243 l 342 1243 z "},"Ë":{"ha":546,"x_min":103,"x_max":496,"o":"m 103 0 l 103 1125 l 492 1125 l 492 1064 l 179 1064 l 179 613 l 436 613 l 436 554 l 179 554 l 179 60 l 496 60 l 496 0 l 103 0 m 375 1342 l 375 1447 l 453 1447 l 453 1342 l 375 1342 m 153 1342 l 153 1447 l 229 1447 l 229 1342 l 153 1342 z "},"Ė":{"ha":546,"x_min":103,"x_max":496,"o":"m 103 0 l 103 1125 l 492 1125 l 492 1064 l 179 1064 l 179 613 l 436 613 l 436 554 l 179 554 l 179 60 l 496 60 l 496 0 l 103 0 m 260 1261 l 260 1406 l 343 1406 l 343 1261 l 260 1261 z "},"Ẹ":{"ha":546,"x_min":103,"x_max":496,"o":"m 103 0 l 103 1125 l 492 1125 l 492 1064 l 179 1064 l 179 613 l 436 613 l 436 554 l 179 554 l 179 60 l 496 60 l 496 0 l 103 0 m 258 -187 l 258 -83 l 342 -83 l 342 -187 l 258 -187 z "},"È":{"ha":546,"x_min":103,"x_max":496,"o":"m 103 0 l 103 1125 l 492 1125 l 492 1064 l 179 1064 l 179 613 l 436 613 l 436 554 l 179 554 l 179 60 l 496 60 l 496 0 l 103 0 m 281 1192 l 168 1461 l 243 1461 l 318 1192 l 281 1192 z "},"Ẻ":{"ha":546,"x_min":103,"x_max":496,"o":"m 103 0 l 103 1125 l 492 1125 l 492 1064 l 179 1064 l 179 613 l 436 613 l 436 554 l 179 554 l 179 60 l 496 60 l 496 0 l 103 0 m 300 1239 l 269 1271 q 319 1306 301 1289 q 336 1346 336 1324 q 321 1382 336 1371 q 272 1393 306 1393 q 243 1391 258 1393 q 211 1386 228 1389 l 211 1425 q 285 1433 249 1433 q 344 1424 321 1433 q 381 1397 368 1415 q 393 1350 393 1378 q 381 1302 393 1322 q 347 1267 368 1282 q 300 1239 325 1251 z "},"Ȇ":{"ha":546,"x_min":103,"x_max":496,"o":"m 103 0 l 103 1125 l 492 1125 l 492 1064 l 179 1064 l 179 613 l 436 613 l 436 554 l 179 554 l 179 60 l 496 60 l 496 0 l 103 0 m 143 1293 q 166 1380 146 1346 q 221 1431 186 1414 q 301 1447 256 1447 q 383 1431 349 1447 q 438 1380 418 1414 q 460 1293 458 1346 l 408 1293 q 376 1376 407 1353 q 301 1399 346 1399 q 228 1376 258 1399 q 194 1293 197 1353 l 143 1293 z "},"Ē":{"ha":546,"x_min":103,"x_max":496,"o":"m 103 0 l 103 1125 l 492 1125 l 492 1064 l 179 1064 l 179 613 l 436 613 l 436 554 l 179 554 l 179 60 l 496 60 l 496 0 l 103 0 m 182 1294 l 182 1350 l 421 1350 l 421 1294 l 182 1294 z "},"Ę":{"ha":546,"x_min":103,"x_max":496,"o":"m 103 0 l 103 1125 l 492 1125 l 492 1064 l 179 1064 l 179 613 l 436 613 l 436 554 l 179 554 l 179 60 l 496 60 l 496 0 l 103 0 m 444 -279 q 388 -272 414 -279 q 344 -250 363 -264 q 315 -215 325 -236 q 306 -168 306 -194 q 320 -105 306 -135 q 360 -48 335 -75 q 415 0 385 -21 l 457 0 q 410 -53 431 -26 q 376 -107 389 -81 q 364 -162 364 -133 q 393 -219 364 -201 q 464 -236 422 -236 q 477 -235 471 -236 q 489 -233 483 -235 l 481 -276 q 465 -278 475 -278 q 444 -279 456 -279 z "},"Ẽ":{"ha":546,"x_min":103,"x_max":496,"o":"m 103 0 l 103 1125 l 492 1125 l 492 1064 l 179 1064 l 179 613 l 436 613 l 436 554 l 179 554 l 179 60 l 496 60 l 496 0 l 103 0 m 374 1276 q 319 1293 343 1276 q 274 1326 294 1310 q 231 1342 253 1342 q 199 1328 211 1342 q 188 1288 188 1314 l 138 1288 q 144 1325 138 1300 q 168 1372 150 1350 q 224 1393 186 1393 q 282 1377 257 1393 q 328 1344 307 1361 q 372 1328 350 1328 q 406 1342 394 1328 q 418 1390 417 1356 l 465 1390 q 460 1347 465 1375 q 435 1298 454 1319 q 374 1276 415 1276 z "},"Ʒ":{"ha":663,"x_min":83,"x_max":581,"o":"m 322 -15 q 183 17 236 -15 q 107 110 131 50 q 83 250 83 169 l 83 271 l 153 271 q 153 260 153 268 q 153 249 153 251 q 192 97 153 150 q 321 44 232 44 q 420 68 383 44 q 475 132 457 92 q 499 222 493 172 q 504 325 504 272 q 478 499 504 432 q 401 599 453 567 q 269 631 349 631 l 158 631 l 158 690 l 436 1065 l 110 1065 l 110 1125 l 525 1125 l 525 1078 l 200 639 l 175 689 l 274 689 q 442 653 374 689 q 545 540 510 617 q 581 336 581 463 q 556 147 581 226 q 476 26 532 68 q 322 -15 419 -15 z "},"Ǯ":{"ha":663,"x_min":83,"x_max":581,"o":"m 322 -15 q 183 17 236 -15 q 107 110 131 50 q 83 250 83 169 l 83 271 l 153 271 q 153 260 153 268 q 153 249 153 251 q 192 97 153 150 q 321 44 232 44 q 420 68 383 44 q 475 132 457 92 q 499 222 493 172 q 504 325 504 272 q 478 499 504 432 q 401 599 453 567 q 269 631 349 631 l 158 631 l 158 690 l 436 1065 l 110 1065 l 110 1125 l 525 1125 l 525 1078 l 200 639 l 175 689 l 274 689 q 442 653 374 689 q 545 540 510 617 q 581 336 581 463 q 556 147 581 226 q 476 26 532 68 q 322 -15 419 -15 m 304 1221 l 186 1447 l 249 1447 l 332 1278 l 415 1447 l 478 1447 l 360 1221 l 304 1221 z "},"F":{"ha":532,"x_min":104,"x_max":492,"o":"m 104 0 l 104 1125 l 492 1125 l 492 1065 l 179 1065 l 179 613 l 449 613 l 449 554 l 179 554 l 179 0 l 104 0 z "},"Ḟ":{"ha":532,"x_min":104,"x_max":492,"o":"m 104 0 l 104 1125 l 492 1125 l 492 1065 l 179 1065 l 179 613 l 449 613 l 449 554 l 179 554 l 179 0 l 104 0 m 225 1261 l 225 1406 l 308 1406 l 308 1261 l 225 1261 z "},"G":{"ha":708,"x_min":81,"x_max":615,"o":"m 350 -15 q 185 28 243 -15 q 103 150 126 72 q 81 326 81 228 l 81 804 q 103 978 81 903 q 186 1095 126 1053 q 354 1138 246 1138 q 509 1099 453 1138 q 590 988 565 1060 q 614 817 614 915 l 614 778 l 542 778 l 542 821 q 525 960 542 904 q 468 1046 508 1017 q 354 1075 428 1075 q 229 1041 272 1075 q 172 947 186 1007 q 157 807 157 886 l 157 317 q 174 174 157 235 q 233 81 190 114 q 356 47 276 47 q 472 79 431 47 q 528 171 513 111 q 544 313 544 231 l 544 478 l 365 478 l 365 536 l 615 536 l 615 0 l 567 0 l 556 126 q 487 23 535 61 q 350 -15 439 -15 z "},"Ǵ":{"ha":708,"x_min":81,"x_max":615,"o":"m 350 -15 q 185 28 243 -15 q 103 150 126 72 q 81 326 81 228 l 81 804 q 103 978 81 903 q 186 1095 126 1053 q 354 1138 246 1138 q 509 1099 453 1138 q 590 988 565 1060 q 614 817 614 915 l 614 778 l 542 778 l 542 821 q 525 960 542 904 q 468 1046 508 1017 q 354 1075 428 1075 q 229 1041 272 1075 q 172 947 186 1007 q 157 807 157 886 l 157 317 q 174 174 157 235 q 233 81 190 114 q 356 47 276 47 q 472 79 431 47 q 528 171 513 111 q 544 313 544 231 l 544 478 l 365 478 l 365 536 l 615 536 l 615 0 l 567 0 l 556 126 q 487 23 535 61 q 350 -15 439 -15 m 336 1192 l 425 1461 l 500 1461 l 375 1192 l 336 1192 z "},"Ğ":{"ha":708,"x_min":81,"x_max":615,"o":"m 350 -15 q 185 28 243 -15 q 103 150 126 72 q 81 326 81 228 l 81 804 q 103 978 81 903 q 186 1095 126 1053 q 354 1138 246 1138 q 509 1099 453 1138 q 590 988 565 1060 q 614 817 614 915 l 614 778 l 542 778 l 542 821 q 525 960 542 904 q 468 1046 508 1017 q 354 1075 428 1075 q 229 1041 272 1075 q 172 947 186 1007 q 157 807 157 886 l 157 317 q 174 174 157 235 q 233 81 190 114 q 356 47 276 47 q 472 79 431 47 q 528 171 513 111 q 544 313 544 231 l 544 478 l 365 478 l 365 536 l 615 536 l 615 0 l 567 0 l 556 126 q 487 23 535 61 q 350 -15 439 -15 m 353 1210 q 241 1247 283 1210 q 196 1364 199 1285 l 247 1364 q 279 1281 249 1304 q 353 1257 310 1257 q 426 1281 396 1257 q 461 1364 457 1304 l 513 1364 q 466 1247 510 1285 q 353 1210 422 1210 z "},"Ǧ":{"ha":708,"x_min":81,"x_max":615,"o":"m 350 -15 q 185 28 243 -15 q 103 150 126 72 q 81 326 81 228 l 81 804 q 103 978 81 903 q 186 1095 126 1053 q 354 1138 246 1138 q 509 1099 453 1138 q 590 988 565 1060 q 614 817 614 915 l 614 778 l 542 778 l 542 821 q 525 960 542 904 q 468 1046 508 1017 q 354 1075 428 1075 q 229 1041 272 1075 q 172 947 186 1007 q 157 807 157 886 l 157 317 q 174 174 157 235 q 233 81 190 114 q 356 47 276 47 q 472 79 431 47 q 528 171 513 111 q 544 313 544 231 l 544 478 l 365 478 l 365 536 l 615 536 l 615 0 l 567 0 l 556 126 q 487 23 535 61 q 350 -15 439 -15 m 326 1221 l 208 1447 l 271 1447 l 354 1278 l 438 1447 l 500 1447 l 382 1221 l 326 1221 z "},"Ĝ":{"ha":708,"x_min":81,"x_max":615,"o":"m 350 -15 q 185 28 243 -15 q 103 150 126 72 q 81 326 81 228 l 81 804 q 103 978 81 903 q 186 1095 126 1053 q 354 1138 246 1138 q 509 1099 453 1138 q 590 988 565 1060 q 614 817 614 915 l 614 778 l 542 778 l 542 821 q 525 960 542 904 q 468 1046 508 1017 q 354 1075 428 1075 q 229 1041 272 1075 q 172 947 186 1007 q 157 807 157 886 l 157 317 q 174 174 157 235 q 233 81 190 114 q 356 47 276 47 q 472 79 431 47 q 528 171 513 111 q 544 313 544 231 l 544 478 l 365 478 l 365 536 l 615 536 l 615 0 l 567 0 l 556 126 q 487 23 535 61 q 350 -15 439 -15 m 189 1197 l 308 1447 l 400 1447 l 518 1197 l 465 1197 l 354 1410 l 243 1197 l 189 1197 z "},"Ģ":{"ha":708,"x_min":81,"x_max":615,"o":"m 350 -15 q 185 28 243 -15 q 103 150 126 72 q 81 326 81 228 l 81 804 q 103 978 81 903 q 186 1095 126 1053 q 354 1138 246 1138 q 509 1099 453 1138 q 590 988 565 1060 q 614 817 614 915 l 614 778 l 542 778 l 542 821 q 525 960 542 904 q 468 1046 508 1017 q 354 1075 428 1075 q 229 1041 272 1075 q 172 947 186 1007 q 157 807 157 886 l 157 317 q 174 174 157 235 q 233 81 190 114 q 356 47 276 47 q 472 79 431 47 q 528 171 513 111 q 544 313 544 231 l 544 478 l 365 478 l 365 536 l 615 536 l 615 0 l 567 0 l 556 126 q 487 23 535 61 q 350 -15 439 -15 m 322 -333 l 304 -304 q 351 -245 340 -281 q 361 -187 361 -210 l 313 -187 l 313 -83 l 403 -83 l 403 -169 q 386 -272 403 -233 q 322 -333 369 -310 z "},"Ġ":{"ha":708,"x_min":81,"x_max":615,"o":"m 350 -15 q 185 28 243 -15 q 103 150 126 72 q 81 326 81 228 l 81 804 q 103 978 81 903 q 186 1095 126 1053 q 354 1138 246 1138 q 509 1099 453 1138 q 590 988 565 1060 q 614 817 614 915 l 614 778 l 542 778 l 542 821 q 525 960 542 904 q 468 1046 508 1017 q 354 1075 428 1075 q 229 1041 272 1075 q 172 947 186 1007 q 157 807 157 886 l 157 317 q 174 174 157 235 q 233 81 190 114 q 356 47 276 47 q 472 79 431 47 q 528 171 513 111 q 544 313 544 231 l 544 478 l 365 478 l 365 536 l 615 536 l 615 0 l 567 0 l 556 126 q 487 23 535 61 q 350 -15 439 -15 m 313 1261 l 313 1406 l 396 1406 l 396 1261 l 313 1261 z "},"Ǥ":{"ha":708,"x_min":81,"x_max":722,"o":"m 425 318 l 425 369 l 722 369 l 722 318 l 425 318 m 350 -15 q 185 28 243 -15 q 103 150 126 72 q 81 326 81 228 l 81 804 q 103 978 81 903 q 186 1095 126 1053 q 354 1138 246 1138 q 509 1099 453 1138 q 590 988 565 1060 q 614 817 614 915 l 614 778 l 542 778 l 542 821 q 525 960 542 904 q 468 1046 508 1017 q 354 1075 428 1075 q 229 1041 272 1075 q 172 947 186 1007 q 157 807 157 886 l 157 317 q 174 174 157 235 q 233 81 190 114 q 356 47 276 47 q 472 79 431 47 q 528 171 513 111 q 544 313 544 231 l 544 478 l 365 478 l 365 536 l 615 536 l 615 0 l 567 0 l 556 126 q 487 23 535 61 q 350 -15 439 -15 z "},"H":{"ha":753,"x_min":103,"x_max":649,"o":"m 103 0 l 103 1125 l 179 1125 l 179 618 l 574 618 l 574 1125 l 649 1125 l 649 0 l 574 0 l 574 560 l 179 560 l 179 0 l 103 0 z "},"Ħ":{"ha":753,"x_min":51,"x_max":701,"o":"m 103 0 l 103 889 l 51 889 l 51 933 l 103 933 l 103 1125 l 179 1125 l 179 933 l 574 933 l 574 1125 l 649 1125 l 649 933 l 701 933 l 701 889 l 649 889 l 649 0 l 574 0 l 574 560 l 179 560 l 179 0 l 103 0 m 179 618 l 574 618 l 574 889 l 179 889 l 179 618 z "},"Ȟ":{"ha":753,"x_min":103,"x_max":649,"o":"m 103 0 l 103 1125 l 179 1125 l 179 618 l 574 618 l 574 1125 l 649 1125 l 649 0 l 574 0 l 574 560 l 179 560 l 179 0 l 103 0 m 349 1221 l 231 1447 l 293 1447 l 376 1278 l 460 1447 l 522 1447 l 404 1221 l 349 1221 z "},"Ĥ":{"ha":753,"x_min":103,"x_max":649,"o":"m 103 0 l 103 1125 l 179 1125 l 179 618 l 574 618 l 574 1125 l 649 1125 l 649 0 l 574 0 l 574 560 l 179 560 l 179 0 l 103 0 m 211 1197 l 331 1447 l 422 1447 l 540 1197 l 488 1197 l 376 1410 l 265 1197 l 211 1197 z "},"I":{"ha":286,"x_min":106,"x_max":181,"o":"m 106 0 l 106 1125 l 181 1125 l 181 0 l 106 0 z "},"Ĳ":{"ha":654,"x_min":106,"x_max":550,"o":"m 106 0 l 106 1125 l 181 1125 l 181 0 l 106 0 m 297 -62 l 297 -3 q 395 6 360 -3 q 448 36 431 14 q 470 100 465 58 q 475 208 475 142 l 475 1125 l 550 1125 l 550 200 q 536 51 550 110 q 476 -35 522 -7 q 336 -62 431 -62 l 297 -62 z "},"Í":{"ha":286,"x_min":106,"x_max":289,"o":"m 106 0 l 106 1125 l 181 1125 l 181 0 l 106 0 m 125 1192 l 214 1461 l 289 1461 l 164 1192 l 125 1192 z "},"Ĭ":{"ha":286,"x_min":-15,"x_max":301,"o":"m 106 0 l 106 1125 l 181 1125 l 181 0 l 106 0 m 142 1210 q 30 1247 72 1210 q -15 1364 -12 1285 l 36 1364 q 68 1281 38 1304 q 142 1257 99 1257 q 215 1281 185 1257 q 250 1364 246 1304 l 301 1364 q 255 1247 299 1285 q 142 1210 211 1210 z "},"Î":{"ha":286,"x_min":-22,"x_max":307,"o":"m 106 0 l 106 1125 l 181 1125 l 181 0 l 106 0 m -22 1197 l 97 1447 l 189 1447 l 307 1197 l 254 1197 l 143 1410 l 32 1197 l -22 1197 z "},"Ȉ":{"ha":286,"x_min":-72,"x_max":221,"o":"m 106 0 l 106 1125 l 181 1125 l 181 0 l 106 0 m 47 1243 l -72 1447 l 10 1447 l 88 1243 l 47 1243 m 183 1243 l 90 1447 l 163 1447 l 221 1243 l 183 1243 z "},"Ï":{"ha":286,"x_min":-6,"x_max":294,"o":"m 106 0 l 106 1125 l 181 1125 l 181 0 l 106 0 m 217 1342 l 217 1447 l 294 1447 l 294 1342 l 217 1342 m -6 1342 l -6 1447 l 71 1447 l 71 1342 l -6 1342 z "},"İ":{"ha":286,"x_min":101,"x_max":185,"o":"m 106 0 l 106 1125 l 181 1125 l 181 0 l 106 0 m 101 1261 l 101 1406 l 185 1406 l 185 1261 l 101 1261 z "},"Ị":{"ha":286,"x_min":101,"x_max":185,"o":"m 106 0 l 106 1125 l 181 1125 l 181 0 l 106 0 m 101 -187 l 101 -83 l 185 -83 l 185 -187 l 101 -187 z "},"Ì":{"ha":286,"x_min":10,"x_max":181,"o":"m 106 0 l 106 1125 l 181 1125 l 181 0 l 106 0 m 122 1192 l 10 1461 l 85 1461 l 160 1192 l 122 1192 z "},"Ỉ":{"ha":286,"x_min":53,"x_max":235,"o":"m 106 0 l 106 1125 l 181 1125 l 181 0 l 106 0 m 142 1239 l 111 1271 q 160 1306 143 1289 q 178 1346 178 1324 q 163 1382 178 1371 q 114 1393 147 1393 q 85 1391 100 1393 q 53 1386 69 1389 l 53 1425 q 126 1433 90 1433 q 186 1424 163 1433 q 222 1397 210 1415 q 235 1350 235 1378 q 222 1302 235 1322 q 188 1267 210 1282 q 142 1239 167 1251 z "},"Ȋ":{"ha":286,"x_min":-15,"x_max":301,"o":"m 106 0 l 106 1125 l 181 1125 l 181 0 l 106 0 m -15 1293 q 8 1380 -12 1346 q 63 1431 28 1414 q 143 1447 97 1447 q 225 1431 190 1447 q 280 1380 260 1414 q 301 1293 300 1346 l 250 1293 q 218 1376 249 1353 q 143 1399 188 1399 q 69 1376 100 1399 q 36 1293 39 1353 l -15 1293 z "},"Ī":{"ha":286,"x_min":24,"x_max":263,"o":"m 106 0 l 106 1125 l 181 1125 l 181 0 l 106 0 m 24 1294 l 24 1350 l 263 1350 l 263 1294 l 24 1294 z "},"Į":{"ha":286,"x_min":13,"x_max":196,"o":"m 106 0 l 106 1125 l 181 1125 l 181 0 l 106 0 m 151 -279 q 95 -272 121 -279 q 51 -250 69 -264 q 22 -215 32 -236 q 13 -168 13 -194 q 27 -105 13 -135 q 67 -48 42 -75 q 122 0 92 -21 l 164 0 q 117 -53 138 -26 q 83 -107 96 -81 q 71 -162 71 -133 q 100 -219 71 -201 q 171 -236 129 -236 q 184 -235 178 -236 q 196 -233 190 -235 l 188 -276 q 172 -278 182 -278 q 151 -279 163 -279 z "},"Ĩ":{"ha":286,"x_min":-21,"x_max":307,"o":"m 106 0 l 106 1125 l 181 1125 l 181 0 l 106 0 m 215 1276 q 160 1293 185 1276 q 115 1326 136 1310 q 72 1342 94 1342 q 41 1328 53 1342 q 29 1288 29 1314 l -21 1288 q -15 1325 -21 1300 q 10 1372 -8 1350 q 65 1393 28 1393 q 124 1377 99 1393 q 170 1344 149 1361 q 214 1328 192 1328 q 247 1342 236 1328 q 260 1390 258 1356 l 307 1390 q 301 1347 307 1375 q 276 1298 296 1319 q 215 1276 257 1276 z "},"J":{"ha":368,"x_min":11,"x_max":264,"o":"m 11 -62 l 11 -3 q 109 6 74 -3 q 162 36 144 14 q 184 100 179 58 q 189 208 189 142 l 189 1125 l 264 1125 l 264 200 q 250 51 264 110 q 190 -35 236 -7 q 50 -62 144 -62 l 11 -62 z "},"Ĵ":{"ha":368,"x_min":11,"x_max":390,"o":"m 11 -62 l 11 -3 q 109 6 74 -3 q 162 36 144 14 q 184 100 179 58 q 189 208 189 142 l 189 1125 l 264 1125 l 264 200 q 250 51 264 110 q 190 -35 236 -7 q 50 -62 144 -62 l 11 -62 m 61 1197 l 181 1447 l 272 1447 l 390 1197 l 338 1197 l 226 1410 l 115 1197 l 61 1197 z "},"K":{"ha":639,"x_min":103,"x_max":638,"o":"m 103 0 l 103 1125 l 179 1125 l 179 493 l 506 1125 l 581 1125 l 343 649 l 638 0 l 563 0 l 297 583 l 179 368 l 179 0 l 103 0 z "},"Ǩ":{"ha":639,"x_min":103,"x_max":638,"o":"m 103 0 l 103 1125 l 179 1125 l 179 493 l 506 1125 l 581 1125 l 343 649 l 638 0 l 563 0 l 297 583 l 179 368 l 179 0 l 103 0 m 292 1221 l 174 1447 l 236 1447 l 319 1278 l 403 1447 l 465 1447 l 347 1221 l 292 1221 z "},"Ķ":{"ha":639,"x_min":103,"x_max":638,"o":"m 103 0 l 103 1125 l 179 1125 l 179 493 l 506 1125 l 581 1125 l 343 649 l 638 0 l 563 0 l 297 583 l 179 368 l 179 0 l 103 0 m 288 -333 l 269 -304 q 316 -245 306 -281 q 326 -187 326 -210 l 278 -187 l 278 -83 l 368 -83 l 368 -169 q 351 -272 368 -233 q 288 -333 335 -310 z "},"L":{"ha":518,"x_min":104,"x_max":519,"o":"m 104 0 l 104 1125 l 179 1125 l 179 60 l 519 60 l 519 0 l 104 0 z "},"Ǉ":{"ha":886,"x_min":104,"x_max":782,"o":"m 104 0 l 104 1125 l 179 1125 l 179 60 l 519 60 l 519 0 l 104 0 m 529 -62 l 529 -3 q 627 6 592 -3 q 680 36 663 14 q 702 100 697 58 q 707 208 707 142 l 707 1125 l 782 1125 l 782 200 q 768 51 782 110 q 708 -35 754 -7 q 568 -62 663 -62 l 529 -62 z "},"Ĺ":{"ha":518,"x_min":104,"x_max":519,"o":"m 104 0 l 104 1125 l 179 1125 l 179 60 l 519 60 l 519 0 l 104 0 m 124 1192 l 213 1461 l 288 1461 l 163 1192 l 124 1192 z "},"Ľ":{"ha":518,"x_min":104,"x_max":519,"o":"m 104 0 l 104 1125 l 179 1125 l 179 60 l 519 60 l 519 0 l 104 0 m 440 831 l 421 863 q 468 913 457 889 q 479 979 479 938 l 429 979 l 429 1125 l 518 1125 l 518 994 q 501 894 518 931 q 440 831 485 858 z "},"Ļ":{"ha":518,"x_min":104,"x_max":519,"o":"m 104 0 l 104 1125 l 179 1125 l 179 60 l 519 60 l 519 0 l 104 0 m 281 -333 l 263 -304 q 309 -245 299 -281 q 319 -187 319 -210 l 271 -187 l 271 -83 l 361 -83 l 361 -169 q 344 -272 361 -233 q 281 -333 328 -310 z "},"Ŀ":{"ha":518,"x_min":104,"x_max":519,"o":"m 104 0 l 104 1125 l 179 1125 l 179 60 l 519 60 l 519 0 l 104 0 m 367 540 l 367 644 l 435 644 l 435 540 l 367 540 z "},"ǈ":{"ha":799,"x_min":104,"x_max":704,"o":"m 104 0 l 104 1125 l 179 1125 l 179 60 l 519 60 l 519 0 l 104 0 m 538 -215 q 516 -215 532 -215 q 496 -212 500 -214 l 496 -153 q 513 -154 499 -154 q 529 -154 526 -154 q 599 -136 578 -154 q 626 -91 621 -118 q 631 -35 631 -64 l 631 803 l 704 803 l 704 -39 q 660 -176 704 -136 q 538 -215 615 -215 m 631 908 l 631 1036 l 704 1036 l 704 908 l 631 908 z "},"Ł":{"ha":518,"x_min":4,"x_max":519,"o":"m 104 0 l 104 567 l 4 515 l 4 576 l 104 628 l 104 1125 l 179 1125 l 179 668 l 349 756 l 349 694 l 179 607 l 179 60 l 519 60 l 519 0 l 104 0 z "},"M":{"ha":878,"x_min":90,"x_max":788,"o":"m 90 0 l 124 1125 l 199 1125 l 436 110 l 678 1125 l 756 1125 l 788 0 l 722 0 l 694 943 l 465 0 l 410 0 l 183 942 l 156 0 l 90 0 z "},"Ṁ":{"ha":878,"x_min":90,"x_max":788,"o":"m 90 0 l 124 1125 l 199 1125 l 436 110 l 678 1125 l 756 1125 l 788 0 l 722 0 l 694 943 l 465 0 l 410 0 l 183 942 l 156 0 l 90 0 m 397 1261 l 397 1406 l 481 1406 l 481 1261 l 397 1261 z "},"N":{"ha":715,"x_min":104,"x_max":613,"o":"m 104 0 l 104 1125 l 164 1125 l 546 175 l 546 1125 l 613 1125 l 613 0 l 553 0 l 171 951 l 171 0 l 104 0 z "},"Ǌ":{"ha":1083,"x_min":104,"x_max":979,"o":"m 104 0 l 104 1125 l 164 1125 l 546 175 l 546 1125 l 613 1125 l 613 0 l 553 0 l 171 951 l 171 0 l 104 0 m 726 -62 l 726 -3 q 824 6 789 -3 q 877 36 860 14 q 899 100 894 58 q 904 208 904 142 l 904 1125 l 979 1125 l 979 200 q 965 51 979 110 q 906 -35 951 -7 q 765 -62 860 -62 l 726 -62 z "},"Ń":{"ha":715,"x_min":104,"x_max":613,"o":"m 104 0 l 104 1125 l 164 1125 l 546 175 l 546 1125 l 613 1125 l 613 0 l 553 0 l 171 951 l 171 0 l 104 0 m 340 1192 l 429 1461 l 504 1461 l 379 1192 l 340 1192 z "},"Ň":{"ha":715,"x_min":104,"x_max":613,"o":"m 104 0 l 104 1125 l 164 1125 l 546 175 l 546 1125 l 613 1125 l 613 0 l 553 0 l 171 951 l 171 0 l 104 0 m 331 1221 l 213 1447 l 275 1447 l 358 1278 l 442 1447 l 504 1447 l 386 1221 l 331 1221 z "},"Ņ":{"ha":715,"x_min":104,"x_max":613,"o":"m 104 0 l 104 1125 l 164 1125 l 546 175 l 546 1125 l 613 1125 l 613 0 l 553 0 l 171 951 l 171 0 l 104 0 m 326 -333 l 308 -304 q 355 -245 344 -281 q 365 -187 365 -210 l 317 -187 l 317 -83 l 407 -83 l 407 -169 q 390 -272 407 -233 q 326 -333 374 -310 z "},"Ŋ":{"ha":747,"x_min":104,"x_max":613,"o":"m 397 -196 l 397 -143 q 492 -131 460 -143 q 535 -92 524 -119 q 546 -19 546 -65 l 546 17 l 168 951 l 168 0 l 104 0 l 104 1125 l 164 1125 l 549 175 l 549 1125 l 613 1125 l 613 0 q 599 -108 613 -64 q 547 -174 585 -151 q 439 -196 510 -196 l 397 -196 z "},"ǋ":{"ha":996,"x_min":104,"x_max":901,"o":"m 104 0 l 104 1125 l 164 1125 l 546 175 l 546 1125 l 613 1125 l 613 0 l 553 0 l 171 951 l 171 0 l 104 0 m 735 -215 q 713 -215 729 -215 q 693 -212 697 -214 l 693 -153 q 710 -154 696 -154 q 726 -154 724 -154 q 797 -136 775 -154 q 823 -91 818 -118 q 828 -35 828 -64 l 828 803 l 901 803 l 901 -39 q 857 -176 901 -136 q 735 -215 813 -215 m 828 908 l 828 1036 l 901 1036 l 901 908 l 828 908 z "},"Ñ":{"ha":715,"x_min":104,"x_max":613,"o":"m 104 0 l 104 1125 l 164 1125 l 546 175 l 546 1125 l 613 1125 l 613 0 l 553 0 l 171 951 l 171 0 l 104 0 m 431 1276 q 376 1293 400 1276 q 331 1326 351 1310 q 288 1342 310 1342 q 256 1328 268 1342 q 244 1288 244 1314 l 194 1288 q 201 1325 194 1300 q 225 1372 207 1350 q 281 1393 243 1393 q 339 1377 314 1393 q 385 1344 364 1361 q 429 1328 407 1328 q 463 1342 451 1328 q 475 1390 474 1356 l 522 1390 q 517 1347 522 1375 q 492 1298 511 1319 q 431 1276 472 1276 z "},"O":{"ha":717,"x_min":81,"x_max":636,"o":"m 358 -15 q 188 28 249 -15 q 104 148 128 72 q 81 319 81 224 l 81 811 q 106 981 81 907 q 191 1096 131 1054 q 358 1138 251 1138 q 526 1096 465 1138 q 611 981 586 1054 q 636 811 636 907 l 636 318 q 613 147 636 222 q 528 28 589 72 q 358 -15 468 -15 m 358 47 q 483 79 439 47 q 543 169 526 111 q 560 303 560 226 l 560 822 q 543 956 560 899 q 483 1044 526 1013 q 358 1075 440 1075 q 234 1044 278 1075 q 174 956 190 1013 q 157 822 157 899 l 157 303 q 174 169 157 226 q 234 79 190 111 q 358 47 278 47 z "},"Ó":{"ha":717,"x_min":81,"x_max":636,"o":"m 358 -15 q 188 28 249 -15 q 104 148 128 72 q 81 319 81 224 l 81 811 q 106 981 81 907 q 191 1096 131 1054 q 358 1138 251 1138 q 526 1096 465 1138 q 611 981 586 1054 q 636 811 636 907 l 636 318 q 613 147 636 222 q 528 28 589 72 q 358 -15 468 -15 m 358 47 q 483 79 439 47 q 543 169 526 111 q 560 303 560 226 l 560 822 q 543 956 560 899 q 483 1044 526 1013 q 358 1075 440 1075 q 234 1044 278 1075 q 174 956 190 1013 q 157 822 157 899 l 157 303 q 174 169 157 226 q 234 79 190 111 q 358 47 278 47 m 340 1192 l 429 1461 l 504 1461 l 379 1192 l 340 1192 z "},"Ŏ":{"ha":717,"x_min":81,"x_max":636,"o":"m 358 -15 q 188 28 249 -15 q 104 148 128 72 q 81 319 81 224 l 81 811 q 106 981 81 907 q 191 1096 131 1054 q 358 1138 251 1138 q 526 1096 465 1138 q 611 981 586 1054 q 636 811 636 907 l 636 318 q 613 147 636 222 q 528 28 589 72 q 358 -15 468 -15 m 358 47 q 483 79 439 47 q 543 169 526 111 q 560 303 560 226 l 560 822 q 543 956 560 899 q 483 1044 526 1013 q 358 1075 440 1075 q 234 1044 278 1075 q 174 956 190 1013 q 157 822 157 899 l 157 303 q 174 169 157 226 q 234 79 190 111 q 358 47 278 47 m 357 1210 q 245 1247 288 1210 q 200 1364 203 1285 l 251 1364 q 283 1281 253 1304 q 357 1257 314 1257 q 431 1281 400 1257 q 465 1364 461 1304 l 517 1364 q 470 1247 514 1285 q 357 1210 426 1210 z "},"Ô":{"ha":717,"x_min":81,"x_max":636,"o":"m 358 -15 q 188 28 249 -15 q 104 148 128 72 q 81 319 81 224 l 81 811 q 106 981 81 907 q 191 1096 131 1054 q 358 1138 251 1138 q 526 1096 465 1138 q 611 981 586 1054 q 636 811 636 907 l 636 318 q 613 147 636 222 q 528 28 589 72 q 358 -15 468 -15 m 358 47 q 483 79 439 47 q 543 169 526 111 q 560 303 560 226 l 560 822 q 543 956 560 899 q 483 1044 526 1013 q 358 1075 440 1075 q 234 1044 278 1075 q 174 956 190 1013 q 157 822 157 899 l 157 303 q 174 169 157 226 q 234 79 190 111 q 358 47 278 47 m 193 1197 l 313 1447 l 404 1447 l 522 1197 l 469 1197 l 358 1410 l 247 1197 l 193 1197 z "},"Ố":{"ha":717,"x_min":81,"x_max":647,"o":"m 358 -15 q 188 28 249 -15 q 104 148 128 72 q 81 319 81 224 l 81 811 q 106 981 81 907 q 191 1096 131 1054 q 358 1138 251 1138 q 526 1096 465 1138 q 611 981 586 1054 q 636 811 636 907 l 636 318 q 613 147 636 222 q 528 28 589 72 q 358 -15 468 -15 m 358 47 q 483 79 439 47 q 543 169 526 111 q 560 303 560 226 l 560 822 q 543 956 560 899 q 483 1044 526 1013 q 358 1075 440 1075 q 234 1044 278 1075 q 174 956 190 1013 q 157 822 157 899 l 157 303 q 174 169 157 226 q 234 79 190 111 q 358 47 278 47 m 193 1197 l 313 1392 l 404 1392 l 522 1197 l 469 1197 l 358 1357 l 247 1197 l 193 1197 m 501 1321 l 575 1481 l 647 1481 l 554 1321 l 501 1321 z "},"Ộ":{"ha":717,"x_min":81,"x_max":636,"o":"m 358 -15 q 188 28 249 -15 q 104 148 128 72 q 81 319 81 224 l 81 811 q 106 981 81 907 q 191 1096 131 1054 q 358 1138 251 1138 q 526 1096 465 1138 q 611 981 586 1054 q 636 811 636 907 l 636 318 q 613 147 636 222 q 528 28 589 72 q 358 -15 468 -15 m 358 47 q 483 79 439 47 q 543 169 526 111 q 560 303 560 226 l 560 822 q 543 956 560 899 q 483 1044 526 1013 q 358 1075 440 1075 q 234 1044 278 1075 q 174 956 190 1013 q 157 822 157 899 l 157 303 q 174 169 157 226 q 234 79 190 111 q 358 47 278 47 m 193 1197 l 313 1392 l 404 1392 l 522 1197 l 469 1197 l 358 1357 l 247 1197 l 193 1197 m 317 -187 l 317 -83 l 400 -83 l 400 -187 l 317 -187 z "},"Ồ":{"ha":717,"x_min":81,"x_max":636,"o":"m 358 -15 q 188 28 249 -15 q 104 148 128 72 q 81 319 81 224 l 81 811 q 106 981 81 907 q 191 1096 131 1054 q 358 1138 251 1138 q 526 1096 465 1138 q 611 981 586 1054 q 636 811 636 907 l 636 318 q 613 147 636 222 q 528 28 589 72 q 358 -15 468 -15 m 358 47 q 483 79 439 47 q 543 169 526 111 q 560 303 560 226 l 560 822 q 543 956 560 899 q 483 1044 526 1013 q 358 1075 440 1075 q 234 1044 278 1075 q 174 956 190 1013 q 157 822 157 899 l 157 303 q 174 169 157 226 q 234 79 190 111 q 358 47 278 47 m 193 1197 l 313 1392 l 404 1392 l 522 1197 l 469 1197 l 358 1357 l 247 1197 l 193 1197 m 538 1321 l 444 1481 l 517 1481 l 590 1321 l 538 1321 z "},"Ổ":{"ha":717,"x_min":81,"x_max":636,"o":"m 358 -15 q 188 28 249 -15 q 104 148 128 72 q 81 319 81 224 l 81 811 q 106 981 81 907 q 191 1096 131 1054 q 358 1138 251 1138 q 526 1096 465 1138 q 611 981 586 1054 q 636 811 636 907 l 636 318 q 613 147 636 222 q 528 28 589 72 q 358 -15 468 -15 m 358 47 q 483 79 439 47 q 543 169 526 111 q 560 303 560 226 l 560 822 q 543 956 560 899 q 483 1044 526 1013 q 358 1075 440 1075 q 234 1044 278 1075 q 174 956 190 1013 q 157 822 157 899 l 157 303 q 174 169 157 226 q 234 79 190 111 q 358 47 278 47 m 521 1319 l 490 1351 q 538 1387 522 1369 q 554 1426 554 1404 q 539 1462 554 1450 q 494 1474 524 1474 q 464 1472 479 1474 q 432 1464 449 1469 l 432 1501 q 471 1511 451 1508 q 508 1514 490 1514 q 584 1492 557 1514 q 611 1431 611 1471 q 584 1364 611 1389 q 521 1319 557 1339 m 193 1197 l 313 1392 l 404 1392 l 522 1197 l 469 1197 l 358 1357 l 247 1197 l 193 1197 z "},"Ỗ":{"ha":717,"x_min":81,"x_max":636,"o":"m 358 -15 q 188 28 249 -15 q 104 148 128 72 q 81 319 81 224 l 81 811 q 106 981 81 907 q 191 1096 131 1054 q 358 1138 251 1138 q 526 1096 465 1138 q 611 981 586 1054 q 636 811 636 907 l 636 318 q 613 147 636 222 q 528 28 589 72 q 358 -15 468 -15 m 358 47 q 483 79 439 47 q 543 169 526 111 q 560 303 560 226 l 560 822 q 543 956 560 899 q 483 1044 526 1013 q 358 1075 440 1075 q 234 1044 278 1075 q 174 956 190 1013 q 157 822 157 899 l 157 303 q 174 169 157 226 q 234 79 190 111 q 358 47 278 47 m 193 1197 l 313 1392 l 404 1392 l 522 1197 l 469 1197 l 358 1357 l 247 1197 l 193 1197 m 431 1461 q 376 1478 400 1461 q 331 1510 351 1494 q 288 1526 310 1526 q 256 1513 268 1526 q 244 1472 244 1499 l 194 1472 q 201 1510 194 1485 q 225 1556 207 1535 q 281 1578 243 1578 q 339 1562 314 1578 q 385 1529 364 1546 q 429 1513 407 1513 q 463 1526 451 1513 q 475 1575 474 1540 l 522 1575 q 517 1532 522 1560 q 492 1483 511 1504 q 431 1461 472 1461 z "},"Ȍ":{"ha":717,"x_min":81,"x_max":636,"o":"m 358 -15 q 188 28 249 -15 q 104 148 128 72 q 81 319 81 224 l 81 811 q 106 981 81 907 q 191 1096 131 1054 q 358 1138 251 1138 q 526 1096 465 1138 q 611 981 586 1054 q 636 811 636 907 l 636 318 q 613 147 636 222 q 528 28 589 72 q 358 -15 468 -15 m 358 47 q 483 79 439 47 q 543 169 526 111 q 560 303 560 226 l 560 822 q 543 956 560 899 q 483 1044 526 1013 q 358 1075 440 1075 q 234 1044 278 1075 q 174 956 190 1013 q 157 822 157 899 l 157 303 q 174 169 157 226 q 234 79 190 111 q 358 47 278 47 m 263 1243 l 143 1447 l 225 1447 l 303 1243 l 263 1243 m 399 1243 l 306 1447 l 378 1447 l 436 1243 l 399 1243 z "},"Ö":{"ha":717,"x_min":81,"x_max":636,"o":"m 358 -15 q 188 28 249 -15 q 104 148 128 72 q 81 319 81 224 l 81 811 q 106 981 81 907 q 191 1096 131 1054 q 358 1138 251 1138 q 526 1096 465 1138 q 611 981 586 1054 q 636 811 636 907 l 636 318 q 613 147 636 222 q 528 28 589 72 q 358 -15 468 -15 m 358 47 q 483 79 439 47 q 543 169 526 111 q 560 303 560 226 l 560 822 q 543 956 560 899 q 483 1044 526 1013 q 358 1075 440 1075 q 234 1044 278 1075 q 174 956 190 1013 q 157 822 157 899 l 157 303 q 174 169 157 226 q 234 79 190 111 q 358 47 278 47 m 432 1342 l 432 1447 l 510 1447 l 510 1342 l 432 1342 m 210 1342 l 210 1447 l 286 1447 l 286 1342 l 210 1342 z "},"Ȫ":{"ha":717,"x_min":81,"x_max":636,"o":"m 358 -15 q 188 28 249 -15 q 104 148 128 72 q 81 319 81 224 l 81 811 q 106 981 81 907 q 191 1096 131 1054 q 358 1138 251 1138 q 526 1096 465 1138 q 611 981 586 1054 q 636 811 636 907 l 636 318 q 613 147 636 222 q 528 28 589 72 q 358 -15 468 -15 m 358 47 q 483 79 439 47 q 543 169 526 111 q 560 303 560 226 l 560 822 q 543 956 560 899 q 483 1044 526 1013 q 358 1075 440 1075 q 234 1044 278 1075 q 174 956 190 1013 q 157 822 157 899 l 157 303 q 174 169 157 226 q 234 79 190 111 q 358 47 278 47 m 432 1342 l 432 1447 l 510 1447 l 510 1342 l 432 1342 m 210 1342 l 210 1447 l 286 1447 l 286 1342 l 210 1342 m 239 1617 l 239 1672 l 478 1672 l 478 1617 l 239 1617 z "},"Ȱ":{"ha":717,"x_min":81,"x_max":636,"o":"m 358 -15 q 188 28 249 -15 q 104 148 128 72 q 81 319 81 224 l 81 811 q 106 981 81 907 q 191 1096 131 1054 q 358 1138 251 1138 q 526 1096 465 1138 q 611 981 586 1054 q 636 811 636 907 l 636 318 q 613 147 636 222 q 528 28 589 72 q 358 -15 468 -15 m 358 47 q 483 79 439 47 q 543 169 526 111 q 560 303 560 226 l 560 822 q 543 956 560 899 q 483 1044 526 1013 q 358 1075 440 1075 q 234 1044 278 1075 q 174 956 190 1013 q 157 822 157 899 l 157 303 q 174 169 157 226 q 234 79 190 111 q 358 47 278 47 m 317 1261 l 317 1406 l 400 1406 l 400 1261 l 317 1261 m 239 1575 l 239 1631 l 478 1631 l 478 1575 l 239 1575 z "},"Ọ":{"ha":717,"x_min":81,"x_max":636,"o":"m 358 -15 q 188 28 249 -15 q 104 148 128 72 q 81 319 81 224 l 81 811 q 106 981 81 907 q 191 1096 131 1054 q 358 1138 251 1138 q 526 1096 465 1138 q 611 981 586 1054 q 636 811 636 907 l 636 318 q 613 147 636 222 q 528 28 589 72 q 358 -15 468 -15 m 358 47 q 483 79 439 47 q 543 169 526 111 q 560 303 560 226 l 560 822 q 543 956 560 899 q 483 1044 526 1013 q 358 1075 440 1075 q 234 1044 278 1075 q 174 956 190 1013 q 157 822 157 899 l 157 303 q 174 169 157 226 q 234 79 190 111 q 358 47 278 47 m 317 -187 l 317 -83 l 400 -83 l 400 -187 l 317 -187 z "},"Ò":{"ha":717,"x_min":81,"x_max":636,"o":"m 358 -15 q 188 28 249 -15 q 104 148 128 72 q 81 319 81 224 l 81 811 q 106 981 81 907 q 191 1096 131 1054 q 358 1138 251 1138 q 526 1096 465 1138 q 611 981 586 1054 q 636 811 636 907 l 636 318 q 613 147 636 222 q 528 28 589 72 q 358 -15 468 -15 m 358 47 q 483 79 439 47 q 543 169 526 111 q 560 303 560 226 l 560 822 q 543 956 560 899 q 483 1044 526 1013 q 358 1075 440 1075 q 234 1044 278 1075 q 174 956 190 1013 q 157 822 157 899 l 157 303 q 174 169 157 226 q 234 79 190 111 q 358 47 278 47 m 338 1192 l 225 1461 l 300 1461 l 375 1192 l 338 1192 z "},"Ỏ":{"ha":717,"x_min":81,"x_max":636,"o":"m 358 -15 q 188 28 249 -15 q 104 148 128 72 q 81 319 81 224 l 81 811 q 106 981 81 907 q 191 1096 131 1054 q 358 1138 251 1138 q 526 1096 465 1138 q 611 981 586 1054 q 636 811 636 907 l 636 318 q 613 147 636 222 q 528 28 589 72 q 358 -15 468 -15 m 358 47 q 483 79 439 47 q 543 169 526 111 q 560 303 560 226 l 560 822 q 543 956 560 899 q 483 1044 526 1013 q 358 1075 440 1075 q 234 1044 278 1075 q 174 956 190 1013 q 157 822 157 899 l 157 303 q 174 169 157 226 q 234 79 190 111 q 358 47 278 47 m 357 1239 l 326 1271 q 376 1306 358 1289 q 393 1346 393 1324 q 378 1382 393 1371 q 329 1393 363 1393 q 300 1391 315 1393 q 268 1386 285 1389 l 268 1425 q 342 1433 306 1433 q 401 1424 378 1433 q 438 1397 425 1415 q 450 1350 450 1378 q 438 1302 450 1322 q 403 1267 425 1282 q 357 1239 382 1251 z "},"Ơ":{"ha":717,"x_min":81,"x_max":636,"o":"m 358 -15 q 188 28 249 -15 q 104 148 128 72 q 81 319 81 224 l 81 811 q 106 981 81 907 q 191 1096 131 1054 q 358 1138 251 1138 q 526 1096 465 1138 q 611 981 586 1054 q 636 811 636 907 l 636 318 q 613 147 636 222 q 528 28 589 72 q 358 -15 468 -15 m 358 47 q 483 79 439 47 q 543 169 526 111 q 560 303 560 226 l 560 822 q 543 956 560 899 q 483 1044 526 1013 q 358 1075 440 1075 q 234 1044 278 1075 q 174 956 190 1013 q 157 822 157 899 l 157 303 q 174 169 157 226 q 234 79 190 111 q 358 47 278 47 m 435 1078 l 435 1125 l 463 1125 q 521 1147 504 1125 q 538 1213 538 1169 l 594 1213 q 561 1111 594 1144 q 465 1078 528 1078 l 435 1078 z "},"Ớ":{"ha":717,"x_min":81,"x_max":636,"o":"m 358 -15 q 188 28 249 -15 q 104 148 128 72 q 81 319 81 224 l 81 811 q 106 981 81 907 q 191 1096 131 1054 q 358 1138 251 1138 q 526 1096 465 1138 q 611 981 586 1054 q 636 811 636 907 l 636 318 q 613 147 636 222 q 528 28 589 72 q 358 -15 468 -15 m 358 47 q 483 79 439 47 q 543 169 526 111 q 560 303 560 226 l 560 822 q 543 956 560 899 q 483 1044 526 1013 q 358 1075 440 1075 q 234 1044 278 1075 q 174 956 190 1013 q 157 822 157 899 l 157 303 q 174 169 157 226 q 234 79 190 111 q 358 47 278 47 m 435 1078 l 435 1125 l 463 1125 q 521 1147 504 1125 q 538 1213 538 1169 l 594 1213 q 561 1111 594 1144 q 465 1078 528 1078 l 435 1078 m 340 1192 l 429 1461 l 504 1461 l 379 1192 l 340 1192 z "},"Ợ":{"ha":717,"x_min":81,"x_max":636,"o":"m 358 -15 q 188 28 249 -15 q 104 148 128 72 q 81 319 81 224 l 81 811 q 106 981 81 907 q 191 1096 131 1054 q 358 1138 251 1138 q 526 1096 465 1138 q 611 981 586 1054 q 636 811 636 907 l 636 318 q 613 147 636 222 q 528 28 589 72 q 358 -15 468 -15 m 358 47 q 483 79 439 47 q 543 169 526 111 q 560 303 560 226 l 560 822 q 543 956 560 899 q 483 1044 526 1013 q 358 1075 440 1075 q 234 1044 278 1075 q 174 956 190 1013 q 157 822 157 899 l 157 303 q 174 169 157 226 q 234 79 190 111 q 358 47 278 47 m 435 1078 l 435 1125 l 463 1125 q 521 1147 504 1125 q 538 1213 538 1169 l 594 1213 q 561 1111 594 1144 q 465 1078 528 1078 l 435 1078 m 317 -187 l 317 -83 l 400 -83 l 400 -187 l 317 -187 z "},"Ờ":{"ha":717,"x_min":81,"x_max":636,"o":"m 358 -15 q 188 28 249 -15 q 104 148 128 72 q 81 319 81 224 l 81 811 q 106 981 81 907 q 191 1096 131 1054 q 358 1138 251 1138 q 526 1096 465 1138 q 611 981 586 1054 q 636 811 636 907 l 636 318 q 613 147 636 222 q 528 28 589 72 q 358 -15 468 -15 m 358 47 q 483 79 439 47 q 543 169 526 111 q 560 303 560 226 l 560 822 q 543 956 560 899 q 483 1044 526 1013 q 358 1075 440 1075 q 234 1044 278 1075 q 174 956 190 1013 q 157 822 157 899 l 157 303 q 174 169 157 226 q 234 79 190 111 q 358 47 278 47 m 435 1078 l 435 1125 l 463 1125 q 521 1147 504 1125 q 538 1213 538 1169 l 594 1213 q 561 1111 594 1144 q 465 1078 528 1078 l 435 1078 m 338 1192 l 225 1461 l 300 1461 l 375 1192 l 338 1192 z "},"Ở":{"ha":717,"x_min":81,"x_max":636,"o":"m 358 -15 q 188 28 249 -15 q 104 148 128 72 q 81 319 81 224 l 81 811 q 106 981 81 907 q 191 1096 131 1054 q 358 1138 251 1138 q 526 1096 465 1138 q 611 981 586 1054 q 636 811 636 907 l 636 318 q 613 147 636 222 q 528 28 589 72 q 358 -15 468 -15 m 358 47 q 483 79 439 47 q 543 169 526 111 q 560 303 560 226 l 560 822 q 543 956 560 899 q 483 1044 526 1013 q 358 1075 440 1075 q 234 1044 278 1075 q 174 956 190 1013 q 157 822 157 899 l 157 303 q 174 169 157 226 q 234 79 190 111 q 358 47 278 47 m 435 1078 l 435 1125 l 463 1125 q 521 1147 504 1125 q 538 1213 538 1169 l 594 1213 q 561 1111 594 1144 q 465 1078 528 1078 l 435 1078 m 357 1239 l 326 1271 q 376 1306 358 1289 q 393 1346 393 1324 q 378 1382 393 1371 q 329 1393 363 1393 q 300 1391 315 1393 q 268 1386 285 1389 l 268 1425 q 342 1433 306 1433 q 401 1424 378 1433 q 438 1397 425 1415 q 450 1350 450 1378 q 438 1302 450 1322 q 403 1267 425 1282 q 357 1239 382 1251 z "},"Ỡ":{"ha":717,"x_min":81,"x_max":636,"o":"m 358 -15 q 188 28 249 -15 q 104 148 128 72 q 81 319 81 224 l 81 811 q 106 981 81 907 q 191 1096 131 1054 q 358 1138 251 1138 q 526 1096 465 1138 q 611 981 586 1054 q 636 811 636 907 l 636 318 q 613 147 636 222 q 528 28 589 72 q 358 -15 468 -15 m 358 47 q 483 79 439 47 q 543 169 526 111 q 560 303 560 226 l 560 822 q 543 956 560 899 q 483 1044 526 1013 q 358 1075 440 1075 q 234 1044 278 1075 q 174 956 190 1013 q 157 822 157 899 l 157 303 q 174 169 157 226 q 234 79 190 111 q 358 47 278 47 m 435 1078 l 435 1125 l 463 1125 q 521 1147 504 1125 q 538 1213 538 1169 l 594 1213 q 561 1111 594 1144 q 465 1078 528 1078 l 435 1078 m 431 1276 q 376 1293 400 1276 q 331 1326 351 1310 q 288 1342 310 1342 q 256 1328 268 1342 q 244 1288 244 1314 l 194 1288 q 201 1325 194 1300 q 225 1372 207 1350 q 281 1393 243 1393 q 339 1377 314 1393 q 385 1344 364 1361 q 429 1328 407 1328 q 463 1342 451 1328 q 475 1390 474 1356 l 522 1390 q 517 1347 522 1375 q 492 1298 511 1319 q 431 1276 472 1276 z "},"Ő":{"ha":717,"x_min":81,"x_max":636,"o":"m 358 -15 q 188 28 249 -15 q 104 148 128 72 q 81 319 81 224 l 81 811 q 106 981 81 907 q 191 1096 131 1054 q 358 1138 251 1138 q 526 1096 465 1138 q 611 981 586 1054 q 636 811 636 907 l 636 318 q 613 147 636 222 q 528 28 589 72 q 358 -15 468 -15 m 358 47 q 483 79 439 47 q 543 169 526 111 q 560 303 560 226 l 560 822 q 543 956 560 899 q 483 1044 526 1013 q 358 1075 440 1075 q 234 1044 278 1075 q 174 956 190 1013 q 157 822 157 899 l 157 303 q 174 169 157 226 q 234 79 190 111 q 358 47 278 47 m 408 1249 l 483 1461 l 569 1461 l 451 1249 l 408 1249 m 286 1249 l 339 1461 l 413 1461 l 326 1249 l 286 1249 z "},"Ȏ":{"ha":717,"x_min":81,"x_max":636,"o":"m 358 -15 q 188 28 249 -15 q 104 148 128 72 q 81 319 81 224 l 81 811 q 106 981 81 907 q 191 1096 131 1054 q 358 1138 251 1138 q 526 1096 465 1138 q 611 981 586 1054 q 636 811 636 907 l 636 318 q 613 147 636 222 q 528 28 589 72 q 358 -15 468 -15 m 358 47 q 483 79 439 47 q 543 169 526 111 q 560 303 560 226 l 560 822 q 543 956 560 899 q 483 1044 526 1013 q 358 1075 440 1075 q 234 1044 278 1075 q 174 956 190 1013 q 157 822 157 899 l 157 303 q 174 169 157 226 q 234 79 190 111 q 358 47 278 47 m 200 1293 q 223 1380 203 1346 q 278 1431 243 1414 q 358 1447 313 1447 q 440 1431 406 1447 q 495 1380 475 1414 q 517 1293 515 1346 l 465 1293 q 433 1376 464 1353 q 358 1399 403 1399 q 285 1376 315 1399 q 251 1293 254 1353 l 200 1293 z "},"Ō":{"ha":717,"x_min":81,"x_max":636,"o":"m 358 -15 q 188 28 249 -15 q 104 148 128 72 q 81 319 81 224 l 81 811 q 106 981 81 907 q 191 1096 131 1054 q 358 1138 251 1138 q 526 1096 465 1138 q 611 981 586 1054 q 636 811 636 907 l 636 318 q 613 147 636 222 q 528 28 589 72 q 358 -15 468 -15 m 358 47 q 483 79 439 47 q 543 169 526 111 q 560 303 560 226 l 560 822 q 543 956 560 899 q 483 1044 526 1013 q 358 1075 440 1075 q 234 1044 278 1075 q 174 956 190 1013 q 157 822 157 899 l 157 303 q 174 169 157 226 q 234 79 190 111 q 358 47 278 47 m 239 1294 l 239 1350 l 478 1350 l 478 1294 l 239 1294 z "},"Ǫ":{"ha":717,"x_min":81,"x_max":636,"o":"m 358 -15 q 188 28 249 -15 q 104 148 128 72 q 81 319 81 224 l 81 811 q 106 981 81 907 q 191 1096 131 1054 q 358 1138 251 1138 q 526 1096 465 1138 q 611 981 586 1054 q 636 811 636 907 l 636 318 q 613 147 636 222 q 528 28 589 72 q 358 -15 468 -15 m 358 47 q 483 79 439 47 q 543 169 526 111 q 560 303 560 226 l 560 822 q 543 956 560 899 q 483 1044 526 1013 q 358 1075 440 1075 q 234 1044 278 1075 q 174 956 190 1013 q 157 822 157 899 l 157 303 q 174 169 157 226 q 234 79 190 111 q 358 47 278 47 m 428 -279 q 372 -272 397 -279 q 327 -250 346 -264 q 299 -215 308 -236 q 289 -168 289 -194 q 303 -105 289 -135 q 343 -48 318 -75 q 399 0 368 -21 l 440 0 q 393 -53 414 -26 q 360 -107 372 -81 q 347 -162 347 -133 q 376 -219 347 -201 q 447 -236 406 -236 q 460 -235 454 -236 q 472 -233 467 -235 l 464 -276 q 449 -278 458 -278 q 428 -279 439 -279 z "},"Ø":{"ha":726,"x_min":81,"x_max":636,"o":"m 179 -132 l 144 -121 l 539 1244 l 574 1235 l 179 -132 m 358 -15 q 188 28 249 -15 q 104 148 128 72 q 81 319 81 224 l 81 811 q 106 981 81 907 q 191 1096 131 1054 q 358 1138 251 1138 q 526 1096 465 1138 q 611 981 586 1054 q 636 811 636 907 l 636 318 q 613 147 636 222 q 528 28 589 72 q 358 -15 468 -15 m 358 47 q 483 79 439 47 q 543 169 526 111 q 560 303 560 226 l 560 822 q 543 956 560 899 q 483 1044 526 1013 q 358 1075 440 1075 q 234 1044 278 1075 q 174 956 190 1013 q 157 822 157 899 l 157 303 q 174 169 157 226 q 234 79 190 111 q 358 47 278 47 z "},"Ǿ":{"ha":726,"x_min":81,"x_max":636,"o":"m 179 -132 l 144 -121 l 539 1244 l 574 1235 l 179 -132 m 358 -15 q 188 28 249 -15 q 104 148 128 72 q 81 319 81 224 l 81 811 q 106 981 81 907 q 191 1096 131 1054 q 358 1138 251 1138 q 526 1096 465 1138 q 611 981 586 1054 q 636 811 636 907 l 636 318 q 613 147 636 222 q 528 28 589 72 q 358 -15 468 -15 m 358 47 q 483 79 439 47 q 543 169 526 111 q 560 303 560 226 l 560 822 q 543 956 560 899 q 483 1044 526 1013 q 358 1075 440 1075 q 234 1044 278 1075 q 174 956 190 1013 q 157 822 157 899 l 157 303 q 174 169 157 226 q 234 79 190 111 q 358 47 278 47 m 346 1192 l 435 1461 l 510 1461 l 385 1192 l 346 1192 z "},"Õ":{"ha":717,"x_min":81,"x_max":636,"o":"m 358 -15 q 188 28 249 -15 q 104 148 128 72 q 81 319 81 224 l 81 811 q 106 981 81 907 q 191 1096 131 1054 q 358 1138 251 1138 q 526 1096 465 1138 q 611 981 586 1054 q 636 811 636 907 l 636 318 q 613 147 636 222 q 528 28 589 72 q 358 -15 468 -15 m 358 47 q 483 79 439 47 q 543 169 526 111 q 560 303 560 226 l 560 822 q 543 956 560 899 q 483 1044 526 1013 q 358 1075 440 1075 q 234 1044 278 1075 q 174 956 190 1013 q 157 822 157 899 l 157 303 q 174 169 157 226 q 234 79 190 111 q 358 47 278 47 m 431 1276 q 376 1293 400 1276 q 331 1326 351 1310 q 288 1342 310 1342 q 256 1328 268 1342 q 244 1288 244 1314 l 194 1288 q 201 1325 194 1300 q 225 1372 207 1350 q 281 1393 243 1393 q 339 1377 314 1393 q 385 1344 364 1361 q 429 1328 407 1328 q 463 1342 451 1328 q 475 1390 474 1356 l 522 1390 q 517 1347 522 1375 q 492 1298 511 1319 q 431 1276 472 1276 z "},"Ȭ":{"ha":717,"x_min":81,"x_max":636,"o":"m 358 -15 q 188 28 249 -15 q 104 148 128 72 q 81 319 81 224 l 81 811 q 106 981 81 907 q 191 1096 131 1054 q 358 1138 251 1138 q 526 1096 465 1138 q 611 981 586 1054 q 636 811 636 907 l 636 318 q 613 147 636 222 q 528 28 589 72 q 358 -15 468 -15 m 358 47 q 483 79 439 47 q 543 169 526 111 q 560 303 560 226 l 560 822 q 543 956 560 899 q 483 1044 526 1013 q 358 1075 440 1075 q 234 1044 278 1075 q 174 956 190 1013 q 157 822 157 899 l 157 303 q 174 169 157 226 q 234 79 190 111 q 358 47 278 47 m 431 1276 q 376 1293 400 1276 q 331 1326 351 1310 q 288 1342 310 1342 q 256 1328 268 1342 q 244 1288 244 1314 l 194 1288 q 201 1325 194 1300 q 225 1372 207 1350 q 281 1393 243 1393 q 339 1377 314 1393 q 385 1344 364 1361 q 429 1328 407 1328 q 463 1342 451 1328 q 475 1390 474 1356 l 522 1390 q 517 1347 522 1375 q 492 1298 511 1319 q 431 1276 472 1276 m 239 1619 l 239 1675 l 478 1675 l 478 1619 l 239 1619 z "},"Œ":{"ha":861,"x_min":81,"x_max":819,"o":"m 371 0 q 195 42 258 0 q 106 156 132 83 q 81 318 81 228 l 81 801 q 107 970 81 897 q 197 1084 133 1043 q 367 1125 260 1125 l 818 1125 l 818 1063 l 546 1063 l 546 618 l 774 618 l 774 558 l 546 558 l 546 63 l 819 63 l 819 0 l 371 0 m 371 64 l 469 64 l 469 1063 l 371 1063 q 237 1030 283 1063 q 173 938 190 997 q 156 797 156 878 l 156 318 q 174 183 156 240 q 239 95 192 126 q 371 64 286 64 z "},"P":{"ha":674,"x_min":104,"x_max":629,"o":"m 104 0 l 104 1125 l 368 1125 q 526 1087 469 1125 q 606 983 583 1049 q 629 835 629 918 q 606 692 629 760 q 526 581 583 624 q 369 538 469 538 l 179 538 l 179 0 l 104 0 m 179 596 l 353 596 q 465 619 421 596 q 530 695 508 643 q 551 835 551 747 q 532 976 551 925 q 469 1047 513 1026 q 354 1067 426 1067 l 179 1067 l 179 596 z "},"Ṗ":{"ha":674,"x_min":104,"x_max":629,"o":"m 104 0 l 104 1125 l 368 1125 q 526 1087 469 1125 q 606 983 583 1049 q 629 835 629 918 q 606 692 629 760 q 526 581 583 624 q 369 538 469 538 l 179 538 l 179 0 l 104 0 m 179 596 l 353 596 q 465 619 421 596 q 530 695 508 643 q 551 835 551 747 q 532 976 551 925 q 469 1047 513 1026 q 354 1067 426 1067 l 179 1067 l 179 596 m 296 1261 l 296 1406 l 379 1406 l 379 1261 l 296 1261 z "},"Þ":{"ha":701,"x_min":104,"x_max":656,"o":"m 104 0 l 104 1125 l 179 1125 l 179 981 l 390 981 q 548 938 490 981 q 631 825 606 894 q 656 674 656 756 q 644 561 656 618 q 602 456 632 504 q 519 377 572 407 q 383 347 467 347 l 179 347 l 179 0 l 104 0 m 179 414 l 372 414 q 527 475 476 414 q 578 671 578 536 q 524 859 578 803 q 378 915 469 915 l 179 915 l 179 414 z "},"Q":{"ha":726,"x_min":81,"x_max":646,"o":"m 596 -217 q 538 -173 569 -203 q 472 -101 506 -143 q 404 -12 438 -60 q 384 -15 394 -14 q 363 -15 374 -15 q 192 28 253 -15 q 106 148 131 72 q 81 319 81 224 l 81 811 q 107 981 81 907 q 195 1096 133 1054 q 363 1138 257 1138 q 531 1096 469 1138 q 619 981 593 1054 q 646 811 646 907 l 646 318 q 629 173 646 239 q 573 62 613 107 q 463 -1 533 17 q 506 -55 481 -25 q 558 -110 532 -85 q 603 -149 585 -136 l 596 -217 m 363 47 q 488 79 443 47 q 551 169 533 111 q 569 303 569 226 l 569 822 q 551 956 569 899 q 489 1044 533 1013 q 363 1075 444 1075 q 238 1044 282 1075 q 175 956 193 1013 q 157 822 157 899 l 157 303 q 175 169 157 226 q 238 79 193 111 q 363 47 282 47 z "},"R":{"ha":706,"x_min":104,"x_max":639,"o":"m 104 0 l 104 1125 l 376 1125 q 530 1088 476 1125 q 603 988 583 1051 q 624 847 624 925 q 610 728 624 785 q 562 631 597 671 q 458 581 526 592 l 639 0 l 564 0 l 389 567 l 179 567 l 179 0 l 104 0 m 179 625 l 374 625 q 483 652 446 625 q 535 729 521 679 q 550 847 550 779 q 515 1010 550 954 q 372 1065 479 1065 l 179 1065 l 179 625 z "},"Ŕ":{"ha":706,"x_min":104,"x_max":639,"o":"m 104 0 l 104 1125 l 376 1125 q 530 1088 476 1125 q 603 988 583 1051 q 624 847 624 925 q 610 728 624 785 q 562 631 597 671 q 458 581 526 592 l 639 0 l 564 0 l 389 567 l 179 567 l 179 0 l 104 0 m 179 625 l 374 625 q 483 652 446 625 q 535 729 521 679 q 550 847 550 779 q 515 1010 550 954 q 372 1065 479 1065 l 179 1065 l 179 625 m 335 1192 l 424 1461 l 499 1461 l 374 1192 l 335 1192 z "},"Ř":{"ha":706,"x_min":104,"x_max":639,"o":"m 104 0 l 104 1125 l 376 1125 q 530 1088 476 1125 q 603 988 583 1051 q 624 847 624 925 q 610 728 624 785 q 562 631 597 671 q 458 581 526 592 l 639 0 l 564 0 l 389 567 l 179 567 l 179 0 l 104 0 m 179 625 l 374 625 q 483 652 446 625 q 535 729 521 679 q 550 847 550 779 q 515 1010 550 954 q 372 1065 479 1065 l 179 1065 l 179 625 m 325 1221 l 207 1447 l 269 1447 l 353 1278 l 436 1447 l 499 1447 l 381 1221 l 325 1221 z "},"Ŗ":{"ha":706,"x_min":104,"x_max":639,"o":"m 104 0 l 104 1125 l 376 1125 q 530 1088 476 1125 q 603 988 583 1051 q 624 847 624 925 q 610 728 624 785 q 562 631 597 671 q 458 581 526 592 l 639 0 l 564 0 l 389 567 l 179 567 l 179 0 l 104 0 m 179 625 l 374 625 q 483 652 446 625 q 535 729 521 679 q 550 847 550 779 q 515 1010 550 954 q 372 1065 479 1065 l 179 1065 l 179 625 m 321 -333 l 303 -304 q 349 -245 339 -281 q 360 -187 360 -210 l 311 -187 l 311 -83 l 401 -83 l 401 -169 q 385 -272 401 -233 q 321 -333 368 -310 z "},"Ȑ":{"ha":706,"x_min":104,"x_max":639,"o":"m 104 0 l 104 1125 l 376 1125 q 530 1088 476 1125 q 603 988 583 1051 q 624 847 624 925 q 610 728 624 785 q 562 631 597 671 q 458 581 526 592 l 639 0 l 564 0 l 389 567 l 179 567 l 179 0 l 104 0 m 179 625 l 374 625 q 483 652 446 625 q 535 729 521 679 q 550 847 550 779 q 515 1010 550 954 q 372 1065 479 1065 l 179 1065 l 179 625 m 257 1243 l 138 1447 l 219 1447 l 297 1243 l 257 1243 m 393 1243 l 300 1447 l 372 1447 l 431 1243 l 393 1243 z "},"Ȓ":{"ha":706,"x_min":104,"x_max":639,"o":"m 104 0 l 104 1125 l 376 1125 q 530 1088 476 1125 q 603 988 583 1051 q 624 847 624 925 q 610 728 624 785 q 562 631 597 671 q 458 581 526 592 l 639 0 l 564 0 l 389 567 l 179 567 l 179 0 l 104 0 m 179 625 l 374 625 q 483 652 446 625 q 535 729 521 679 q 550 847 550 779 q 515 1010 550 954 q 372 1065 479 1065 l 179 1065 l 179 625 m 194 1293 q 217 1380 197 1346 q 272 1431 238 1414 q 353 1447 307 1447 q 435 1431 400 1447 q 490 1380 469 1414 q 511 1293 510 1346 l 460 1293 q 428 1376 458 1353 q 353 1399 397 1399 q 279 1376 310 1399 q 246 1293 249 1353 l 194 1293 z "},"S":{"ha":628,"x_min":58,"x_max":581,"o":"m 329 -14 q 183 22 240 -14 q 95 124 125 58 q 58 278 65 189 l 124 299 q 153 168 133 225 q 215 80 174 111 q 331 49 257 49 q 462 90 414 49 q 510 229 510 132 q 472 362 510 303 q 364 489 433 421 l 158 693 q 83 799 107 746 q 60 907 60 851 q 128 1078 60 1018 q 307 1138 197 1138 q 410 1123 364 1138 q 490 1076 456 1108 q 543 989 524 1043 q 568 856 563 935 l 504 840 q 478 972 499 919 q 417 1051 457 1025 q 308 1076 376 1076 q 181 1038 232 1076 q 129 913 129 999 q 147 829 129 869 q 211 742 164 789 l 414 542 q 531 399 482 475 q 581 233 581 324 q 549 94 581 149 q 460 13 517 39 q 329 -14 403 -14 z "},"Ś":{"ha":628,"x_min":58,"x_max":581,"o":"m 329 -14 q 183 22 240 -14 q 95 124 125 58 q 58 278 65 189 l 124 299 q 153 168 133 225 q 215 80 174 111 q 331 49 257 49 q 462 90 414 49 q 510 229 510 132 q 472 362 510 303 q 364 489 433 421 l 158 693 q 83 799 107 746 q 60 907 60 851 q 128 1078 60 1018 q 307 1138 197 1138 q 410 1123 364 1138 q 490 1076 456 1108 q 543 989 524 1043 q 568 856 563 935 l 504 840 q 478 972 499 919 q 417 1051 457 1025 q 308 1076 376 1076 q 181 1038 232 1076 q 129 913 129 999 q 147 829 129 869 q 211 742 164 789 l 414 542 q 531 399 482 475 q 581 233 581 324 q 549 94 581 149 q 460 13 517 39 q 329 -14 403 -14 m 296 1192 l 385 1461 l 460 1461 l 335 1192 l 296 1192 z "},"Š":{"ha":628,"x_min":58,"x_max":581,"o":"m 329 -14 q 183 22 240 -14 q 95 124 125 58 q 58 278 65 189 l 124 299 q 153 168 133 225 q 215 80 174 111 q 331 49 257 49 q 462 90 414 49 q 510 229 510 132 q 472 362 510 303 q 364 489 433 421 l 158 693 q 83 799 107 746 q 60 907 60 851 q 128 1078 60 1018 q 307 1138 197 1138 q 410 1123 364 1138 q 490 1076 456 1108 q 543 989 524 1043 q 568 856 563 935 l 504 840 q 478 972 499 919 q 417 1051 457 1025 q 308 1076 376 1076 q 181 1038 232 1076 q 129 913 129 999 q 147 829 129 869 q 211 742 164 789 l 414 542 q 531 399 482 475 q 581 233 581 324 q 549 94 581 149 q 460 13 517 39 q 329 -14 403 -14 m 286 1221 l 168 1447 l 231 1447 l 314 1278 l 397 1447 l 460 1447 l 342 1221 l 286 1221 z "},"Ş":{"ha":628,"x_min":58,"x_max":581,"o":"m 329 -14 q 183 22 240 -14 q 95 124 125 58 q 58 278 65 189 l 124 299 q 153 168 133 225 q 215 80 174 111 q 331 49 257 49 q 462 90 414 49 q 510 229 510 132 q 472 362 510 303 q 364 489 433 421 l 158 693 q 83 799 107 746 q 60 907 60 851 q 128 1078 60 1018 q 307 1138 197 1138 q 410 1123 364 1138 q 490 1076 456 1108 q 543 989 524 1043 q 568 856 563 935 l 504 840 q 478 972 499 919 q 417 1051 457 1025 q 308 1076 376 1076 q 181 1038 232 1076 q 129 913 129 999 q 147 829 129 869 q 211 742 164 789 l 414 542 q 531 399 482 475 q 581 233 581 324 q 549 94 581 149 q 460 13 517 39 q 329 -14 403 -14 m 303 -258 q 283 -258 293 -258 q 263 -256 274 -257 l 263 -215 q 278 -217 271 -217 q 293 -218 286 -218 q 365 -204 342 -218 q 388 -160 388 -190 q 377 -126 388 -140 q 346 -103 367 -112 q 293 -92 325 -94 l 293 0 l 333 0 l 333 -65 q 419 -94 393 -68 q 444 -160 444 -119 q 428 -214 444 -192 q 381 -247 413 -236 q 303 -258 350 -258 z "},"Ŝ":{"ha":628,"x_min":58,"x_max":581,"o":"m 329 -14 q 183 22 240 -14 q 95 124 125 58 q 58 278 65 189 l 124 299 q 153 168 133 225 q 215 80 174 111 q 331 49 257 49 q 462 90 414 49 q 510 229 510 132 q 472 362 510 303 q 364 489 433 421 l 158 693 q 83 799 107 746 q 60 907 60 851 q 128 1078 60 1018 q 307 1138 197 1138 q 410 1123 364 1138 q 490 1076 456 1108 q 543 989 524 1043 q 568 856 563 935 l 504 840 q 478 972 499 919 q 417 1051 457 1025 q 308 1076 376 1076 q 181 1038 232 1076 q 129 913 129 999 q 147 829 129 869 q 211 742 164 789 l 414 542 q 531 399 482 475 q 581 233 581 324 q 549 94 581 149 q 460 13 517 39 q 329 -14 403 -14 m 149 1197 l 268 1447 l 360 1447 l 478 1197 l 425 1197 l 314 1410 l 203 1197 l 149 1197 z "},"Ș":{"ha":628,"x_min":58,"x_max":581,"o":"m 329 -14 q 183 22 240 -14 q 95 124 125 58 q 58 278 65 189 l 124 299 q 153 168 133 225 q 215 80 174 111 q 331 49 257 49 q 462 90 414 49 q 510 229 510 132 q 472 362 510 303 q 364 489 433 421 l 158 693 q 83 799 107 746 q 60 907 60 851 q 128 1078 60 1018 q 307 1138 197 1138 q 410 1123 364 1138 q 490 1076 456 1108 q 543 989 524 1043 q 568 856 563 935 l 504 840 q 478 972 499 919 q 417 1051 457 1025 q 308 1076 376 1076 q 181 1038 232 1076 q 129 913 129 999 q 147 829 129 869 q 211 742 164 789 l 414 542 q 531 399 482 475 q 581 233 581 324 q 549 94 581 149 q 460 13 517 39 q 329 -14 403 -14 m 282 -333 l 264 -304 q 310 -245 300 -281 q 321 -187 321 -210 l 272 -187 l 272 -83 l 363 -83 l 363 -169 q 346 -272 363 -233 q 282 -333 329 -310 z "},"Ṡ":{"ha":628,"x_min":58,"x_max":581,"o":"m 329 -14 q 183 22 240 -14 q 95 124 125 58 q 58 278 65 189 l 124 299 q 153 168 133 225 q 215 80 174 111 q 331 49 257 49 q 462 90 414 49 q 510 229 510 132 q 472 362 510 303 q 364 489 433 421 l 158 693 q 83 799 107 746 q 60 907 60 851 q 128 1078 60 1018 q 307 1138 197 1138 q 410 1123 364 1138 q 490 1076 456 1108 q 543 989 524 1043 q 568 856 563 935 l 504 840 q 478 972 499 919 q 417 1051 457 1025 q 308 1076 376 1076 q 181 1038 232 1076 q 129 913 129 999 q 147 829 129 869 q 211 742 164 789 l 414 542 q 531 399 482 475 q 581 233 581 324 q 549 94 581 149 q 460 13 517 39 q 329 -14 403 -14 m 272 1261 l 272 1406 l 356 1406 l 356 1261 l 272 1261 z "},"ẞ":{"ha":692,"x_min":86,"x_max":642,"o":"m 306 -12 l 306 50 l 353 50 q 513 111 460 50 q 565 315 565 172 q 513 528 565 464 q 353 593 460 593 l 319 593 l 319 656 l 556 1036 q 478 1065 521 1054 q 382 1075 435 1075 q 222 1018 281 1075 q 163 850 163 961 l 163 0 l 86 0 l 86 843 q 119 997 86 931 q 217 1101 153 1064 q 375 1138 282 1138 q 509 1122 450 1138 q 619 1081 568 1107 l 619 1018 l 367 610 l 358 651 q 572 566 501 651 q 642 319 642 481 q 574 72 642 156 q 381 -12 507 -12 l 306 -12 z "},"Ə":{"ha":711,"x_min":75,"x_max":631,"o":"m 353 -15 q 183 28 243 -15 q 99 148 122 72 q 75 319 75 224 l 75 585 l 554 585 l 554 822 q 538 956 554 899 q 478 1044 521 1013 q 353 1075 435 1075 q 228 1044 272 1075 q 168 956 185 1013 q 151 822 151 899 l 151 714 l 75 714 l 75 811 q 100 981 75 907 q 185 1096 125 1054 q 353 1138 246 1138 q 520 1096 460 1138 q 606 981 581 1054 q 631 811 631 907 l 631 318 q 607 147 631 222 q 523 28 583 72 q 353 -15 463 -15 m 353 47 q 477 79 433 47 q 538 169 521 111 q 554 303 554 226 l 554 522 l 151 522 l 151 303 q 168 169 151 226 q 228 79 185 111 q 353 47 272 47 z "},"T":{"ha":575,"x_min":28,"x_max":547,"o":"m 253 0 l 253 1064 l 28 1064 l 28 1125 l 547 1125 l 547 1064 l 328 1064 l 328 0 l 253 0 z "},"Ŧ":{"ha":528,"x_min":28,"x_max":547,"o":"m 58 579 l 58 631 l 465 631 l 465 579 l 58 579 m 253 0 l 253 1064 l 28 1064 l 28 1125 l 547 1125 l 547 1064 l 328 1064 l 328 0 l 253 0 z "},"Ť":{"ha":575,"x_min":28,"x_max":547,"o":"m 253 0 l 253 1064 l 28 1064 l 28 1125 l 547 1125 l 547 1064 l 328 1064 l 328 0 l 253 0 m 260 1221 l 142 1447 l 204 1447 l 288 1278 l 371 1447 l 433 1447 l 315 1221 l 260 1221 z "},"Ţ":{"ha":575,"x_min":28,"x_max":547,"o":"m 253 0 l 253 1064 l 28 1064 l 28 1125 l 547 1125 l 547 1064 l 328 1064 l 328 0 l 253 0 m 276 -258 q 257 -258 267 -258 q 236 -256 247 -257 l 236 -215 q 252 -217 244 -217 q 267 -218 260 -218 q 338 -204 315 -218 q 361 -160 361 -190 q 351 -126 361 -140 q 319 -103 340 -112 q 267 -92 299 -94 l 267 0 l 307 0 l 307 -65 q 392 -94 367 -68 q 418 -160 418 -119 q 402 -214 418 -192 q 355 -247 386 -236 q 276 -258 324 -258 z "},"Ț":{"ha":575,"x_min":28,"x_max":547,"o":"m 253 0 l 253 1064 l 28 1064 l 28 1125 l 547 1125 l 547 1064 l 328 1064 l 328 0 l 253 0 m 256 -333 l 238 -304 q 284 -245 274 -281 q 294 -187 294 -210 l 246 -187 l 246 -83 l 336 -83 l 336 -169 q 319 -272 336 -233 q 256 -333 303 -310 z "},"Ṫ":{"ha":575,"x_min":28,"x_max":547,"o":"m 253 0 l 253 1064 l 28 1064 l 28 1125 l 547 1125 l 547 1064 l 328 1064 l 328 0 l 253 0 m 246 1261 l 246 1406 l 329 1406 l 329 1261 l 246 1261 z "},"U":{"ha":740,"x_min":90,"x_max":650,"o":"m 371 -15 q 200 22 261 -15 q 115 122 139 58 q 90 264 90 185 l 90 1125 l 165 1125 l 165 263 q 183 152 165 201 q 245 75 200 103 q 371 47 290 47 q 492 76 447 47 q 557 153 538 104 q 576 263 576 201 l 576 1125 l 650 1125 l 650 264 q 624 122 650 185 q 537 22 597 58 q 371 -15 476 -15 z "},"Ú":{"ha":740,"x_min":90,"x_max":650,"o":"m 371 -15 q 200 22 261 -15 q 115 122 139 58 q 90 264 90 185 l 90 1125 l 165 1125 l 165 263 q 183 152 165 201 q 245 75 200 103 q 371 47 290 47 q 492 76 447 47 q 557 153 538 104 q 576 263 576 201 l 576 1125 l 650 1125 l 650 264 q 624 122 650 185 q 537 22 597 58 q 371 -15 476 -15 m 353 1192 l 442 1461 l 517 1461 l 392 1192 l 353 1192 z "},"Ŭ":{"ha":740,"x_min":90,"x_max":650,"o":"m 371 -15 q 200 22 261 -15 q 115 122 139 58 q 90 264 90 185 l 90 1125 l 165 1125 l 165 263 q 183 152 165 201 q 245 75 200 103 q 371 47 290 47 q 492 76 447 47 q 557 153 538 104 q 576 263 576 201 l 576 1125 l 650 1125 l 650 264 q 624 122 650 185 q 537 22 597 58 q 371 -15 476 -15 m 369 1210 q 258 1247 300 1210 q 213 1364 215 1285 l 264 1364 q 296 1281 265 1304 q 369 1257 326 1257 q 443 1281 413 1257 q 478 1364 474 1304 l 529 1364 q 483 1247 526 1285 q 369 1210 439 1210 z "},"Ǔ":{"ha":740,"x_min":90,"x_max":650,"o":"m 371 -15 q 200 22 261 -15 q 115 122 139 58 q 90 264 90 185 l 90 1125 l 165 1125 l 165 263 q 183 152 165 201 q 245 75 200 103 q 371 47 290 47 q 492 76 447 47 q 557 153 538 104 q 576 263 576 201 l 576 1125 l 650 1125 l 650 264 q 624 122 650 185 q 537 22 597 58 q 371 -15 476 -15 m 343 1221 l 225 1447 l 288 1447 l 371 1278 l 454 1447 l 517 1447 l 399 1221 l 343 1221 z "},"Û":{"ha":740,"x_min":90,"x_max":650,"o":"m 371 -15 q 200 22 261 -15 q 115 122 139 58 q 90 264 90 185 l 90 1125 l 165 1125 l 165 263 q 183 152 165 201 q 245 75 200 103 q 371 47 290 47 q 492 76 447 47 q 557 153 538 104 q 576 263 576 201 l 576 1125 l 650 1125 l 650 264 q 624 122 650 185 q 537 22 597 58 q 371 -15 476 -15 m 206 1197 l 325 1447 l 417 1447 l 535 1197 l 482 1197 l 371 1410 l 260 1197 l 206 1197 z "},"Ȕ":{"ha":740,"x_min":90,"x_max":650,"o":"m 371 -15 q 200 22 261 -15 q 115 122 139 58 q 90 264 90 185 l 90 1125 l 165 1125 l 165 263 q 183 152 165 201 q 245 75 200 103 q 371 47 290 47 q 492 76 447 47 q 557 153 538 104 q 576 263 576 201 l 576 1125 l 650 1125 l 650 264 q 624 122 650 185 q 537 22 597 58 q 371 -15 476 -15 m 275 1243 l 156 1447 l 238 1447 l 315 1243 l 275 1243 m 411 1243 l 318 1447 l 390 1447 l 449 1243 l 411 1243 z "},"Ü":{"ha":740,"x_min":90,"x_max":650,"o":"m 371 -15 q 200 22 261 -15 q 115 122 139 58 q 90 264 90 185 l 90 1125 l 165 1125 l 165 263 q 183 152 165 201 q 245 75 200 103 q 371 47 290 47 q 492 76 447 47 q 557 153 538 104 q 576 263 576 201 l 576 1125 l 650 1125 l 650 264 q 624 122 650 185 q 537 22 597 58 q 371 -15 476 -15 m 444 1342 l 444 1447 l 522 1447 l 522 1342 l 444 1342 m 222 1342 l 222 1447 l 299 1447 l 299 1342 l 222 1342 z "},"Ụ":{"ha":740,"x_min":90,"x_max":650,"o":"m 371 -15 q 200 22 261 -15 q 115 122 139 58 q 90 264 90 185 l 90 1125 l 165 1125 l 165 263 q 183 152 165 201 q 245 75 200 103 q 371 47 290 47 q 492 76 447 47 q 557 153 538 104 q 576 263 576 201 l 576 1125 l 650 1125 l 650 264 q 624 122 650 185 q 537 22 597 58 q 371 -15 476 -15 m 329 -187 l 329 -83 l 413 -83 l 413 -187 l 329 -187 z "},"Ù":{"ha":740,"x_min":90,"x_max":650,"o":"m 371 -15 q 200 22 261 -15 q 115 122 139 58 q 90 264 90 185 l 90 1125 l 165 1125 l 165 263 q 183 152 165 201 q 245 75 200 103 q 371 47 290 47 q 492 76 447 47 q 557 153 538 104 q 576 263 576 201 l 576 1125 l 650 1125 l 650 264 q 624 122 650 185 q 537 22 597 58 q 371 -15 476 -15 m 350 1192 l 238 1461 l 313 1461 l 388 1192 l 350 1192 z "},"Ủ":{"ha":740,"x_min":90,"x_max":650,"o":"m 371 -15 q 200 22 261 -15 q 115 122 139 58 q 90 264 90 185 l 90 1125 l 165 1125 l 165 263 q 183 152 165 201 q 245 75 200 103 q 371 47 290 47 q 492 76 447 47 q 557 153 538 104 q 576 263 576 201 l 576 1125 l 650 1125 l 650 264 q 624 122 650 185 q 537 22 597 58 q 371 -15 476 -15 m 369 1239 l 339 1271 q 388 1306 371 1289 q 406 1346 406 1324 q 390 1382 406 1371 q 342 1393 375 1393 q 313 1391 328 1393 q 281 1386 297 1389 l 281 1425 q 354 1433 318 1433 q 414 1424 390 1433 q 450 1397 438 1415 q 463 1350 463 1378 q 450 1302 463 1322 q 416 1267 438 1282 q 369 1239 394 1251 z "},"Ư":{"ha":740,"x_min":90,"x_max":739,"o":"m 371 -15 q 200 22 261 -15 q 115 122 139 58 q 90 264 90 185 l 90 1125 l 165 1125 l 165 263 q 183 152 165 201 q 245 75 200 103 q 371 47 290 47 q 492 76 447 47 q 557 153 538 104 q 576 263 576 201 l 576 1125 l 650 1125 l 650 264 q 624 122 650 185 q 537 22 597 58 q 371 -15 476 -15 m 593 1078 l 593 1125 l 607 1125 q 665 1147 649 1125 q 682 1213 682 1169 l 739 1213 q 706 1111 739 1144 q 610 1078 672 1078 l 593 1078 z "},"Ứ":{"ha":740,"x_min":90,"x_max":739,"o":"m 371 -15 q 200 22 261 -15 q 115 122 139 58 q 90 264 90 185 l 90 1125 l 165 1125 l 165 263 q 183 152 165 201 q 245 75 200 103 q 371 47 290 47 q 492 76 447 47 q 557 153 538 104 q 576 263 576 201 l 576 1125 l 650 1125 l 650 264 q 624 122 650 185 q 537 22 597 58 q 371 -15 476 -15 m 593 1078 l 593 1125 l 607 1125 q 665 1147 649 1125 q 682 1213 682 1169 l 739 1213 q 706 1111 739 1144 q 610 1078 672 1078 l 593 1078 m 353 1192 l 442 1461 l 517 1461 l 392 1192 l 353 1192 z "},"Ự":{"ha":740,"x_min":90,"x_max":739,"o":"m 371 -15 q 200 22 261 -15 q 115 122 139 58 q 90 264 90 185 l 90 1125 l 165 1125 l 165 263 q 183 152 165 201 q 245 75 200 103 q 371 47 290 47 q 492 76 447 47 q 557 153 538 104 q 576 263 576 201 l 576 1125 l 650 1125 l 650 264 q 624 122 650 185 q 537 22 597 58 q 371 -15 476 -15 m 593 1078 l 593 1125 l 607 1125 q 665 1147 649 1125 q 682 1213 682 1169 l 739 1213 q 706 1111 739 1144 q 610 1078 672 1078 l 593 1078 m 329 -187 l 329 -83 l 413 -83 l 413 -187 l 329 -187 z "},"Ừ":{"ha":740,"x_min":90,"x_max":739,"o":"m 371 -15 q 200 22 261 -15 q 115 122 139 58 q 90 264 90 185 l 90 1125 l 165 1125 l 165 263 q 183 152 165 201 q 245 75 200 103 q 371 47 290 47 q 492 76 447 47 q 557 153 538 104 q 576 263 576 201 l 576 1125 l 650 1125 l 650 264 q 624 122 650 185 q 537 22 597 58 q 371 -15 476 -15 m 593 1078 l 593 1125 l 607 1125 q 665 1147 649 1125 q 682 1213 682 1169 l 739 1213 q 706 1111 739 1144 q 610 1078 672 1078 l 593 1078 m 350 1192 l 238 1461 l 313 1461 l 388 1192 l 350 1192 z "},"Ử":{"ha":740,"x_min":90,"x_max":739,"o":"m 371 -15 q 200 22 261 -15 q 115 122 139 58 q 90 264 90 185 l 90 1125 l 165 1125 l 165 263 q 183 152 165 201 q 245 75 200 103 q 371 47 290 47 q 492 76 447 47 q 557 153 538 104 q 576 263 576 201 l 576 1125 l 650 1125 l 650 264 q 624 122 650 185 q 537 22 597 58 q 371 -15 476 -15 m 593 1078 l 593 1125 l 607 1125 q 665 1147 649 1125 q 682 1213 682 1169 l 739 1213 q 706 1111 739 1144 q 610 1078 672 1078 l 593 1078 m 369 1239 l 339 1271 q 388 1306 371 1289 q 406 1346 406 1324 q 390 1382 406 1371 q 342 1393 375 1393 q 313 1391 328 1393 q 281 1386 297 1389 l 281 1425 q 354 1433 318 1433 q 414 1424 390 1433 q 450 1397 438 1415 q 463 1350 463 1378 q 450 1302 463 1322 q 416 1267 438 1282 q 369 1239 394 1251 z "},"Ữ":{"ha":740,"x_min":90,"x_max":739,"o":"m 371 -15 q 200 22 261 -15 q 115 122 139 58 q 90 264 90 185 l 90 1125 l 165 1125 l 165 263 q 183 152 165 201 q 245 75 200 103 q 371 47 290 47 q 492 76 447 47 q 557 153 538 104 q 576 263 576 201 l 576 1125 l 650 1125 l 650 264 q 624 122 650 185 q 537 22 597 58 q 371 -15 476 -15 m 593 1078 l 593 1125 l 607 1125 q 665 1147 649 1125 q 682 1213 682 1169 l 739 1213 q 706 1111 739 1144 q 610 1078 672 1078 l 593 1078 m 443 1276 q 388 1293 413 1276 q 343 1326 364 1310 q 300 1342 322 1342 q 269 1328 281 1342 q 257 1288 257 1314 l 207 1288 q 213 1325 207 1300 q 238 1372 219 1350 q 293 1393 256 1393 q 351 1377 326 1393 q 398 1344 376 1361 q 442 1328 419 1328 q 475 1342 464 1328 q 488 1390 486 1356 l 535 1390 q 529 1347 535 1375 q 504 1298 524 1319 q 443 1276 485 1276 z "},"Ű":{"ha":740,"x_min":90,"x_max":650,"o":"m 371 -15 q 200 22 261 -15 q 115 122 139 58 q 90 264 90 185 l 90 1125 l 165 1125 l 165 263 q 183 152 165 201 q 245 75 200 103 q 371 47 290 47 q 492 76 447 47 q 557 153 538 104 q 576 263 576 201 l 576 1125 l 650 1125 l 650 264 q 624 122 650 185 q 537 22 597 58 q 371 -15 476 -15 m 421 1249 l 496 1461 l 582 1461 l 464 1249 l 421 1249 m 299 1249 l 351 1461 l 425 1461 l 339 1249 l 299 1249 z "},"Ȗ":{"ha":740,"x_min":90,"x_max":650,"o":"m 371 -15 q 200 22 261 -15 q 115 122 139 58 q 90 264 90 185 l 90 1125 l 165 1125 l 165 263 q 183 152 165 201 q 245 75 200 103 q 371 47 290 47 q 492 76 447 47 q 557 153 538 104 q 576 263 576 201 l 576 1125 l 650 1125 l 650 264 q 624 122 650 185 q 537 22 597 58 q 371 -15 476 -15 m 213 1293 q 235 1380 215 1346 q 290 1431 256 1414 q 371 1447 325 1447 q 453 1431 418 1447 q 508 1380 488 1414 q 529 1293 528 1346 l 478 1293 q 446 1376 476 1353 q 371 1399 415 1399 q 297 1376 328 1399 q 264 1293 267 1353 l 213 1293 z "},"Ū":{"ha":740,"x_min":90,"x_max":650,"o":"m 371 -15 q 200 22 261 -15 q 115 122 139 58 q 90 264 90 185 l 90 1125 l 165 1125 l 165 263 q 183 152 165 201 q 245 75 200 103 q 371 47 290 47 q 492 76 447 47 q 557 153 538 104 q 576 263 576 201 l 576 1125 l 650 1125 l 650 264 q 624 122 650 185 q 537 22 597 58 q 371 -15 476 -15 m 251 1294 l 251 1350 l 490 1350 l 490 1294 l 251 1294 z "},"Ų":{"ha":740,"x_min":90,"x_max":650,"o":"m 371 -15 q 200 22 261 -15 q 115 122 139 58 q 90 264 90 185 l 90 1125 l 165 1125 l 165 263 q 183 152 165 201 q 245 75 200 103 q 371 47 290 47 q 492 76 447 47 q 557 153 538 104 q 576 263 576 201 l 576 1125 l 650 1125 l 650 264 q 624 122 650 185 q 537 22 597 58 q 371 -15 476 -15 m 449 -279 q 392 -272 418 -279 q 348 -250 367 -264 q 319 -215 329 -236 q 310 -168 310 -194 q 324 -105 310 -135 q 364 -48 339 -75 q 419 0 389 -21 l 461 0 q 414 -53 435 -26 q 381 -107 393 -81 q 368 -162 368 -133 q 397 -219 368 -201 q 468 -236 426 -236 q 481 -235 475 -236 q 493 -233 488 -235 l 485 -276 q 469 -278 479 -278 q 449 -279 460 -279 z "},"Ů":{"ha":740,"x_min":90,"x_max":650,"o":"m 371 -15 q 200 22 261 -15 q 115 122 139 58 q 90 264 90 185 l 90 1125 l 165 1125 l 165 263 q 183 152 165 201 q 245 75 200 103 q 371 47 290 47 q 492 76 447 47 q 557 153 538 104 q 576 263 576 201 l 576 1125 l 650 1125 l 650 264 q 624 122 650 185 q 537 22 597 58 q 371 -15 476 -15 m 371 1224 q 290 1251 328 1224 q 251 1342 251 1279 q 290 1432 251 1404 q 371 1460 328 1460 q 453 1432 415 1460 q 490 1342 490 1404 q 453 1251 490 1279 q 371 1224 415 1224 m 371 1267 q 422 1284 399 1267 q 444 1342 444 1301 q 422 1401 444 1383 q 371 1418 399 1418 q 320 1401 343 1418 q 297 1342 297 1383 q 320 1284 297 1301 q 371 1267 343 1267 z "},"Ũ":{"ha":740,"x_min":90,"x_max":650,"o":"m 371 -15 q 200 22 261 -15 q 115 122 139 58 q 90 264 90 185 l 90 1125 l 165 1125 l 165 263 q 183 152 165 201 q 245 75 200 103 q 371 47 290 47 q 492 76 447 47 q 557 153 538 104 q 576 263 576 201 l 576 1125 l 650 1125 l 650 264 q 624 122 650 185 q 537 22 597 58 q 371 -15 476 -15 m 443 1276 q 388 1293 413 1276 q 343 1326 364 1310 q 300 1342 322 1342 q 269 1328 281 1342 q 257 1288 257 1314 l 207 1288 q 213 1325 207 1300 q 238 1372 219 1350 q 293 1393 256 1393 q 351 1377 326 1393 q 398 1344 376 1361 q 442 1328 419 1328 q 475 1342 464 1328 q 488 1390 486 1356 l 535 1390 q 529 1347 535 1375 q 504 1298 524 1319 q 443 1276 485 1276 z "},"V":{"ha":667,"x_min":33,"x_max":633,"o":"m 306 0 l 33 1125 l 108 1125 l 342 132 l 560 1125 l 633 1125 l 376 0 l 306 0 z "},"W":{"ha":981,"x_min":47,"x_max":933,"o":"m 243 0 l 47 1125 l 114 1125 l 279 149 l 460 1100 l 532 1100 l 718 149 l 868 1125 l 933 1125 l 751 0 l 688 0 l 496 985 l 308 0 l 243 0 z "},"Ẃ":{"ha":981,"x_min":47,"x_max":933,"o":"m 243 0 l 47 1125 l 114 1125 l 279 149 l 460 1100 l 532 1100 l 718 149 l 868 1125 l 933 1125 l 751 0 l 688 0 l 496 985 l 308 0 l 243 0 m 472 1192 l 561 1461 l 636 1461 l 511 1192 l 472 1192 z "},"Ŵ":{"ha":981,"x_min":47,"x_max":933,"o":"m 243 0 l 47 1125 l 114 1125 l 279 149 l 460 1100 l 532 1100 l 718 149 l 868 1125 l 933 1125 l 751 0 l 688 0 l 496 985 l 308 0 l 243 0 m 325 1197 l 444 1447 l 536 1447 l 654 1197 l 601 1197 l 490 1410 l 379 1197 l 325 1197 z "},"Ẅ":{"ha":981,"x_min":47,"x_max":933,"o":"m 243 0 l 47 1125 l 114 1125 l 279 149 l 460 1100 l 532 1100 l 718 149 l 868 1125 l 933 1125 l 751 0 l 688 0 l 496 985 l 308 0 l 243 0 m 564 1342 l 564 1447 l 642 1447 l 642 1342 l 564 1342 m 342 1342 l 342 1447 l 418 1447 l 418 1342 l 342 1342 z "},"Ẁ":{"ha":981,"x_min":47,"x_max":933,"o":"m 243 0 l 47 1125 l 114 1125 l 279 149 l 460 1100 l 532 1100 l 718 149 l 868 1125 l 933 1125 l 751 0 l 688 0 l 496 985 l 308 0 l 243 0 m 469 1192 l 357 1461 l 432 1461 l 507 1192 l 469 1192 z "},"X":{"ha":628,"x_min":21,"x_max":608,"o":"m 21 0 l 268 583 l 22 1125 l 92 1125 l 313 644 l 528 1125 l 603 1125 l 346 572 l 608 0 l 535 0 l 303 506 l 96 0 l 21 0 z "},"Y":{"ha":642,"x_min":28,"x_max":614,"o":"m 288 0 l 288 360 l 28 1125 l 106 1125 l 326 450 l 536 1125 l 614 1125 l 363 360 l 363 0 l 288 0 z "},"Ý":{"ha":642,"x_min":28,"x_max":614,"o":"m 288 0 l 288 360 l 28 1125 l 106 1125 l 326 450 l 536 1125 l 614 1125 l 363 360 l 363 0 l 288 0 m 303 1192 l 392 1461 l 467 1461 l 342 1192 l 303 1192 z "},"Ŷ":{"ha":642,"x_min":28,"x_max":614,"o":"m 288 0 l 288 360 l 28 1125 l 106 1125 l 326 450 l 536 1125 l 614 1125 l 363 360 l 363 0 l 288 0 m 156 1197 l 275 1447 l 367 1447 l 485 1197 l 432 1197 l 321 1410 l 210 1197 l 156 1197 z "},"Ÿ":{"ha":642,"x_min":28,"x_max":614,"o":"m 288 0 l 288 360 l 28 1125 l 106 1125 l 326 450 l 536 1125 l 614 1125 l 363 360 l 363 0 l 288 0 m 394 1342 l 394 1447 l 472 1447 l 472 1342 l 394 1342 m 172 1342 l 172 1447 l 249 1447 l 249 1342 l 172 1342 z "},"Ỵ":{"ha":642,"x_min":28,"x_max":614,"o":"m 288 0 l 288 360 l 28 1125 l 106 1125 l 326 450 l 536 1125 l 614 1125 l 363 360 l 363 0 l 288 0 m 279 -187 l 279 -83 l 363 -83 l 363 -187 l 279 -187 z "},"Ỳ":{"ha":642,"x_min":28,"x_max":614,"o":"m 288 0 l 288 360 l 28 1125 l 106 1125 l 326 450 l 536 1125 l 614 1125 l 363 360 l 363 0 l 288 0 m 300 1192 l 188 1461 l 263 1461 l 338 1192 l 300 1192 z "},"Ỷ":{"ha":642,"x_min":28,"x_max":614,"o":"m 288 0 l 288 360 l 28 1125 l 106 1125 l 326 450 l 536 1125 l 614 1125 l 363 360 l 363 0 l 288 0 m 319 1239 l 289 1271 q 338 1306 321 1289 q 356 1346 356 1324 q 340 1382 356 1371 q 292 1393 325 1393 q 263 1391 278 1393 q 231 1386 247 1389 l 231 1425 q 304 1433 268 1433 q 364 1424 340 1433 q 400 1397 388 1415 q 413 1350 413 1378 q 400 1302 413 1322 q 366 1267 388 1282 q 319 1239 344 1251 z "},"Ȳ":{"ha":642,"x_min":28,"x_max":614,"o":"m 288 0 l 288 360 l 28 1125 l 106 1125 l 326 450 l 536 1125 l 614 1125 l 363 360 l 363 0 l 288 0 m 201 1294 l 201 1350 l 440 1350 l 440 1294 l 201 1294 z "},"Ỹ":{"ha":642,"x_min":28,"x_max":614,"o":"m 288 0 l 288 360 l 28 1125 l 106 1125 l 326 450 l 536 1125 l 614 1125 l 363 360 l 363 0 l 288 0 m 393 1276 q 338 1293 363 1276 q 293 1326 314 1310 q 250 1342 272 1342 q 219 1328 231 1342 q 207 1288 207 1314 l 157 1288 q 163 1325 157 1300 q 188 1372 169 1350 q 243 1393 206 1393 q 301 1377 276 1393 q 348 1344 326 1361 q 392 1328 369 1328 q 425 1342 414 1328 q 438 1390 436 1356 l 485 1390 q 479 1347 485 1375 q 454 1298 474 1319 q 393 1276 435 1276 z "},"Z":{"ha":557,"x_min":43,"x_max":531,"o":"m 43 0 l 43 60 l 447 1065 l 79 1065 l 79 1125 l 529 1125 l 529 1078 l 121 60 l 531 60 l 531 0 l 43 0 z "},"Ź":{"ha":557,"x_min":43,"x_max":531,"o":"m 43 0 l 43 60 l 447 1065 l 79 1065 l 79 1125 l 529 1125 l 529 1078 l 121 60 l 531 60 l 531 0 l 43 0 m 261 1192 l 350 1461 l 425 1461 l 300 1192 l 261 1192 z "},"Ž":{"ha":557,"x_min":43,"x_max":531,"o":"m 43 0 l 43 60 l 447 1065 l 79 1065 l 79 1125 l 529 1125 l 529 1078 l 121 60 l 531 60 l 531 0 l 43 0 m 251 1221 l 133 1447 l 196 1447 l 279 1278 l 363 1447 l 425 1447 l 307 1221 l 251 1221 z "},"Ż":{"ha":557,"x_min":43,"x_max":531,"o":"m 43 0 l 43 60 l 447 1065 l 79 1065 l 79 1125 l 529 1125 l 529 1078 l 121 60 l 531 60 l 531 0 l 43 0 m 238 1261 l 238 1406 l 321 1406 l 321 1261 l 238 1261 z "},"a":{"ha":526,"x_min":53,"x_max":458,"o":"m 214 -12 q 129 10 165 -12 q 73 72 93 32 q 53 163 53 111 q 66 252 53 214 q 114 324 79 290 q 213 394 149 357 q 381 479 278 431 l 381 536 q 370 672 381 624 q 335 740 360 721 q 269 760 311 760 q 208 749 238 760 q 160 705 179 738 q 142 608 142 672 l 142 588 l 69 588 q 116 759 69 703 q 272 815 163 815 q 414 751 374 815 q 454 544 454 688 l 454 140 q 455 98 454 129 q 456 38 456 67 q 458 0 457 8 l 394 0 q 388 61 392 29 q 382 107 383 93 q 319 22 364 57 q 214 -12 275 -12 m 232 49 q 294 65 267 49 q 344 106 322 81 q 381 161 367 132 l 381 425 q 258 358 307 386 q 180 306 208 331 q 139 249 151 281 q 126 174 126 218 q 160 75 126 101 q 232 49 193 49 z "},"á":{"ha":526,"x_min":53,"x_max":458,"o":"m 214 -12 q 129 10 165 -12 q 73 72 93 32 q 53 163 53 111 q 66 252 53 214 q 114 324 79 290 q 213 394 149 357 q 381 479 278 431 l 381 536 q 370 672 381 624 q 335 740 360 721 q 269 760 311 760 q 208 749 238 760 q 160 705 179 738 q 142 608 142 672 l 142 588 l 69 588 q 116 759 69 703 q 272 815 163 815 q 414 751 374 815 q 454 544 454 688 l 454 140 q 455 98 454 129 q 456 38 456 67 q 458 0 457 8 l 394 0 q 388 61 392 29 q 382 107 383 93 q 319 22 364 57 q 214 -12 275 -12 m 232 49 q 294 65 267 49 q 344 106 322 81 q 381 161 367 132 l 381 425 q 258 358 307 386 q 180 306 208 331 q 139 249 151 281 q 126 174 126 218 q 160 75 126 101 q 232 49 193 49 m 253 869 l 342 1139 l 417 1139 l 292 869 l 253 869 z "},"ă":{"ha":526,"x_min":53,"x_max":458,"o":"m 214 -12 q 129 10 165 -12 q 73 72 93 32 q 53 163 53 111 q 66 252 53 214 q 114 324 79 290 q 213 394 149 357 q 381 479 278 431 l 381 536 q 370 672 381 624 q 335 740 360 721 q 269 760 311 760 q 208 749 238 760 q 160 705 179 738 q 142 608 142 672 l 142 588 l 69 588 q 116 759 69 703 q 272 815 163 815 q 414 751 374 815 q 454 544 454 688 l 454 140 q 455 98 454 129 q 456 38 456 67 q 458 0 457 8 l 394 0 q 388 61 392 29 q 382 107 383 93 q 319 22 364 57 q 214 -12 275 -12 m 232 49 q 294 65 267 49 q 344 106 322 81 q 381 161 367 132 l 381 425 q 258 358 307 386 q 180 306 208 331 q 139 249 151 281 q 126 174 126 218 q 160 75 126 101 q 232 49 193 49 m 269 888 q 158 925 200 888 q 113 1042 115 963 l 164 1042 q 196 958 165 982 q 269 935 226 935 q 343 958 313 935 q 378 1042 374 982 l 429 1042 q 383 925 426 963 q 269 888 339 888 z "},"ắ":{"ha":526,"x_min":53,"x_max":458,"o":"m 214 -12 q 129 10 165 -12 q 73 72 93 32 q 53 163 53 111 q 66 252 53 214 q 114 324 79 290 q 213 394 149 357 q 381 479 278 431 l 381 536 q 370 672 381 624 q 335 740 360 721 q 269 760 311 760 q 208 749 238 760 q 160 705 179 738 q 142 608 142 672 l 142 588 l 69 588 q 116 759 69 703 q 272 815 163 815 q 414 751 374 815 q 454 544 454 688 l 454 140 q 455 98 454 129 q 456 38 456 67 q 458 0 457 8 l 394 0 q 388 61 392 29 q 382 107 383 93 q 319 22 364 57 q 214 -12 275 -12 m 232 49 q 294 65 267 49 q 344 106 322 81 q 381 161 367 132 l 381 425 q 258 358 307 386 q 180 306 208 331 q 139 249 151 281 q 126 174 126 218 q 160 75 126 101 q 232 49 193 49 m 222 1090 l 313 1253 l 388 1253 l 261 1090 l 222 1090 m 269 888 q 158 925 200 888 q 113 1042 115 963 l 164 1042 q 196 958 165 982 q 269 935 226 935 q 343 958 313 935 q 378 1042 374 982 l 429 1042 q 383 925 426 963 q 269 888 339 888 z "},"ặ":{"ha":526,"x_min":53,"x_max":458,"o":"m 214 -12 q 129 10 165 -12 q 73 72 93 32 q 53 163 53 111 q 66 252 53 214 q 114 324 79 290 q 213 394 149 357 q 381 479 278 431 l 381 536 q 370 672 381 624 q 335 740 360 721 q 269 760 311 760 q 208 749 238 760 q 160 705 179 738 q 142 608 142 672 l 142 588 l 69 588 q 116 759 69 703 q 272 815 163 815 q 414 751 374 815 q 454 544 454 688 l 454 140 q 455 98 454 129 q 456 38 456 67 q 458 0 457 8 l 394 0 q 388 61 392 29 q 382 107 383 93 q 319 22 364 57 q 214 -12 275 -12 m 232 49 q 294 65 267 49 q 344 106 322 81 q 381 161 367 132 l 381 425 q 258 358 307 386 q 180 306 208 331 q 139 249 151 281 q 126 174 126 218 q 160 75 126 101 q 232 49 193 49 m 222 -187 l 222 -83 l 306 -83 l 306 -187 l 222 -187 m 269 888 q 158 925 200 888 q 113 1042 115 963 l 164 1042 q 196 958 165 982 q 269 935 226 935 q 343 958 313 935 q 378 1042 374 982 l 429 1042 q 383 925 426 963 q 269 888 339 888 z "},"ằ":{"ha":526,"x_min":53,"x_max":458,"o":"m 214 -12 q 129 10 165 -12 q 73 72 93 32 q 53 163 53 111 q 66 252 53 214 q 114 324 79 290 q 213 394 149 357 q 381 479 278 431 l 381 536 q 370 672 381 624 q 335 740 360 721 q 269 760 311 760 q 208 749 238 760 q 160 705 179 738 q 142 608 142 672 l 142 588 l 69 588 q 116 759 69 703 q 272 815 163 815 q 414 751 374 815 q 454 544 454 688 l 454 140 q 455 98 454 129 q 456 38 456 67 q 458 0 457 8 l 394 0 q 388 61 392 29 q 382 107 383 93 q 319 22 364 57 q 214 -12 275 -12 m 232 49 q 294 65 267 49 q 344 106 322 81 q 381 161 367 132 l 381 425 q 258 358 307 386 q 180 306 208 331 q 139 249 151 281 q 126 174 126 218 q 160 75 126 101 q 232 49 193 49 m 289 1090 l 163 1253 l 238 1253 l 328 1090 l 289 1090 m 269 888 q 158 925 200 888 q 113 1042 115 963 l 164 1042 q 196 958 165 982 q 269 935 226 935 q 343 958 313 935 q 378 1042 374 982 l 429 1042 q 383 925 426 963 q 269 888 339 888 z "},"ẳ":{"ha":526,"x_min":53,"x_max":458,"o":"m 214 -12 q 129 10 165 -12 q 73 72 93 32 q 53 163 53 111 q 66 252 53 214 q 114 324 79 290 q 213 394 149 357 q 381 479 278 431 l 381 536 q 370 672 381 624 q 335 740 360 721 q 269 760 311 760 q 208 749 238 760 q 160 705 179 738 q 142 608 142 672 l 142 588 l 69 588 q 116 759 69 703 q 272 815 163 815 q 414 751 374 815 q 454 544 454 688 l 454 140 q 455 98 454 129 q 456 38 456 67 q 458 0 457 8 l 394 0 q 388 61 392 29 q 382 107 383 93 q 319 22 364 57 q 214 -12 275 -12 m 232 49 q 294 65 267 49 q 344 106 322 81 q 381 161 367 132 l 381 425 q 258 358 307 386 q 180 306 208 331 q 139 249 151 281 q 126 174 126 218 q 160 75 126 101 q 232 49 193 49 m 276 1031 l 246 1063 q 294 1098 278 1081 q 310 1138 310 1115 q 294 1173 310 1161 q 250 1185 279 1185 q 219 1183 235 1185 q 188 1175 204 1181 l 188 1213 q 226 1222 207 1219 q 264 1225 246 1225 q 340 1203 313 1225 q 367 1142 367 1182 q 340 1076 367 1103 q 276 1031 313 1050 m 269 888 q 158 925 200 888 q 113 1042 115 963 l 164 1042 q 196 958 165 982 q 269 935 226 935 q 343 958 313 935 q 378 1042 374 982 l 429 1042 q 383 925 426 963 q 269 888 339 888 z "},"ẵ":{"ha":526,"x_min":53,"x_max":458,"o":"m 214 -12 q 129 10 165 -12 q 73 72 93 32 q 53 163 53 111 q 66 252 53 214 q 114 324 79 290 q 213 394 149 357 q 381 479 278 431 l 381 536 q 370 672 381 624 q 335 740 360 721 q 269 760 311 760 q 208 749 238 760 q 160 705 179 738 q 142 608 142 672 l 142 588 l 69 588 q 116 759 69 703 q 272 815 163 815 q 414 751 374 815 q 454 544 454 688 l 454 140 q 455 98 454 129 q 456 38 456 67 q 458 0 457 8 l 394 0 q 388 61 392 29 q 382 107 383 93 q 319 22 364 57 q 214 -12 275 -12 m 232 49 q 294 65 267 49 q 344 106 322 81 q 381 161 367 132 l 381 425 q 258 358 307 386 q 180 306 208 331 q 139 249 151 281 q 126 174 126 218 q 160 75 126 101 q 232 49 193 49 m 269 888 q 158 925 200 888 q 113 1042 115 963 l 164 1042 q 196 958 165 982 q 269 935 226 935 q 343 958 313 935 q 378 1042 374 982 l 429 1042 q 383 925 426 963 q 269 888 339 888 m 343 1103 q 288 1119 313 1103 q 243 1152 264 1136 q 200 1168 222 1168 q 169 1154 181 1168 q 157 1114 157 1140 l 107 1114 q 113 1151 107 1126 q 138 1198 119 1176 q 193 1219 156 1219 q 251 1203 226 1219 q 298 1171 276 1188 q 342 1154 319 1154 q 375 1168 364 1154 q 388 1217 386 1182 l 435 1217 q 429 1174 435 1201 q 404 1124 424 1146 q 343 1103 385 1103 z "},"ǎ":{"ha":526,"x_min":53,"x_max":458,"o":"m 214 -12 q 129 10 165 -12 q 73 72 93 32 q 53 163 53 111 q 66 252 53 214 q 114 324 79 290 q 213 394 149 357 q 381 479 278 431 l 381 536 q 370 672 381 624 q 335 740 360 721 q 269 760 311 760 q 208 749 238 760 q 160 705 179 738 q 142 608 142 672 l 142 588 l 69 588 q 116 759 69 703 q 272 815 163 815 q 414 751 374 815 q 454 544 454 688 l 454 140 q 455 98 454 129 q 456 38 456 67 q 458 0 457 8 l 394 0 q 388 61 392 29 q 382 107 383 93 q 319 22 364 57 q 214 -12 275 -12 m 232 49 q 294 65 267 49 q 344 106 322 81 q 381 161 367 132 l 381 425 q 258 358 307 386 q 180 306 208 331 q 139 249 151 281 q 126 174 126 218 q 160 75 126 101 q 232 49 193 49 m 243 899 l 125 1125 l 188 1125 l 271 956 l 354 1125 l 417 1125 l 299 899 l 243 899 z "},"â":{"ha":526,"x_min":53,"x_max":458,"o":"m 214 -12 q 129 10 165 -12 q 73 72 93 32 q 53 163 53 111 q 66 252 53 214 q 114 324 79 290 q 213 394 149 357 q 381 479 278 431 l 381 536 q 370 672 381 624 q 335 740 360 721 q 269 760 311 760 q 208 749 238 760 q 160 705 179 738 q 142 608 142 672 l 142 588 l 69 588 q 116 759 69 703 q 272 815 163 815 q 414 751 374 815 q 454 544 454 688 l 454 140 q 455 98 454 129 q 456 38 456 67 q 458 0 457 8 l 394 0 q 388 61 392 29 q 382 107 383 93 q 319 22 364 57 q 214 -12 275 -12 m 232 49 q 294 65 267 49 q 344 106 322 81 q 381 161 367 132 l 381 425 q 258 358 307 386 q 180 306 208 331 q 139 249 151 281 q 126 174 126 218 q 160 75 126 101 q 232 49 193 49 m 106 875 l 225 1125 l 317 1125 l 435 875 l 382 875 l 271 1088 l 160 875 l 106 875 z "},"ấ":{"ha":526,"x_min":53,"x_max":560,"o":"m 214 -12 q 129 10 165 -12 q 73 72 93 32 q 53 163 53 111 q 66 252 53 214 q 114 324 79 290 q 213 394 149 357 q 381 479 278 431 l 381 536 q 370 672 381 624 q 335 740 360 721 q 269 760 311 760 q 208 749 238 760 q 160 705 179 738 q 142 608 142 672 l 142 588 l 69 588 q 116 759 69 703 q 272 815 163 815 q 414 751 374 815 q 454 544 454 688 l 454 140 q 455 98 454 129 q 456 38 456 67 q 458 0 457 8 l 394 0 q 388 61 392 29 q 382 107 383 93 q 319 22 364 57 q 214 -12 275 -12 m 232 49 q 294 65 267 49 q 344 106 322 81 q 381 161 367 132 l 381 425 q 258 358 307 386 q 180 306 208 331 q 139 249 151 281 q 126 174 126 218 q 160 75 126 101 q 232 49 193 49 m 106 875 l 225 1069 l 317 1069 l 435 875 l 382 875 l 271 1035 l 160 875 l 106 875 m 414 999 l 488 1158 l 560 1158 l 467 999 l 414 999 z "},"ậ":{"ha":526,"x_min":53,"x_max":458,"o":"m 214 -12 q 129 10 165 -12 q 73 72 93 32 q 53 163 53 111 q 66 252 53 214 q 114 324 79 290 q 213 394 149 357 q 381 479 278 431 l 381 536 q 370 672 381 624 q 335 740 360 721 q 269 760 311 760 q 208 749 238 760 q 160 705 179 738 q 142 608 142 672 l 142 588 l 69 588 q 116 759 69 703 q 272 815 163 815 q 414 751 374 815 q 454 544 454 688 l 454 140 q 455 98 454 129 q 456 38 456 67 q 458 0 457 8 l 394 0 q 388 61 392 29 q 382 107 383 93 q 319 22 364 57 q 214 -12 275 -12 m 232 49 q 294 65 267 49 q 344 106 322 81 q 381 161 367 132 l 381 425 q 258 358 307 386 q 180 306 208 331 q 139 249 151 281 q 126 174 126 218 q 160 75 126 101 q 232 49 193 49 m 222 -187 l 222 -83 l 306 -83 l 306 -187 l 222 -187 m 106 875 l 225 1069 l 317 1069 l 435 875 l 382 875 l 271 1035 l 160 875 l 106 875 z "},"ầ":{"ha":526,"x_min":53,"x_max":503,"o":"m 214 -12 q 129 10 165 -12 q 73 72 93 32 q 53 163 53 111 q 66 252 53 214 q 114 324 79 290 q 213 394 149 357 q 381 479 278 431 l 381 536 q 370 672 381 624 q 335 740 360 721 q 269 760 311 760 q 208 749 238 760 q 160 705 179 738 q 142 608 142 672 l 142 588 l 69 588 q 116 759 69 703 q 272 815 163 815 q 414 751 374 815 q 454 544 454 688 l 454 140 q 455 98 454 129 q 456 38 456 67 q 458 0 457 8 l 394 0 q 388 61 392 29 q 382 107 383 93 q 319 22 364 57 q 214 -12 275 -12 m 232 49 q 294 65 267 49 q 344 106 322 81 q 381 161 367 132 l 381 425 q 258 358 307 386 q 180 306 208 331 q 139 249 151 281 q 126 174 126 218 q 160 75 126 101 q 232 49 193 49 m 106 875 l 225 1069 l 317 1069 l 435 875 l 382 875 l 271 1035 l 160 875 l 106 875 m 450 999 l 357 1158 l 429 1158 l 503 999 l 450 999 z "},"ẩ":{"ha":526,"x_min":53,"x_max":524,"o":"m 214 -12 q 129 10 165 -12 q 73 72 93 32 q 53 163 53 111 q 66 252 53 214 q 114 324 79 290 q 213 394 149 357 q 381 479 278 431 l 381 536 q 370 672 381 624 q 335 740 360 721 q 269 760 311 760 q 208 749 238 760 q 160 705 179 738 q 142 608 142 672 l 142 588 l 69 588 q 116 759 69 703 q 272 815 163 815 q 414 751 374 815 q 454 544 454 688 l 454 140 q 455 98 454 129 q 456 38 456 67 q 458 0 457 8 l 394 0 q 388 61 392 29 q 382 107 383 93 q 319 22 364 57 q 214 -12 275 -12 m 232 49 q 294 65 267 49 q 344 106 322 81 q 381 161 367 132 l 381 425 q 258 358 307 386 q 180 306 208 331 q 139 249 151 281 q 126 174 126 218 q 160 75 126 101 q 232 49 193 49 m 433 997 l 403 1029 q 451 1065 435 1047 q 467 1104 467 1082 q 451 1140 467 1128 q 407 1151 436 1151 q 376 1149 392 1151 q 344 1142 361 1147 l 344 1179 q 383 1189 364 1186 q 421 1192 403 1192 q 497 1170 469 1192 q 524 1108 524 1149 q 497 1042 524 1067 q 433 997 469 1017 m 106 875 l 225 1069 l 317 1069 l 435 875 l 382 875 l 271 1035 l 160 875 l 106 875 z "},"ẫ":{"ha":526,"x_min":53,"x_max":458,"o":"m 214 -12 q 129 10 165 -12 q 73 72 93 32 q 53 163 53 111 q 66 252 53 214 q 114 324 79 290 q 213 394 149 357 q 381 479 278 431 l 381 536 q 370 672 381 624 q 335 740 360 721 q 269 760 311 760 q 208 749 238 760 q 160 705 179 738 q 142 608 142 672 l 142 588 l 69 588 q 116 759 69 703 q 272 815 163 815 q 414 751 374 815 q 454 544 454 688 l 454 140 q 455 98 454 129 q 456 38 456 67 q 458 0 457 8 l 394 0 q 388 61 392 29 q 382 107 383 93 q 319 22 364 57 q 214 -12 275 -12 m 232 49 q 294 65 267 49 q 344 106 322 81 q 381 161 367 132 l 381 425 q 258 358 307 386 q 180 306 208 331 q 139 249 151 281 q 126 174 126 218 q 160 75 126 101 q 232 49 193 49 m 106 875 l 225 1069 l 317 1069 l 435 875 l 382 875 l 271 1035 l 160 875 l 106 875 m 343 1139 q 288 1156 313 1139 q 243 1188 264 1172 q 200 1204 222 1204 q 169 1190 181 1204 q 157 1150 157 1176 l 107 1150 q 113 1188 107 1163 q 138 1234 119 1213 q 193 1256 156 1256 q 251 1240 226 1256 q 298 1207 276 1224 q 342 1190 319 1190 q 375 1204 364 1190 q 388 1253 386 1218 l 435 1253 q 429 1210 435 1238 q 404 1160 424 1182 q 343 1139 385 1139 z "},"ȁ":{"ha":526,"x_min":53,"x_max":458,"o":"m 214 -12 q 129 10 165 -12 q 73 72 93 32 q 53 163 53 111 q 66 252 53 214 q 114 324 79 290 q 213 394 149 357 q 381 479 278 431 l 381 536 q 370 672 381 624 q 335 740 360 721 q 269 760 311 760 q 208 749 238 760 q 160 705 179 738 q 142 608 142 672 l 142 588 l 69 588 q 116 759 69 703 q 272 815 163 815 q 414 751 374 815 q 454 544 454 688 l 454 140 q 455 98 454 129 q 456 38 456 67 q 458 0 457 8 l 394 0 q 388 61 392 29 q 382 107 383 93 q 319 22 364 57 q 214 -12 275 -12 m 232 49 q 294 65 267 49 q 344 106 322 81 q 381 161 367 132 l 381 425 q 258 358 307 386 q 180 306 208 331 q 139 249 151 281 q 126 174 126 218 q 160 75 126 101 q 232 49 193 49 m 175 921 l 56 1125 l 138 1125 l 215 921 l 175 921 m 311 921 l 218 1125 l 290 1125 l 349 921 l 311 921 z "},"ä":{"ha":526,"x_min":53,"x_max":458,"o":"m 214 -12 q 129 10 165 -12 q 73 72 93 32 q 53 163 53 111 q 66 252 53 214 q 114 324 79 290 q 213 394 149 357 q 381 479 278 431 l 381 536 q 370 672 381 624 q 335 740 360 721 q 269 760 311 760 q 208 749 238 760 q 160 705 179 738 q 142 608 142 672 l 142 588 l 69 588 q 116 759 69 703 q 272 815 163 815 q 414 751 374 815 q 454 544 454 688 l 454 140 q 455 98 454 129 q 456 38 456 67 q 458 0 457 8 l 394 0 q 388 61 392 29 q 382 107 383 93 q 319 22 364 57 q 214 -12 275 -12 m 232 49 q 294 65 267 49 q 344 106 322 81 q 381 161 367 132 l 381 425 q 258 358 307 386 q 180 306 208 331 q 139 249 151 281 q 126 174 126 218 q 160 75 126 101 q 232 49 193 49 m 344 1019 l 344 1125 l 422 1125 l 422 1019 l 344 1019 m 122 1019 l 122 1125 l 199 1125 l 199 1019 l 122 1019 z "},"ạ":{"ha":526,"x_min":53,"x_max":458,"o":"m 214 -12 q 129 10 165 -12 q 73 72 93 32 q 53 163 53 111 q 66 252 53 214 q 114 324 79 290 q 213 394 149 357 q 381 479 278 431 l 381 536 q 370 672 381 624 q 335 740 360 721 q 269 760 311 760 q 208 749 238 760 q 160 705 179 738 q 142 608 142 672 l 142 588 l 69 588 q 116 759 69 703 q 272 815 163 815 q 414 751 374 815 q 454 544 454 688 l 454 140 q 455 98 454 129 q 456 38 456 67 q 458 0 457 8 l 394 0 q 388 61 392 29 q 382 107 383 93 q 319 22 364 57 q 214 -12 275 -12 m 232 49 q 294 65 267 49 q 344 106 322 81 q 381 161 367 132 l 381 425 q 258 358 307 386 q 180 306 208 331 q 139 249 151 281 q 126 174 126 218 q 160 75 126 101 q 232 49 193 49 m 222 -187 l 222 -83 l 306 -83 l 306 -187 l 222 -187 z "},"à":{"ha":526,"x_min":53,"x_max":458,"o":"m 214 -12 q 129 10 165 -12 q 73 72 93 32 q 53 163 53 111 q 66 252 53 214 q 114 324 79 290 q 213 394 149 357 q 381 479 278 431 l 381 536 q 370 672 381 624 q 335 740 360 721 q 269 760 311 760 q 208 749 238 760 q 160 705 179 738 q 142 608 142 672 l 142 588 l 69 588 q 116 759 69 703 q 272 815 163 815 q 414 751 374 815 q 454 544 454 688 l 454 140 q 455 98 454 129 q 456 38 456 67 q 458 0 457 8 l 394 0 q 388 61 392 29 q 382 107 383 93 q 319 22 364 57 q 214 -12 275 -12 m 232 49 q 294 65 267 49 q 344 106 322 81 q 381 161 367 132 l 381 425 q 258 358 307 386 q 180 306 208 331 q 139 249 151 281 q 126 174 126 218 q 160 75 126 101 q 232 49 193 49 m 250 869 l 138 1139 l 213 1139 l 288 869 l 250 869 z "},"ả":{"ha":526,"x_min":53,"x_max":458,"o":"m 214 -12 q 129 10 165 -12 q 73 72 93 32 q 53 163 53 111 q 66 252 53 214 q 114 324 79 290 q 213 394 149 357 q 381 479 278 431 l 381 536 q 370 672 381 624 q 335 740 360 721 q 269 760 311 760 q 208 749 238 760 q 160 705 179 738 q 142 608 142 672 l 142 588 l 69 588 q 116 759 69 703 q 272 815 163 815 q 414 751 374 815 q 454 544 454 688 l 454 140 q 455 98 454 129 q 456 38 456 67 q 458 0 457 8 l 394 0 q 388 61 392 29 q 382 107 383 93 q 319 22 364 57 q 214 -12 275 -12 m 232 49 q 294 65 267 49 q 344 106 322 81 q 381 161 367 132 l 381 425 q 258 358 307 386 q 180 306 208 331 q 139 249 151 281 q 126 174 126 218 q 160 75 126 101 q 232 49 193 49 m 269 917 l 239 949 q 288 984 271 967 q 306 1024 306 1001 q 290 1060 306 1049 q 242 1071 275 1071 q 213 1069 228 1071 q 181 1064 197 1067 l 181 1103 q 254 1111 218 1111 q 314 1102 290 1111 q 350 1074 338 1093 q 363 1028 363 1056 q 350 980 363 1000 q 316 944 338 960 q 269 917 294 929 z "},"ȃ":{"ha":526,"x_min":53,"x_max":458,"o":"m 214 -12 q 129 10 165 -12 q 73 72 93 32 q 53 163 53 111 q 66 252 53 214 q 114 324 79 290 q 213 394 149 357 q 381 479 278 431 l 381 536 q 370 672 381 624 q 335 740 360 721 q 269 760 311 760 q 208 749 238 760 q 160 705 179 738 q 142 608 142 672 l 142 588 l 69 588 q 116 759 69 703 q 272 815 163 815 q 414 751 374 815 q 454 544 454 688 l 454 140 q 455 98 454 129 q 456 38 456 67 q 458 0 457 8 l 394 0 q 388 61 392 29 q 382 107 383 93 q 319 22 364 57 q 214 -12 275 -12 m 232 49 q 294 65 267 49 q 344 106 322 81 q 381 161 367 132 l 381 425 q 258 358 307 386 q 180 306 208 331 q 139 249 151 281 q 126 174 126 218 q 160 75 126 101 q 232 49 193 49 m 113 971 q 135 1058 115 1024 q 190 1108 156 1092 q 271 1125 225 1125 q 353 1108 318 1125 q 408 1058 388 1092 q 429 971 428 1024 l 378 971 q 346 1053 376 1031 q 271 1076 315 1076 q 197 1053 228 1076 q 164 971 167 1031 l 113 971 z "},"ā":{"ha":526,"x_min":53,"x_max":458,"o":"m 214 -12 q 129 10 165 -12 q 73 72 93 32 q 53 163 53 111 q 66 252 53 214 q 114 324 79 290 q 213 394 149 357 q 381 479 278 431 l 381 536 q 370 672 381 624 q 335 740 360 721 q 269 760 311 760 q 208 749 238 760 q 160 705 179 738 q 142 608 142 672 l 142 588 l 69 588 q 116 759 69 703 q 272 815 163 815 q 414 751 374 815 q 454 544 454 688 l 454 140 q 455 98 454 129 q 456 38 456 67 q 458 0 457 8 l 394 0 q 388 61 392 29 q 382 107 383 93 q 319 22 364 57 q 214 -12 275 -12 m 232 49 q 294 65 267 49 q 344 106 322 81 q 381 161 367 132 l 381 425 q 258 358 307 386 q 180 306 208 331 q 139 249 151 281 q 126 174 126 218 q 160 75 126 101 q 232 49 193 49 m 151 972 l 151 1028 l 390 1028 l 390 972 l 151 972 z "},"ą":{"ha":526,"x_min":53,"x_max":481,"o":"m 214 -12 q 129 10 165 -12 q 73 72 93 32 q 53 163 53 111 q 66 252 53 214 q 114 324 79 290 q 213 394 149 357 q 381 479 278 431 l 381 536 q 370 672 381 624 q 335 740 360 721 q 269 760 311 760 q 208 749 238 760 q 160 705 179 738 q 142 608 142 672 l 142 588 l 69 588 q 116 759 69 703 q 272 815 163 815 q 414 751 374 815 q 454 544 454 688 l 454 140 q 455 98 454 129 q 456 38 456 67 q 458 0 457 8 l 394 0 q 388 61 392 29 q 382 107 383 93 q 319 22 364 57 q 214 -12 275 -12 m 232 49 q 294 65 267 49 q 344 106 322 81 q 381 161 367 132 l 381 425 q 258 358 307 386 q 180 306 208 331 q 139 249 151 281 q 126 174 126 218 q 160 75 126 101 q 232 49 193 49 m 436 -279 q 380 -272 406 -279 q 335 -250 354 -264 q 307 -215 317 -236 q 297 -168 297 -194 q 312 -105 297 -135 q 351 -48 326 -75 q 407 0 376 -21 l 449 0 q 401 -53 422 -26 q 368 -107 381 -81 q 356 -162 356 -133 q 385 -219 356 -201 q 456 -236 414 -236 q 469 -235 463 -236 q 481 -233 475 -235 l 472 -276 q 457 -278 467 -278 q 436 -279 447 -279 z "},"å":{"ha":526,"x_min":53,"x_max":458,"o":"m 214 -12 q 129 10 165 -12 q 73 72 93 32 q 53 163 53 111 q 66 252 53 214 q 114 324 79 290 q 213 394 149 357 q 381 479 278 431 l 381 536 q 370 672 381 624 q 335 740 360 721 q 269 760 311 760 q 208 749 238 760 q 160 705 179 738 q 142 608 142 672 l 142 588 l 69 588 q 116 759 69 703 q 272 815 163 815 q 414 751 374 815 q 454 544 454 688 l 454 140 q 455 98 454 129 q 456 38 456 67 q 458 0 457 8 l 394 0 q 388 61 392 29 q 382 107 383 93 q 319 22 364 57 q 214 -12 275 -12 m 232 49 q 294 65 267 49 q 344 106 322 81 q 381 161 367 132 l 381 425 q 258 358 307 386 q 180 306 208 331 q 139 249 151 281 q 126 174 126 218 q 160 75 126 101 q 232 49 193 49 m 271 901 q 190 929 228 901 q 151 1019 151 957 q 190 1110 151 1082 q 271 1138 228 1138 q 353 1110 315 1138 q 390 1019 390 1082 q 353 929 390 957 q 271 901 315 901 m 271 944 q 322 962 299 944 q 344 1019 344 979 q 322 1078 344 1061 q 271 1096 299 1096 q 220 1078 243 1096 q 197 1019 197 1061 q 220 962 197 979 q 271 944 243 944 z "},"ǻ":{"ha":526,"x_min":53,"x_max":458,"o":"m 214 -12 q 129 10 165 -12 q 73 72 93 32 q 53 163 53 111 q 66 252 53 214 q 114 324 79 290 q 213 394 149 357 q 381 479 278 431 l 381 536 q 370 672 381 624 q 335 740 360 721 q 269 760 311 760 q 208 749 238 760 q 160 705 179 738 q 142 608 142 672 l 142 588 l 69 588 q 116 759 69 703 q 272 815 163 815 q 414 751 374 815 q 454 544 454 688 l 454 140 q 455 98 454 129 q 456 38 456 67 q 458 0 457 8 l 394 0 q 388 61 392 29 q 382 107 383 93 q 319 22 364 57 q 214 -12 275 -12 m 232 49 q 294 65 267 49 q 344 106 322 81 q 381 161 367 132 l 381 425 q 258 358 307 386 q 180 306 208 331 q 139 249 151 281 q 126 174 126 218 q 160 75 126 101 q 232 49 193 49 m 271 901 q 190 929 228 901 q 151 1019 151 957 q 190 1110 151 1082 q 271 1138 228 1138 q 353 1110 315 1138 q 390 1019 390 1082 q 353 929 390 957 q 271 901 315 901 m 271 944 q 322 962 299 944 q 344 1019 344 979 q 322 1078 344 1061 q 271 1096 299 1096 q 220 1078 243 1096 q 197 1019 197 1061 q 220 962 197 979 q 271 944 243 944 m 253 1204 l 342 1474 l 417 1474 l 292 1204 l 253 1204 z "},"ã":{"ha":526,"x_min":53,"x_max":458,"o":"m 214 -12 q 129 10 165 -12 q 73 72 93 32 q 53 163 53 111 q 66 252 53 214 q 114 324 79 290 q 213 394 149 357 q 381 479 278 431 l 381 536 q 370 672 381 624 q 335 740 360 721 q 269 760 311 760 q 208 749 238 760 q 160 705 179 738 q 142 608 142 672 l 142 588 l 69 588 q 116 759 69 703 q 272 815 163 815 q 414 751 374 815 q 454 544 454 688 l 454 140 q 455 98 454 129 q 456 38 456 67 q 458 0 457 8 l 394 0 q 388 61 392 29 q 382 107 383 93 q 319 22 364 57 q 214 -12 275 -12 m 232 49 q 294 65 267 49 q 344 106 322 81 q 381 161 367 132 l 381 425 q 258 358 307 386 q 180 306 208 331 q 139 249 151 281 q 126 174 126 218 q 160 75 126 101 q 232 49 193 49 m 343 954 q 288 971 313 954 q 243 1003 264 988 q 200 1019 222 1019 q 169 1006 181 1019 q 157 965 157 992 l 107 965 q 113 1003 107 978 q 138 1049 119 1028 q 193 1071 156 1071 q 251 1055 226 1071 q 298 1022 276 1039 q 342 1006 319 1006 q 375 1019 364 1006 q 388 1068 386 1033 l 435 1068 q 429 1025 435 1053 q 404 976 424 997 q 343 954 385 954 z "},"æ":{"ha":839,"x_min":53,"x_max":779,"o":"m 214 -12 q 97 36 142 -12 q 53 163 53 85 q 66 255 53 211 q 123 337 79 299 q 260 407 167 375 l 381 449 l 381 568 q 351 719 381 679 q 256 758 321 758 q 199 745 226 758 q 155 698 172 732 q 138 601 138 664 l 67 604 q 116 763 67 711 q 253 815 165 815 q 379 769 333 815 q 425 631 425 722 l 415 631 q 442 742 415 701 q 512 799 469 782 q 599 815 554 815 q 731 769 688 815 q 774 654 774 724 q 755 568 774 603 q 699 510 736 533 q 610 469 663 488 l 456 417 l 456 310 q 485 106 456 165 q 585 46 515 46 q 642 56 614 46 q 688 103 669 67 q 707 215 707 139 l 707 271 l 779 271 l 779 218 q 762 98 779 150 q 702 17 744 46 q 585 -12 660 -12 q 507 2 544 -12 q 443 52 469 17 q 408 149 417 88 q 360 51 393 86 q 289 1 328 15 q 214 -12 250 -12 m 231 44 q 301 67 267 44 q 358 146 336 90 q 381 301 381 201 l 381 400 l 279 360 q 174 303 207 332 q 133 242 142 275 q 125 169 125 210 q 142 94 125 122 q 183 56 158 67 q 231 44 207 44 m 456 465 l 597 515 q 682 566 658 538 q 706 649 706 594 q 681 723 706 689 q 593 757 656 757 q 519 738 550 757 q 472 669 489 718 q 456 533 456 621 l 456 465 z "},"ǽ":{"ha":839,"x_min":53,"x_max":779,"o":"m 214 -12 q 97 36 142 -12 q 53 163 53 85 q 66 255 53 211 q 123 337 79 299 q 260 407 167 375 l 381 449 l 381 568 q 351 719 381 679 q 256 758 321 758 q 199 745 226 758 q 155 698 172 732 q 138 601 138 664 l 67 604 q 116 763 67 711 q 253 815 165 815 q 379 769 333 815 q 425 631 425 722 l 415 631 q 442 742 415 701 q 512 799 469 782 q 599 815 554 815 q 731 769 688 815 q 774 654 774 724 q 755 568 774 603 q 699 510 736 533 q 610 469 663 488 l 456 417 l 456 310 q 485 106 456 165 q 585 46 515 46 q 642 56 614 46 q 688 103 669 67 q 707 215 707 139 l 707 271 l 779 271 l 779 218 q 762 98 779 150 q 702 17 744 46 q 585 -12 660 -12 q 507 2 544 -12 q 443 52 469 17 q 408 149 417 88 q 360 51 393 86 q 289 1 328 15 q 214 -12 250 -12 m 231 44 q 301 67 267 44 q 358 146 336 90 q 381 301 381 201 l 381 400 l 279 360 q 174 303 207 332 q 133 242 142 275 q 125 169 125 210 q 142 94 125 122 q 183 56 158 67 q 231 44 207 44 m 456 465 l 597 515 q 682 566 658 538 q 706 649 706 594 q 681 723 706 689 q 593 757 656 757 q 519 738 550 757 q 472 669 489 718 q 456 533 456 621 l 456 465 m 396 869 l 485 1139 l 560 1139 l 435 869 l 396 869 z "},"b":{"ha":551,"x_min":79,"x_max":489,"o":"m 300 -12 q 212 14 249 -12 q 153 67 175 40 l 153 0 l 79 0 l 79 1125 l 153 1125 l 153 735 q 213 790 175 764 q 307 815 251 815 q 398 792 363 815 q 453 726 433 769 q 481 621 474 682 q 489 485 489 560 l 489 331 q 472 142 489 218 q 413 26 454 65 q 300 -12 372 -12 m 290 44 q 368 74 342 44 q 404 167 394 104 q 414 328 414 231 l 414 485 q 405 641 414 581 q 370 730 396 701 q 292 758 344 758 q 211 733 247 758 q 153 683 175 707 l 153 117 q 212 67 176 89 q 290 44 247 44 z "},"ḃ":{"ha":551,"x_min":75,"x_max":489,"o":"m 300 -12 q 212 14 249 -12 q 153 67 175 40 l 153 0 l 79 0 l 79 1125 l 153 1125 l 153 735 q 213 790 175 764 q 307 815 251 815 q 398 792 363 815 q 453 726 433 769 q 481 621 474 682 q 489 485 489 560 l 489 331 q 472 142 489 218 q 413 26 454 65 q 300 -12 372 -12 m 290 44 q 368 74 342 44 q 404 167 394 104 q 414 328 414 231 l 414 485 q 405 641 414 581 q 370 730 396 701 q 292 758 344 758 q 211 733 247 758 q 153 683 175 707 l 153 117 q 212 67 176 89 q 290 44 247 44 m 75 1261 l 75 1406 l 158 1406 l 158 1261 l 75 1261 z "},"c":{"ha":521,"x_min":64,"x_max":463,"o":"m 267 -12 q 133 30 176 -12 q 77 143 90 72 q 64 301 64 214 l 64 490 q 82 680 64 608 q 144 783 100 751 q 267 815 189 815 q 392 781 350 815 q 449 688 435 747 q 463 556 463 629 l 463 524 l 393 524 l 393 556 q 380 681 393 638 q 339 742 367 725 q 267 760 311 760 q 185 734 213 760 q 147 651 157 708 q 138 499 138 594 l 138 290 q 163 101 138 160 q 268 43 189 43 q 349 67 322 43 q 385 140 376 90 q 393 269 393 190 l 393 300 l 463 300 l 463 271 q 450 126 463 190 q 396 25 438 63 q 267 -12 354 -12 z "},"ć":{"ha":521,"x_min":64,"x_max":463,"o":"m 267 -12 q 133 30 176 -12 q 77 143 90 72 q 64 301 64 214 l 64 490 q 82 680 64 608 q 144 783 100 751 q 267 815 189 815 q 392 781 350 815 q 449 688 435 747 q 463 556 463 629 l 463 524 l 393 524 l 393 556 q 380 681 393 638 q 339 742 367 725 q 267 760 311 760 q 185 734 213 760 q 147 651 157 708 q 138 499 138 594 l 138 290 q 163 101 138 160 q 268 43 189 43 q 349 67 322 43 q 385 140 376 90 q 393 269 393 190 l 393 300 l 463 300 l 463 271 q 450 126 463 190 q 396 25 438 63 q 267 -12 354 -12 m 243 869 l 332 1139 l 407 1139 l 282 869 l 243 869 z "},"č":{"ha":521,"x_min":64,"x_max":463,"o":"m 267 -12 q 133 30 176 -12 q 77 143 90 72 q 64 301 64 214 l 64 490 q 82 680 64 608 q 144 783 100 751 q 267 815 189 815 q 392 781 350 815 q 449 688 435 747 q 463 556 463 629 l 463 524 l 393 524 l 393 556 q 380 681 393 638 q 339 742 367 725 q 267 760 311 760 q 185 734 213 760 q 147 651 157 708 q 138 499 138 594 l 138 290 q 163 101 138 160 q 268 43 189 43 q 349 67 322 43 q 385 140 376 90 q 393 269 393 190 l 393 300 l 463 300 l 463 271 q 450 126 463 190 q 396 25 438 63 q 267 -12 354 -12 m 233 899 l 115 1125 l 178 1125 l 261 956 l 344 1125 l 407 1125 l 289 899 l 233 899 z "},"ç":{"ha":521,"x_min":64,"x_max":463,"o":"m 267 -12 q 133 30 176 -12 q 77 143 90 72 q 64 301 64 214 l 64 490 q 82 680 64 608 q 144 783 100 751 q 267 815 189 815 q 392 781 350 815 q 449 688 435 747 q 463 556 463 629 l 463 524 l 393 524 l 393 556 q 380 681 393 638 q 339 742 367 725 q 267 760 311 760 q 185 734 213 760 q 147 651 157 708 q 138 499 138 594 l 138 290 q 163 101 138 160 q 268 43 189 43 q 349 67 322 43 q 385 140 376 90 q 393 269 393 190 l 393 300 l 463 300 l 463 271 q 450 126 463 190 q 396 25 438 63 q 267 -12 354 -12 m 250 -258 q 231 -258 240 -258 q 210 -256 221 -257 l 210 -215 q 226 -217 218 -217 q 240 -218 233 -218 q 312 -204 289 -218 q 335 -160 335 -190 q 324 -126 335 -140 q 293 -103 314 -112 q 240 -92 272 -94 l 240 0 l 281 0 l 281 -65 q 366 -94 340 -68 q 392 -160 392 -119 q 376 -214 392 -192 q 328 -247 360 -236 q 250 -258 297 -258 z "},"ĉ":{"ha":521,"x_min":64,"x_max":463,"o":"m 267 -12 q 133 30 176 -12 q 77 143 90 72 q 64 301 64 214 l 64 490 q 82 680 64 608 q 144 783 100 751 q 267 815 189 815 q 392 781 350 815 q 449 688 435 747 q 463 556 463 629 l 463 524 l 393 524 l 393 556 q 380 681 393 638 q 339 742 367 725 q 267 760 311 760 q 185 734 213 760 q 147 651 157 708 q 138 499 138 594 l 138 290 q 163 101 138 160 q 268 43 189 43 q 349 67 322 43 q 385 140 376 90 q 393 269 393 190 l 393 300 l 463 300 l 463 271 q 450 126 463 190 q 396 25 438 63 q 267 -12 354 -12 m 96 875 l 215 1125 l 307 1125 l 425 875 l 372 875 l 261 1088 l 150 875 l 96 875 z "},"ċ":{"ha":521,"x_min":64,"x_max":463,"o":"m 267 -12 q 133 30 176 -12 q 77 143 90 72 q 64 301 64 214 l 64 490 q 82 680 64 608 q 144 783 100 751 q 267 815 189 815 q 392 781 350 815 q 449 688 435 747 q 463 556 463 629 l 463 524 l 393 524 l 393 556 q 380 681 393 638 q 339 742 367 725 q 267 760 311 760 q 185 734 213 760 q 147 651 157 708 q 138 499 138 594 l 138 290 q 163 101 138 160 q 268 43 189 43 q 349 67 322 43 q 385 140 376 90 q 393 269 393 190 l 393 300 l 463 300 l 463 271 q 450 126 463 190 q 396 25 438 63 q 267 -12 354 -12 m 219 939 l 219 1083 l 303 1083 l 303 939 l 219 939 z "},"d":{"ha":549,"x_min":64,"x_max":468,"o":"m 253 -12 q 106 67 149 -12 q 64 329 64 147 l 64 472 q 79 662 64 586 q 135 776 94 738 q 249 815 175 815 q 336 792 300 815 q 394 742 372 769 l 394 1125 l 468 1125 l 468 0 l 394 0 l 394 61 q 337 11 372 35 q 253 -12 301 -12 m 263 44 q 337 65 303 44 q 394 113 371 86 l 394 689 q 338 735 372 711 q 261 758 304 758 q 161 694 185 758 q 138 490 138 631 l 138 324 q 148 165 138 226 q 185 74 158 103 q 263 44 213 44 z "},"ð":{"ha":597,"x_min":76,"x_max":528,"o":"m 299 -15 q 168 24 217 -15 q 98 137 119 64 q 76 310 76 210 l 76 419 q 102 619 78 542 q 174 735 126 697 q 289 772 221 772 q 360 762 325 772 q 425 735 394 751 q 406 838 418 783 q 376 925 393 893 l 233 886 l 233 932 l 356 965 q 266 1058 326 1026 q 113 1099 206 1090 l 117 1150 q 296 1108 219 1144 q 415 985 372 1072 l 528 1014 l 528 968 l 435 943 q 466 847 447 915 q 499 679 485 778 q 514 461 514 581 l 514 344 q 495 147 514 228 q 430 26 476 67 q 299 -15 383 -15 m 301 44 q 392 79 363 44 q 432 190 422 114 q 442 393 442 267 q 440 466 442 421 q 436 558 439 511 q 431 640 433 606 q 428 679 429 675 q 369 703 400 693 q 306 714 339 714 q 219 680 254 714 q 167 568 185 646 q 149 357 149 490 q 165 181 149 250 q 215 78 181 111 q 301 44 249 44 z "},"ď":{"ha":619,"x_min":64,"x_max":633,"o":"m 253 -12 q 106 67 149 -12 q 64 329 64 147 l 64 472 q 79 662 64 586 q 135 776 94 738 q 249 815 175 815 q 336 792 300 815 q 394 742 372 769 l 394 1125 l 468 1125 l 468 0 l 394 0 l 394 61 q 337 11 372 35 q 253 -12 301 -12 m 263 44 q 337 65 303 44 q 394 113 371 86 l 394 689 q 338 735 372 711 q 261 758 304 758 q 161 694 185 758 q 138 490 138 631 l 138 324 q 148 165 138 226 q 185 74 158 103 q 263 44 213 44 m 556 831 l 536 863 q 583 913 572 889 q 594 979 594 938 l 544 979 l 544 1125 l 633 1125 l 633 994 q 617 894 633 931 q 556 831 600 858 z "},"đ":{"ha":569,"x_min":64,"x_max":547,"o":"m 253 -12 q 106 67 149 -12 q 64 329 64 147 l 64 472 q 79 662 64 586 q 135 776 94 738 q 249 815 175 815 q 336 792 300 815 q 394 742 372 769 l 394 958 l 278 958 l 278 1007 l 394 1007 l 394 1125 l 468 1125 l 468 1007 l 547 1007 l 547 958 l 468 958 l 468 0 l 394 0 l 394 61 q 337 11 372 35 q 253 -12 301 -12 m 263 44 q 337 65 303 44 q 394 113 371 86 l 394 689 q 338 735 372 711 q 261 758 304 758 q 161 694 185 758 q 138 490 138 631 l 138 324 q 148 165 138 226 q 185 74 158 103 q 263 44 213 44 z "},"ḋ":{"ha":549,"x_min":64,"x_max":474,"o":"m 253 -12 q 106 67 149 -12 q 64 329 64 147 l 64 472 q 79 662 64 586 q 135 776 94 738 q 249 815 175 815 q 336 792 300 815 q 394 742 372 769 l 394 1125 l 468 1125 l 468 0 l 394 0 l 394 61 q 337 11 372 35 q 253 -12 301 -12 m 263 44 q 337 65 303 44 q 394 113 371 86 l 394 689 q 338 735 372 711 q 261 758 304 758 q 161 694 185 758 q 138 490 138 631 l 138 324 q 148 165 138 226 q 185 74 158 103 q 263 44 213 44 m 390 1261 l 390 1406 l 474 1406 l 474 1261 l 390 1261 z "},"ǳ":{"ha":1000,"x_min":64,"x_max":958,"o":"m 253 -12 q 106 67 149 -12 q 64 329 64 147 l 64 472 q 79 662 64 586 q 135 776 94 738 q 249 815 175 815 q 336 792 300 815 q 394 742 372 769 l 394 1125 l 468 1125 l 468 0 l 394 0 l 394 61 q 337 11 372 35 q 253 -12 301 -12 m 263 44 q 337 65 303 44 q 394 113 371 86 l 394 689 q 338 735 372 711 q 261 758 304 758 q 161 694 185 758 q 138 490 138 631 l 138 324 q 148 165 138 226 q 185 74 158 103 q 263 44 213 44 m 593 0 l 593 54 l 883 746 l 624 746 l 624 803 l 958 803 l 958 754 l 671 57 l 954 57 l 954 0 l 593 0 z "},"ǆ":{"ha":1000,"x_min":64,"x_max":958,"o":"m 253 -12 q 106 67 149 -12 q 64 329 64 147 l 64 472 q 79 662 64 586 q 135 776 94 738 q 249 815 175 815 q 336 792 300 815 q 394 742 372 769 l 394 1125 l 468 1125 l 468 0 l 394 0 l 394 61 q 337 11 372 35 q 253 -12 301 -12 m 263 44 q 337 65 303 44 q 394 113 371 86 l 394 689 q 338 735 372 711 q 261 758 304 758 q 161 694 185 758 q 138 490 138 631 l 138 324 q 148 165 138 226 q 185 74 158 103 q 263 44 213 44 m 593 0 l 593 54 l 883 746 l 624 746 l 624 803 l 958 803 l 958 754 l 671 57 l 954 57 l 954 0 l 593 0 m 747 899 l 629 1125 l 692 1125 l 775 956 l 858 1125 l 921 1125 l 803 899 l 747 899 z "},"e":{"ha":526,"x_min":64,"x_max":467,"o":"m 268 -12 q 158 13 204 -12 q 88 106 113 39 q 64 297 64 174 l 64 511 q 89 703 64 638 q 160 792 114 768 q 269 815 207 815 q 388 783 344 815 q 449 681 431 751 q 467 496 467 611 l 467 419 l 138 419 l 138 292 q 151 142 138 196 q 193 65 164 88 q 268 43 222 43 q 326 53 297 43 q 375 99 356 63 q 394 211 394 135 l 394 271 l 467 271 l 467 218 q 424 51 467 115 q 268 -12 382 -12 m 138 464 l 394 464 l 394 526 q 387 651 394 599 q 353 731 379 703 q 269 760 326 760 q 195 741 225 760 q 151 672 165 722 q 138 525 138 621 l 138 464 z "},"é":{"ha":526,"x_min":64,"x_max":467,"o":"m 268 -12 q 158 13 204 -12 q 88 106 113 39 q 64 297 64 174 l 64 511 q 89 703 64 638 q 160 792 114 768 q 269 815 207 815 q 388 783 344 815 q 449 681 431 751 q 467 496 467 611 l 467 419 l 138 419 l 138 292 q 151 142 138 196 q 193 65 164 88 q 268 43 222 43 q 326 53 297 43 q 375 99 356 63 q 394 211 394 135 l 394 271 l 467 271 l 467 218 q 424 51 467 115 q 268 -12 382 -12 m 138 464 l 394 464 l 394 526 q 387 651 394 599 q 353 731 379 703 q 269 760 326 760 q 195 741 225 760 q 151 672 165 722 q 138 525 138 621 l 138 464 m 246 869 l 335 1139 l 410 1139 l 285 869 l 246 869 z "},"ĕ":{"ha":526,"x_min":64,"x_max":467,"o":"m 268 -12 q 158 13 204 -12 q 88 106 113 39 q 64 297 64 174 l 64 511 q 89 703 64 638 q 160 792 114 768 q 269 815 207 815 q 388 783 344 815 q 449 681 431 751 q 467 496 467 611 l 467 419 l 138 419 l 138 292 q 151 142 138 196 q 193 65 164 88 q 268 43 222 43 q 326 53 297 43 q 375 99 356 63 q 394 211 394 135 l 394 271 l 467 271 l 467 218 q 424 51 467 115 q 268 -12 382 -12 m 138 464 l 394 464 l 394 526 q 387 651 394 599 q 353 731 379 703 q 269 760 326 760 q 195 741 225 760 q 151 672 165 722 q 138 525 138 621 l 138 464 m 263 888 q 151 925 193 888 q 106 1042 108 963 l 157 1042 q 189 958 158 982 q 263 935 219 935 q 336 958 306 935 q 371 1042 367 982 l 422 1042 q 376 925 419 963 q 263 888 332 888 z "},"ě":{"ha":526,"x_min":64,"x_max":467,"o":"m 268 -12 q 158 13 204 -12 q 88 106 113 39 q 64 297 64 174 l 64 511 q 89 703 64 638 q 160 792 114 768 q 269 815 207 815 q 388 783 344 815 q 449 681 431 751 q 467 496 467 611 l 467 419 l 138 419 l 138 292 q 151 142 138 196 q 193 65 164 88 q 268 43 222 43 q 326 53 297 43 q 375 99 356 63 q 394 211 394 135 l 394 271 l 467 271 l 467 218 q 424 51 467 115 q 268 -12 382 -12 m 138 464 l 394 464 l 394 526 q 387 651 394 599 q 353 731 379 703 q 269 760 326 760 q 195 741 225 760 q 151 672 165 722 q 138 525 138 621 l 138 464 m 236 899 l 118 1125 l 181 1125 l 264 956 l 347 1125 l 410 1125 l 292 899 l 236 899 z "},"ê":{"ha":526,"x_min":64,"x_max":467,"o":"m 268 -12 q 158 13 204 -12 q 88 106 113 39 q 64 297 64 174 l 64 511 q 89 703 64 638 q 160 792 114 768 q 269 815 207 815 q 388 783 344 815 q 449 681 431 751 q 467 496 467 611 l 467 419 l 138 419 l 138 292 q 151 142 138 196 q 193 65 164 88 q 268 43 222 43 q 326 53 297 43 q 375 99 356 63 q 394 211 394 135 l 394 271 l 467 271 l 467 218 q 424 51 467 115 q 268 -12 382 -12 m 138 464 l 394 464 l 394 526 q 387 651 394 599 q 353 731 379 703 q 269 760 326 760 q 195 741 225 760 q 151 672 165 722 q 138 525 138 621 l 138 464 m 99 875 l 218 1125 l 310 1125 l 428 875 l 375 875 l 264 1088 l 153 875 l 99 875 z "},"ế":{"ha":526,"x_min":64,"x_max":553,"o":"m 268 -12 q 158 13 204 -12 q 88 106 113 39 q 64 297 64 174 l 64 511 q 89 703 64 638 q 160 792 114 768 q 269 815 207 815 q 388 783 344 815 q 449 681 431 751 q 467 496 467 611 l 467 419 l 138 419 l 138 292 q 151 142 138 196 q 193 65 164 88 q 268 43 222 43 q 326 53 297 43 q 375 99 356 63 q 394 211 394 135 l 394 271 l 467 271 l 467 218 q 424 51 467 115 q 268 -12 382 -12 m 138 464 l 394 464 l 394 526 q 387 651 394 599 q 353 731 379 703 q 269 760 326 760 q 195 741 225 760 q 151 672 165 722 q 138 525 138 621 l 138 464 m 99 875 l 218 1069 l 310 1069 l 428 875 l 375 875 l 264 1035 l 153 875 l 99 875 m 407 999 l 481 1158 l 553 1158 l 460 999 l 407 999 z "},"ệ":{"ha":526,"x_min":64,"x_max":467,"o":"m 268 -12 q 158 13 204 -12 q 88 106 113 39 q 64 297 64 174 l 64 511 q 89 703 64 638 q 160 792 114 768 q 269 815 207 815 q 388 783 344 815 q 449 681 431 751 q 467 496 467 611 l 467 419 l 138 419 l 138 292 q 151 142 138 196 q 193 65 164 88 q 268 43 222 43 q 326 53 297 43 q 375 99 356 63 q 394 211 394 135 l 394 271 l 467 271 l 467 218 q 424 51 467 115 q 268 -12 382 -12 m 138 464 l 394 464 l 394 526 q 387 651 394 599 q 353 731 379 703 q 269 760 326 760 q 195 741 225 760 q 151 672 165 722 q 138 525 138 621 l 138 464 m 222 -187 l 222 -83 l 306 -83 l 306 -187 l 222 -187 m 99 875 l 218 1069 l 310 1069 l 428 875 l 375 875 l 264 1035 l 153 875 l 99 875 z "},"ề":{"ha":526,"x_min":64,"x_max":496,"o":"m 268 -12 q 158 13 204 -12 q 88 106 113 39 q 64 297 64 174 l 64 511 q 89 703 64 638 q 160 792 114 768 q 269 815 207 815 q 388 783 344 815 q 449 681 431 751 q 467 496 467 611 l 467 419 l 138 419 l 138 292 q 151 142 138 196 q 193 65 164 88 q 268 43 222 43 q 326 53 297 43 q 375 99 356 63 q 394 211 394 135 l 394 271 l 467 271 l 467 218 q 424 51 467 115 q 268 -12 382 -12 m 138 464 l 394 464 l 394 526 q 387 651 394 599 q 353 731 379 703 q 269 760 326 760 q 195 741 225 760 q 151 672 165 722 q 138 525 138 621 l 138 464 m 99 875 l 218 1069 l 310 1069 l 428 875 l 375 875 l 264 1035 l 153 875 l 99 875 m 443 999 l 350 1158 l 422 1158 l 496 999 l 443 999 z "},"ể":{"ha":526,"x_min":64,"x_max":517,"o":"m 268 -12 q 158 13 204 -12 q 88 106 113 39 q 64 297 64 174 l 64 511 q 89 703 64 638 q 160 792 114 768 q 269 815 207 815 q 388 783 344 815 q 449 681 431 751 q 467 496 467 611 l 467 419 l 138 419 l 138 292 q 151 142 138 196 q 193 65 164 88 q 268 43 222 43 q 326 53 297 43 q 375 99 356 63 q 394 211 394 135 l 394 271 l 467 271 l 467 218 q 424 51 467 115 q 268 -12 382 -12 m 138 464 l 394 464 l 394 526 q 387 651 394 599 q 353 731 379 703 q 269 760 326 760 q 195 741 225 760 q 151 672 165 722 q 138 525 138 621 l 138 464 m 426 997 l 396 1029 q 444 1065 428 1047 q 460 1104 460 1082 q 444 1140 460 1128 q 400 1151 429 1151 q 369 1149 385 1151 q 338 1142 354 1147 l 338 1179 q 376 1189 357 1186 q 414 1192 396 1192 q 490 1170 463 1192 q 517 1108 517 1149 q 490 1042 517 1067 q 426 997 463 1017 m 99 875 l 218 1069 l 310 1069 l 428 875 l 375 875 l 264 1035 l 153 875 l 99 875 z "},"ễ":{"ha":526,"x_min":64,"x_max":467,"o":"m 268 -12 q 158 13 204 -12 q 88 106 113 39 q 64 297 64 174 l 64 511 q 89 703 64 638 q 160 792 114 768 q 269 815 207 815 q 388 783 344 815 q 449 681 431 751 q 467 496 467 611 l 467 419 l 138 419 l 138 292 q 151 142 138 196 q 193 65 164 88 q 268 43 222 43 q 326 53 297 43 q 375 99 356 63 q 394 211 394 135 l 394 271 l 467 271 l 467 218 q 424 51 467 115 q 268 -12 382 -12 m 138 464 l 394 464 l 394 526 q 387 651 394 599 q 353 731 379 703 q 269 760 326 760 q 195 741 225 760 q 151 672 165 722 q 138 525 138 621 l 138 464 m 99 875 l 218 1069 l 310 1069 l 428 875 l 375 875 l 264 1035 l 153 875 l 99 875 m 336 1139 q 281 1156 306 1139 q 236 1188 257 1172 q 193 1204 215 1204 q 162 1190 174 1204 q 150 1150 150 1176 l 100 1150 q 106 1188 100 1163 q 131 1234 113 1213 q 186 1256 149 1256 q 244 1240 219 1256 q 291 1207 269 1224 q 335 1190 313 1190 q 368 1204 357 1190 q 381 1253 379 1218 l 428 1253 q 422 1210 428 1238 q 397 1160 417 1182 q 336 1139 378 1139 z "},"ȅ":{"ha":526,"x_min":49,"x_max":467,"o":"m 268 -12 q 158 13 204 -12 q 88 106 113 39 q 64 297 64 174 l 64 511 q 89 703 64 638 q 160 792 114 768 q 269 815 207 815 q 388 783 344 815 q 449 681 431 751 q 467 496 467 611 l 467 419 l 138 419 l 138 292 q 151 142 138 196 q 193 65 164 88 q 268 43 222 43 q 326 53 297 43 q 375 99 356 63 q 394 211 394 135 l 394 271 l 467 271 l 467 218 q 424 51 467 115 q 268 -12 382 -12 m 138 464 l 394 464 l 394 526 q 387 651 394 599 q 353 731 379 703 q 269 760 326 760 q 195 741 225 760 q 151 672 165 722 q 138 525 138 621 l 138 464 m 168 921 l 49 1125 l 131 1125 l 208 921 l 168 921 m 304 921 l 211 1125 l 283 1125 l 342 921 l 304 921 z "},"ë":{"ha":526,"x_min":64,"x_max":467,"o":"m 268 -12 q 158 13 204 -12 q 88 106 113 39 q 64 297 64 174 l 64 511 q 89 703 64 638 q 160 792 114 768 q 269 815 207 815 q 388 783 344 815 q 449 681 431 751 q 467 496 467 611 l 467 419 l 138 419 l 138 292 q 151 142 138 196 q 193 65 164 88 q 268 43 222 43 q 326 53 297 43 q 375 99 356 63 q 394 211 394 135 l 394 271 l 467 271 l 467 218 q 424 51 467 115 q 268 -12 382 -12 m 138 464 l 394 464 l 394 526 q 387 651 394 599 q 353 731 379 703 q 269 760 326 760 q 195 741 225 760 q 151 672 165 722 q 138 525 138 621 l 138 464 m 338 1019 l 338 1125 l 415 1125 l 415 1019 l 338 1019 m 115 1019 l 115 1125 l 192 1125 l 192 1019 l 115 1019 z "},"ė":{"ha":526,"x_min":64,"x_max":467,"o":"m 268 -12 q 158 13 204 -12 q 88 106 113 39 q 64 297 64 174 l 64 511 q 89 703 64 638 q 160 792 114 768 q 269 815 207 815 q 388 783 344 815 q 449 681 431 751 q 467 496 467 611 l 467 419 l 138 419 l 138 292 q 151 142 138 196 q 193 65 164 88 q 268 43 222 43 q 326 53 297 43 q 375 99 356 63 q 394 211 394 135 l 394 271 l 467 271 l 467 218 q 424 51 467 115 q 268 -12 382 -12 m 138 464 l 394 464 l 394 526 q 387 651 394 599 q 353 731 379 703 q 269 760 326 760 q 195 741 225 760 q 151 672 165 722 q 138 525 138 621 l 138 464 m 222 939 l 222 1083 l 306 1083 l 306 939 l 222 939 z "},"ẹ":{"ha":526,"x_min":64,"x_max":467,"o":"m 268 -12 q 158 13 204 -12 q 88 106 113 39 q 64 297 64 174 l 64 511 q 89 703 64 638 q 160 792 114 768 q 269 815 207 815 q 388 783 344 815 q 449 681 431 751 q 467 496 467 611 l 467 419 l 138 419 l 138 292 q 151 142 138 196 q 193 65 164 88 q 268 43 222 43 q 326 53 297 43 q 375 99 356 63 q 394 211 394 135 l 394 271 l 467 271 l 467 218 q 424 51 467 115 q 268 -12 382 -12 m 138 464 l 394 464 l 394 526 q 387 651 394 599 q 353 731 379 703 q 269 760 326 760 q 195 741 225 760 q 151 672 165 722 q 138 525 138 621 l 138 464 m 222 -187 l 222 -83 l 306 -83 l 306 -187 l 222 -187 z "},"è":{"ha":526,"x_min":64,"x_max":467,"o":"m 268 -12 q 158 13 204 -12 q 88 106 113 39 q 64 297 64 174 l 64 511 q 89 703 64 638 q 160 792 114 768 q 269 815 207 815 q 388 783 344 815 q 449 681 431 751 q 467 496 467 611 l 467 419 l 138 419 l 138 292 q 151 142 138 196 q 193 65 164 88 q 268 43 222 43 q 326 53 297 43 q 375 99 356 63 q 394 211 394 135 l 394 271 l 467 271 l 467 218 q 424 51 467 115 q 268 -12 382 -12 m 138 464 l 394 464 l 394 526 q 387 651 394 599 q 353 731 379 703 q 269 760 326 760 q 195 741 225 760 q 151 672 165 722 q 138 525 138 621 l 138 464 m 243 869 l 131 1139 l 206 1139 l 281 869 l 243 869 z "},"ẻ":{"ha":526,"x_min":64,"x_max":467,"o":"m 268 -12 q 158 13 204 -12 q 88 106 113 39 q 64 297 64 174 l 64 511 q 89 703 64 638 q 160 792 114 768 q 269 815 207 815 q 388 783 344 815 q 449 681 431 751 q 467 496 467 611 l 467 419 l 138 419 l 138 292 q 151 142 138 196 q 193 65 164 88 q 268 43 222 43 q 326 53 297 43 q 375 99 356 63 q 394 211 394 135 l 394 271 l 467 271 l 467 218 q 424 51 467 115 q 268 -12 382 -12 m 138 464 l 394 464 l 394 526 q 387 651 394 599 q 353 731 379 703 q 269 760 326 760 q 195 741 225 760 q 151 672 165 722 q 138 525 138 621 l 138 464 m 263 917 l 232 949 q 281 984 264 967 q 299 1024 299 1001 q 283 1060 299 1049 q 235 1071 268 1071 q 206 1069 221 1071 q 174 1064 190 1067 l 174 1103 q 247 1111 211 1111 q 307 1102 283 1111 q 343 1074 331 1093 q 356 1028 356 1056 q 343 980 356 1000 q 309 944 331 960 q 263 917 288 929 z "},"ȇ":{"ha":526,"x_min":64,"x_max":467,"o":"m 268 -12 q 158 13 204 -12 q 88 106 113 39 q 64 297 64 174 l 64 511 q 89 703 64 638 q 160 792 114 768 q 269 815 207 815 q 388 783 344 815 q 449 681 431 751 q 467 496 467 611 l 467 419 l 138 419 l 138 292 q 151 142 138 196 q 193 65 164 88 q 268 43 222 43 q 326 53 297 43 q 375 99 356 63 q 394 211 394 135 l 394 271 l 467 271 l 467 218 q 424 51 467 115 q 268 -12 382 -12 m 138 464 l 394 464 l 394 526 q 387 651 394 599 q 353 731 379 703 q 269 760 326 760 q 195 741 225 760 q 151 672 165 722 q 138 525 138 621 l 138 464 m 106 971 q 128 1058 108 1024 q 183 1108 149 1092 q 264 1125 218 1125 q 346 1108 311 1125 q 401 1058 381 1092 q 422 971 421 1024 l 371 971 q 339 1053 369 1031 q 264 1076 308 1076 q 190 1053 221 1076 q 157 971 160 1031 l 106 971 z "},"ē":{"ha":526,"x_min":64,"x_max":467,"o":"m 268 -12 q 158 13 204 -12 q 88 106 113 39 q 64 297 64 174 l 64 511 q 89 703 64 638 q 160 792 114 768 q 269 815 207 815 q 388 783 344 815 q 449 681 431 751 q 467 496 467 611 l 467 419 l 138 419 l 138 292 q 151 142 138 196 q 193 65 164 88 q 268 43 222 43 q 326 53 297 43 q 375 99 356 63 q 394 211 394 135 l 394 271 l 467 271 l 467 218 q 424 51 467 115 q 268 -12 382 -12 m 138 464 l 394 464 l 394 526 q 387 651 394 599 q 353 731 379 703 q 269 760 326 760 q 195 741 225 760 q 151 672 165 722 q 138 525 138 621 l 138 464 m 144 972 l 144 1028 l 383 1028 l 383 972 l 144 972 z "},"ę":{"ha":526,"x_min":64,"x_max":467,"o":"m 268 -12 q 158 13 204 -12 q 88 106 113 39 q 64 297 64 174 l 64 511 q 89 703 64 638 q 160 792 114 768 q 269 815 207 815 q 388 783 344 815 q 449 681 431 751 q 467 496 467 611 l 467 419 l 138 419 l 138 292 q 151 142 138 196 q 193 65 164 88 q 268 43 222 43 q 326 53 297 43 q 375 99 356 63 q 394 211 394 135 l 394 271 l 467 271 l 467 218 q 424 51 467 115 q 268 -12 382 -12 m 138 464 l 394 464 l 394 526 q 387 651 394 599 q 353 731 379 703 q 269 760 326 760 q 195 741 225 760 q 151 672 165 722 q 138 525 138 621 l 138 464 m 329 -265 q 273 -258 299 -265 q 228 -236 247 -250 q 200 -201 210 -222 q 190 -154 190 -181 q 205 -91 190 -121 q 244 -34 219 -61 q 300 14 269 -7 l 342 14 q 294 -40 315 -12 q 261 -93 274 -67 q 249 -149 249 -119 q 278 -205 249 -187 q 349 -222 307 -222 q 362 -222 356 -222 q 374 -219 368 -221 l 365 -262 q 350 -265 360 -264 q 329 -265 340 -265 z "},"ẽ":{"ha":526,"x_min":64,"x_max":467,"o":"m 268 -12 q 158 13 204 -12 q 88 106 113 39 q 64 297 64 174 l 64 511 q 89 703 64 638 q 160 792 114 768 q 269 815 207 815 q 388 783 344 815 q 449 681 431 751 q 467 496 467 611 l 467 419 l 138 419 l 138 292 q 151 142 138 196 q 193 65 164 88 q 268 43 222 43 q 326 53 297 43 q 375 99 356 63 q 394 211 394 135 l 394 271 l 467 271 l 467 218 q 424 51 467 115 q 268 -12 382 -12 m 138 464 l 394 464 l 394 526 q 387 651 394 599 q 353 731 379 703 q 269 760 326 760 q 195 741 225 760 q 151 672 165 722 q 138 525 138 621 l 138 464 m 336 954 q 281 971 306 954 q 236 1003 257 988 q 193 1019 215 1019 q 162 1006 174 1019 q 150 965 150 992 l 100 965 q 106 1003 100 978 q 131 1049 113 1028 q 186 1071 149 1071 q 244 1055 219 1071 q 291 1022 269 1039 q 335 1006 313 1006 q 368 1019 357 1006 q 381 1068 379 1033 l 428 1068 q 422 1025 428 1053 q 397 976 417 997 q 336 954 378 954 z "},"ə":{"ha":526,"x_min":60,"x_max":463,"o":"m 257 -15 q 139 17 182 -15 q 78 119 96 49 q 60 304 60 189 l 60 381 l 389 381 l 389 511 q 376 662 389 608 q 334 738 363 715 q 258 760 306 760 q 200 750 229 760 q 151 705 171 740 q 132 592 132 669 l 132 532 l 60 532 l 60 585 q 102 751 60 688 q 258 815 144 815 q 368 790 322 815 q 438 697 414 764 q 463 506 463 631 l 463 289 q 438 97 463 163 q 367 8 413 32 q 257 -15 321 -15 m 257 40 q 332 59 303 40 q 375 129 361 78 q 389 275 389 181 l 389 336 l 132 336 l 132 274 q 140 150 132 203 q 174 69 147 97 q 257 40 201 40 z "},"ʒ":{"ha":556,"x_min":21,"x_max":518,"o":"m 257 -272 q 120 -239 172 -272 q 44 -146 68 -206 q 21 -7 21 -86 l 21 14 l 90 14 q 90 3 90 13 q 90 -8 90 -6 q 129 -159 90 -106 q 257 -212 168 -212 q 351 -190 310 -212 q 417 -113 393 -168 q 442 42 442 -58 q 424 192 442 129 q 367 290 407 256 q 261 324 328 324 l 122 324 l 122 381 l 424 796 l 457 746 l 68 746 l 68 803 l 469 803 l 469 754 l 188 364 l 179 389 l 243 389 q 403 348 343 389 q 491 230 464 307 q 518 43 518 153 q 492 -120 518 -49 q 408 -232 465 -192 q 257 -272 350 -272 z "},"ǯ":{"ha":556,"x_min":21,"x_max":518,"o":"m 257 -272 q 120 -239 172 -272 q 44 -146 68 -206 q 21 -7 21 -86 l 21 14 l 90 14 q 90 3 90 13 q 90 -8 90 -6 q 129 -159 90 -106 q 257 -212 168 -212 q 351 -190 310 -212 q 417 -113 393 -168 q 442 42 442 -58 q 424 192 442 129 q 367 290 407 256 q 261 324 328 324 l 122 324 l 122 381 l 424 796 l 457 746 l 68 746 l 68 803 l 469 803 l 469 754 l 188 364 l 179 389 l 243 389 q 403 348 343 389 q 491 230 464 307 q 518 43 518 153 q 492 -120 518 -49 q 408 -232 465 -192 q 257 -272 350 -272 m 250 899 l 132 1125 l 194 1125 l 278 956 l 361 1125 l 424 1125 l 306 899 l 250 899 z "},"f":{"ha":356,"x_min":24,"x_max":340,"o":"m 132 0 l 132 751 l 24 751 l 24 803 l 132 803 l 132 911 q 140 1003 132 963 q 175 1069 147 1044 q 263 1093 203 1093 q 300 1091 281 1093 q 336 1083 319 1089 l 336 1028 q 306 1034 322 1032 q 278 1036 290 1036 q 218 1007 231 1036 q 206 913 206 978 l 206 803 l 340 803 l 340 751 l 206 751 l 206 0 l 132 0 z "},"ḟ":{"ha":356,"x_min":24,"x_max":340,"o":"m 132 0 l 132 751 l 24 751 l 24 803 l 132 803 l 132 911 q 140 1003 132 963 q 175 1069 147 1044 q 263 1093 203 1093 q 300 1091 281 1093 q 336 1083 319 1089 l 336 1028 q 306 1034 322 1032 q 278 1036 290 1036 q 218 1007 231 1036 q 206 913 206 978 l 206 803 l 340 803 l 340 751 l 206 751 l 206 0 l 132 0 m 194 1219 l 194 1364 l 278 1364 l 278 1219 l 194 1219 z "},"g":{"ha":596,"x_min":21,"x_max":611,"o":"m 281 -272 q 139 -257 197 -272 q 51 -210 81 -242 q 21 -131 21 -178 q 42 -53 21 -89 q 97 10 64 -18 q 164 57 129 39 q 90 91 113 71 q 67 146 67 111 q 94 219 67 185 q 167 290 122 253 q 84 399 107 333 q 61 539 61 464 q 84 669 61 606 q 156 774 107 732 q 285 815 206 815 q 399 782 358 815 q 463 708 440 749 q 507 763 476 735 q 571 803 538 792 l 590 810 l 611 754 q 563 736 588 749 q 517 708 538 724 q 482 674 496 692 q 501 605 493 647 q 508 538 508 563 q 486 394 508 458 q 415 293 464 331 q 288 256 367 256 q 241 260 265 256 q 201 269 217 264 q 153 215 175 243 q 131 160 131 186 q 147 126 131 138 q 197 108 163 115 l 328 85 q 483 25 426 67 q 539 -94 539 -17 q 503 -197 539 -157 q 408 -254 467 -236 q 281 -272 350 -272 m 281 -212 q 419 -185 363 -212 q 476 -96 476 -157 q 463 -43 476 -67 q 413 -1 450 -19 q 300 29 375 17 l 213 44 q 159 8 189 31 q 107 -44 129 -14 q 85 -112 85 -74 q 135 -189 85 -165 q 281 -212 186 -212 m 288 310 q 369 333 339 310 q 415 391 400 356 q 435 466 431 426 q 440 539 440 506 q 434 609 440 571 q 411 682 428 647 q 365 739 394 717 q 286 761 335 761 q 207 738 238 761 q 159 678 176 714 q 135 604 142 642 q 129 539 129 567 q 135 467 129 507 q 157 392 140 428 q 205 333 174 356 q 288 310 236 310 z "},"ǵ":{"ha":596,"x_min":21,"x_max":611,"o":"m 281 -272 q 139 -257 197 -272 q 51 -210 81 -242 q 21 -131 21 -178 q 42 -53 21 -89 q 97 10 64 -18 q 164 57 129 39 q 90 91 113 71 q 67 146 67 111 q 94 219 67 185 q 167 290 122 253 q 84 399 107 333 q 61 539 61 464 q 84 669 61 606 q 156 774 107 732 q 285 815 206 815 q 399 782 358 815 q 463 708 440 749 q 507 763 476 735 q 571 803 538 792 l 590 810 l 611 754 q 563 736 588 749 q 517 708 538 724 q 482 674 496 692 q 501 605 493 647 q 508 538 508 563 q 486 394 508 458 q 415 293 464 331 q 288 256 367 256 q 241 260 265 256 q 201 269 217 264 q 153 215 175 243 q 131 160 131 186 q 147 126 131 138 q 197 108 163 115 l 328 85 q 483 25 426 67 q 539 -94 539 -17 q 503 -197 539 -157 q 408 -254 467 -236 q 281 -272 350 -272 m 281 -212 q 419 -185 363 -212 q 476 -96 476 -157 q 463 -43 476 -67 q 413 -1 450 -19 q 300 29 375 17 l 213 44 q 159 8 189 31 q 107 -44 129 -14 q 85 -112 85 -74 q 135 -189 85 -165 q 281 -212 186 -212 m 288 310 q 369 333 339 310 q 415 391 400 356 q 435 466 431 426 q 440 539 440 506 q 434 609 440 571 q 411 682 428 647 q 365 739 394 717 q 286 761 335 761 q 207 738 238 761 q 159 678 176 714 q 135 604 142 642 q 129 539 129 567 q 135 467 129 507 q 157 392 140 428 q 205 333 174 356 q 288 310 236 310 m 281 869 l 369 1139 l 444 1139 l 319 869 l 281 869 z "},"ğ":{"ha":596,"x_min":21,"x_max":611,"o":"m 281 -272 q 139 -257 197 -272 q 51 -210 81 -242 q 21 -131 21 -178 q 42 -53 21 -89 q 97 10 64 -18 q 164 57 129 39 q 90 91 113 71 q 67 146 67 111 q 94 219 67 185 q 167 290 122 253 q 84 399 107 333 q 61 539 61 464 q 84 669 61 606 q 156 774 107 732 q 285 815 206 815 q 399 782 358 815 q 463 708 440 749 q 507 763 476 735 q 571 803 538 792 l 590 810 l 611 754 q 563 736 588 749 q 517 708 538 724 q 482 674 496 692 q 501 605 493 647 q 508 538 508 563 q 486 394 508 458 q 415 293 464 331 q 288 256 367 256 q 241 260 265 256 q 201 269 217 264 q 153 215 175 243 q 131 160 131 186 q 147 126 131 138 q 197 108 163 115 l 328 85 q 483 25 426 67 q 539 -94 539 -17 q 503 -197 539 -157 q 408 -254 467 -236 q 281 -272 350 -272 m 281 -212 q 419 -185 363 -212 q 476 -96 476 -157 q 463 -43 476 -67 q 413 -1 450 -19 q 300 29 375 17 l 213 44 q 159 8 189 31 q 107 -44 129 -14 q 85 -112 85 -74 q 135 -189 85 -165 q 281 -212 186 -212 m 288 310 q 369 333 339 310 q 415 391 400 356 q 435 466 431 426 q 440 539 440 506 q 434 609 440 571 q 411 682 428 647 q 365 739 394 717 q 286 761 335 761 q 207 738 238 761 q 159 678 176 714 q 135 604 142 642 q 129 539 129 567 q 135 467 129 507 q 157 392 140 428 q 205 333 174 356 q 288 310 236 310 m 297 888 q 185 925 228 888 q 140 1042 143 963 l 192 1042 q 224 958 193 982 q 297 935 254 935 q 371 958 340 935 q 406 1042 401 982 l 457 1042 q 410 925 454 963 q 297 888 367 888 z "},"ǧ":{"ha":596,"x_min":21,"x_max":611,"o":"m 281 -272 q 139 -257 197 -272 q 51 -210 81 -242 q 21 -131 21 -178 q 42 -53 21 -89 q 97 10 64 -18 q 164 57 129 39 q 90 91 113 71 q 67 146 67 111 q 94 219 67 185 q 167 290 122 253 q 84 399 107 333 q 61 539 61 464 q 84 669 61 606 q 156 774 107 732 q 285 815 206 815 q 399 782 358 815 q 463 708 440 749 q 507 763 476 735 q 571 803 538 792 l 590 810 l 611 754 q 563 736 588 749 q 517 708 538 724 q 482 674 496 692 q 501 605 493 647 q 508 538 508 563 q 486 394 508 458 q 415 293 464 331 q 288 256 367 256 q 241 260 265 256 q 201 269 217 264 q 153 215 175 243 q 131 160 131 186 q 147 126 131 138 q 197 108 163 115 l 328 85 q 483 25 426 67 q 539 -94 539 -17 q 503 -197 539 -157 q 408 -254 467 -236 q 281 -272 350 -272 m 281 -212 q 419 -185 363 -212 q 476 -96 476 -157 q 463 -43 476 -67 q 413 -1 450 -19 q 300 29 375 17 l 213 44 q 159 8 189 31 q 107 -44 129 -14 q 85 -112 85 -74 q 135 -189 85 -165 q 281 -212 186 -212 m 288 310 q 369 333 339 310 q 415 391 400 356 q 435 466 431 426 q 440 539 440 506 q 434 609 440 571 q 411 682 428 647 q 365 739 394 717 q 286 761 335 761 q 207 738 238 761 q 159 678 176 714 q 135 604 142 642 q 129 539 129 567 q 135 467 129 507 q 157 392 140 428 q 205 333 174 356 q 288 310 236 310 m 271 899 l 153 1125 l 215 1125 l 299 956 l 382 1125 l 444 1125 l 326 899 l 271 899 z "},"ĝ":{"ha":596,"x_min":21,"x_max":611,"o":"m 281 -272 q 139 -257 197 -272 q 51 -210 81 -242 q 21 -131 21 -178 q 42 -53 21 -89 q 97 10 64 -18 q 164 57 129 39 q 90 91 113 71 q 67 146 67 111 q 94 219 67 185 q 167 290 122 253 q 84 399 107 333 q 61 539 61 464 q 84 669 61 606 q 156 774 107 732 q 285 815 206 815 q 399 782 358 815 q 463 708 440 749 q 507 763 476 735 q 571 803 538 792 l 590 810 l 611 754 q 563 736 588 749 q 517 708 538 724 q 482 674 496 692 q 501 605 493 647 q 508 538 508 563 q 486 394 508 458 q 415 293 464 331 q 288 256 367 256 q 241 260 265 256 q 201 269 217 264 q 153 215 175 243 q 131 160 131 186 q 147 126 131 138 q 197 108 163 115 l 328 85 q 483 25 426 67 q 539 -94 539 -17 q 503 -197 539 -157 q 408 -254 467 -236 q 281 -272 350 -272 m 281 -212 q 419 -185 363 -212 q 476 -96 476 -157 q 463 -43 476 -67 q 413 -1 450 -19 q 300 29 375 17 l 213 44 q 159 8 189 31 q 107 -44 129 -14 q 85 -112 85 -74 q 135 -189 85 -165 q 281 -212 186 -212 m 288 310 q 369 333 339 310 q 415 391 400 356 q 435 466 431 426 q 440 539 440 506 q 434 609 440 571 q 411 682 428 647 q 365 739 394 717 q 286 761 335 761 q 207 738 238 761 q 159 678 176 714 q 135 604 142 642 q 129 539 129 567 q 135 467 129 507 q 157 392 140 428 q 205 333 174 356 q 288 310 236 310 m 133 875 l 253 1125 l 344 1125 l 463 875 l 410 875 l 299 1088 l 188 875 l 133 875 z "},"ģ":{"ha":596,"x_min":21,"x_max":611,"o":"m 331 1139 l 349 1110 q 302 1051 313 1086 q 292 993 292 1015 l 340 993 l 340 889 l 250 889 l 250 975 q 267 1078 250 1040 q 331 1139 283 1117 m 281 -272 q 139 -257 197 -272 q 51 -210 81 -242 q 21 -131 21 -178 q 42 -53 21 -89 q 97 10 64 -18 q 164 57 129 39 q 90 91 113 71 q 67 146 67 111 q 94 219 67 185 q 167 290 122 253 q 84 399 107 333 q 61 539 61 464 q 84 669 61 606 q 156 774 107 732 q 285 815 206 815 q 399 782 358 815 q 463 708 440 749 q 507 763 476 735 q 571 803 538 792 l 590 810 l 611 754 q 563 736 588 749 q 517 708 538 724 q 482 674 496 692 q 501 605 493 647 q 508 538 508 563 q 486 394 508 458 q 415 293 464 331 q 288 256 367 256 q 241 260 265 256 q 201 269 217 264 q 153 215 175 243 q 131 160 131 186 q 147 126 131 138 q 197 108 163 115 l 328 85 q 483 25 426 67 q 539 -94 539 -17 q 503 -197 539 -157 q 408 -254 467 -236 q 281 -272 350 -272 m 281 -212 q 419 -185 363 -212 q 476 -96 476 -157 q 463 -43 476 -67 q 413 -1 450 -19 q 300 29 375 17 l 213 44 q 159 8 189 31 q 107 -44 129 -14 q 85 -112 85 -74 q 135 -189 85 -165 q 281 -212 186 -212 m 288 310 q 369 333 339 310 q 415 391 400 356 q 435 466 431 426 q 440 539 440 506 q 434 609 440 571 q 411 682 428 647 q 365 739 394 717 q 286 761 335 761 q 207 738 238 761 q 159 678 176 714 q 135 604 142 642 q 129 539 129 567 q 135 467 129 507 q 157 392 140 428 q 205 333 174 356 q 288 310 236 310 z "},"ġ":{"ha":596,"x_min":21,"x_max":611,"o":"m 281 -272 q 139 -257 197 -272 q 51 -210 81 -242 q 21 -131 21 -178 q 42 -53 21 -89 q 97 10 64 -18 q 164 57 129 39 q 90 91 113 71 q 67 146 67 111 q 94 219 67 185 q 167 290 122 253 q 84 399 107 333 q 61 539 61 464 q 84 669 61 606 q 156 774 107 732 q 285 815 206 815 q 399 782 358 815 q 463 708 440 749 q 507 763 476 735 q 571 803 538 792 l 590 810 l 611 754 q 563 736 588 749 q 517 708 538 724 q 482 674 496 692 q 501 605 493 647 q 508 538 508 563 q 486 394 508 458 q 415 293 464 331 q 288 256 367 256 q 241 260 265 256 q 201 269 217 264 q 153 215 175 243 q 131 160 131 186 q 147 126 131 138 q 197 108 163 115 l 328 85 q 483 25 426 67 q 539 -94 539 -17 q 503 -197 539 -157 q 408 -254 467 -236 q 281 -272 350 -272 m 281 -212 q 419 -185 363 -212 q 476 -96 476 -157 q 463 -43 476 -67 q 413 -1 450 -19 q 300 29 375 17 l 213 44 q 159 8 189 31 q 107 -44 129 -14 q 85 -112 85 -74 q 135 -189 85 -165 q 281 -212 186 -212 m 288 310 q 369 333 339 310 q 415 391 400 356 q 435 466 431 426 q 440 539 440 506 q 434 609 440 571 q 411 682 428 647 q 365 739 394 717 q 286 761 335 761 q 207 738 238 761 q 159 678 176 714 q 135 604 142 642 q 129 539 129 567 q 135 467 129 507 q 157 392 140 428 q 205 333 174 356 q 288 310 236 310 m 257 939 l 257 1083 l 340 1083 l 340 939 l 257 939 z "},"ǥ":{"ha":596,"x_min":-26,"x_max":611,"o":"m 281 -272 q 139 -257 197 -272 q 51 -210 81 -242 q 21 -131 21 -178 q 42 -53 21 -89 q 97 10 64 -18 q 164 57 129 39 q 90 91 113 71 q 67 146 67 111 q 94 219 67 185 q 167 290 122 253 q 84 399 107 333 q 61 539 61 464 q 84 669 61 606 q 156 774 107 732 q 285 815 206 815 q 399 782 358 815 q 463 708 440 749 q 507 763 476 735 q 571 803 538 792 l 590 810 l 611 754 q 563 736 588 749 q 517 708 538 724 q 482 674 496 692 q 501 605 493 647 q 508 538 508 563 q 486 394 508 458 q 415 293 464 331 q 288 256 367 256 q 241 260 265 256 q 201 269 217 264 q 153 215 175 243 q 131 160 131 186 q 147 126 131 138 q 197 108 163 115 l 328 85 q 483 25 426 67 q 539 -94 539 -17 q 503 -197 539 -157 q 408 -254 467 -236 q 281 -272 350 -272 m -26 -110 l -26 -58 l 582 -58 l 582 -110 l -26 -110 m 281 -212 q 419 -185 363 -212 q 476 -96 476 -157 q 463 -43 476 -67 q 413 -1 450 -19 q 300 29 375 17 l 213 44 q 159 8 189 31 q 107 -44 129 -14 q 85 -112 85 -74 q 135 -189 85 -165 q 281 -212 186 -212 m 288 310 q 369 333 339 310 q 415 391 400 356 q 435 466 431 426 q 440 539 440 506 q 434 609 440 571 q 411 682 428 647 q 365 739 394 717 q 286 761 335 761 q 207 738 238 761 q 159 678 176 714 q 135 604 142 642 q 129 539 129 567 q 135 467 129 507 q 157 392 140 428 q 205 333 174 356 q 288 310 236 310 z "},"h":{"ha":544,"x_min":79,"x_max":471,"o":"m 79 0 l 79 1125 l 153 1125 l 153 718 q 240 789 192 763 q 344 815 289 815 q 409 798 381 815 q 454 742 438 781 q 471 640 471 704 l 471 0 l 396 0 l 396 632 q 374 732 396 706 q 313 758 351 758 q 231 734 272 758 q 153 669 189 710 l 153 0 l 79 0 z "},"ħ":{"ha":543,"x_min":-12,"x_max":469,"o":"m 79 0 l 79 974 l -12 974 l -12 1021 l 79 1021 l 79 1125 l 153 1125 l 153 1021 l 317 1021 l 317 974 l 153 974 l 153 718 q 239 789 190 763 q 343 815 288 815 q 408 798 379 815 q 453 742 436 781 q 469 640 469 704 l 469 0 l 396 0 l 396 632 q 373 732 396 706 q 311 758 350 758 q 230 734 271 758 q 153 669 189 710 l 153 0 l 79 0 z "},"ȟ":{"ha":544,"x_min":79,"x_max":472,"o":"m 79 0 l 79 1125 l 153 1125 l 153 718 q 240 789 192 763 q 344 815 289 815 q 409 798 381 815 q 454 742 438 781 q 471 640 471 704 l 471 0 l 396 0 l 396 632 q 374 732 396 706 q 313 758 351 758 q 231 734 272 758 q 153 669 189 710 l 153 0 l 79 0 m 299 1121 l 181 1347 l 243 1347 l 326 1178 l 410 1347 l 472 1347 l 354 1121 l 299 1121 z "},"ĥ":{"ha":544,"x_min":-50,"x_max":471,"o":"m 79 0 l 79 1125 l 153 1125 l 153 718 q 240 789 192 763 q 344 815 289 815 q 409 798 381 815 q 454 742 438 781 q 471 640 471 704 l 471 0 l 396 0 l 396 632 q 374 732 396 706 q 313 758 351 758 q 231 734 272 758 q 153 669 189 710 l 153 0 l 79 0 m -50 1197 l 69 1447 l 161 1447 l 279 1197 l 226 1197 l 115 1410 l 4 1197 l -50 1197 z "},"i":{"ha":263,"x_min":90,"x_max":165,"o":"m 90 0 l 90 803 l 165 803 l 165 0 l 90 0 m 90 908 l 90 1036 l 165 1036 l 165 908 l 90 908 z "},"ı":{"ha":253,"x_min":90,"x_max":164,"o":"m 90 0 l 90 803 l 164 803 l 164 0 l 90 0 z "},"í":{"ha":253,"x_min":90,"x_max":274,"o":"m 90 0 l 90 803 l 164 803 l 164 0 l 90 0 m 110 869 l 199 1139 l 274 1139 l 149 869 l 110 869 z "},"ĭ":{"ha":253,"x_min":-31,"x_max":286,"o":"m 90 0 l 90 803 l 164 803 l 164 0 l 90 0 m 126 888 q 15 925 57 888 q -31 1042 -28 963 l 21 1042 q 53 958 22 982 q 126 935 83 935 q 200 958 169 935 q 235 1042 231 982 l 286 1042 q 240 925 283 963 q 126 888 196 888 z "},"î":{"ha":253,"x_min":-37,"x_max":292,"o":"m 90 0 l 90 803 l 164 803 l 164 0 l 90 0 m -37 875 l 82 1125 l 174 1125 l 292 875 l 239 875 l 128 1088 l 17 875 l -37 875 z "},"ȉ":{"ha":253,"x_min":-87,"x_max":206,"o":"m 90 0 l 90 803 l 164 803 l 164 0 l 90 0 m 32 921 l -87 1125 l -6 1125 l 72 921 l 32 921 m 168 921 l 75 1125 l 147 1125 l 206 921 l 168 921 z "},"ï":{"ha":253,"x_min":-21,"x_max":279,"o":"m 90 0 l 90 803 l 164 803 l 164 0 l 90 0 m 201 1019 l 201 1125 l 279 1125 l 279 1019 l 201 1019 m -21 1019 l -21 1125 l 56 1125 l 56 1019 l -21 1019 z "},"ị":{"ha":263,"x_min":90,"x_max":174,"o":"m 90 0 l 90 803 l 165 803 l 165 0 l 90 0 m 90 908 l 90 1036 l 165 1036 l 165 908 l 90 908 m 90 -187 l 90 -83 l 174 -83 l 174 -187 l 90 -187 z "},"ì":{"ha":253,"x_min":-6,"x_max":164,"o":"m 90 0 l 90 803 l 164 803 l 164 0 l 90 0 m 107 869 l -6 1139 l 69 1139 l 144 869 l 107 869 z "},"ỉ":{"ha":253,"x_min":38,"x_max":219,"o":"m 90 0 l 90 803 l 164 803 l 164 0 l 90 0 m 126 917 l 96 949 q 145 984 128 967 q 163 1024 163 1001 q 147 1060 163 1049 q 99 1071 132 1071 q 69 1069 85 1071 q 38 1064 54 1067 l 38 1103 q 111 1111 75 1111 q 171 1102 147 1111 q 207 1074 194 1093 q 219 1028 219 1056 q 207 980 219 1000 q 173 944 194 960 q 126 917 151 929 z "},"ȋ":{"ha":253,"x_min":-31,"x_max":286,"o":"m 90 0 l 90 803 l 164 803 l 164 0 l 90 0 m -31 971 q -8 1058 -28 1024 q 47 1108 13 1092 q 128 1125 82 1125 q 210 1108 175 1125 q 265 1058 244 1092 q 286 971 285 1024 l 235 971 q 203 1053 233 1031 q 128 1076 172 1076 q 54 1053 85 1076 q 21 971 24 1031 l -31 971 z "},"ĳ":{"ha":543,"x_min":90,"x_max":449,"o":"m 90 0 l 90 803 l 165 803 l 165 0 l 90 0 m 90 908 l 90 1036 l 165 1036 l 165 908 l 90 908 m 282 -215 q 260 -215 276 -215 q 240 -212 244 -214 l 240 -153 q 257 -154 243 -154 q 274 -154 271 -154 q 344 -136 322 -154 q 370 -91 365 -118 q 375 -35 375 -64 l 375 803 l 449 803 l 449 -39 q 404 -176 449 -136 q 282 -215 360 -215 m 375 908 l 375 1036 l 449 1036 l 449 908 l 375 908 z "},"ī":{"ha":253,"x_min":8,"x_max":247,"o":"m 90 0 l 90 803 l 164 803 l 164 0 l 90 0 m 8 972 l 8 1028 l 247 1028 l 247 972 l 8 972 z "},"į":{"ha":263,"x_min":-3,"x_max":181,"o":"m 90 0 l 90 803 l 165 803 l 165 0 l 90 0 m 90 908 l 90 1036 l 165 1036 l 165 908 l 90 908 m 136 -279 q 80 -272 106 -279 q 35 -250 54 -264 q 7 -215 17 -236 q -3 -168 -3 -194 q 12 -105 -3 -135 q 51 -48 26 -75 q 107 0 76 -21 l 149 0 q 101 -53 122 -26 q 68 -107 81 -81 q 56 -162 56 -133 q 85 -219 56 -201 q 156 -236 114 -236 q 169 -235 163 -236 q 181 -233 175 -235 l 172 -276 q 157 -278 167 -278 q 136 -279 147 -279 z "},"ĩ":{"ha":253,"x_min":-36,"x_max":292,"o":"m 90 0 l 90 803 l 164 803 l 164 0 l 90 0 m 200 954 q 145 971 169 954 q 100 1003 121 988 q 57 1019 79 1019 q 26 1006 38 1019 q 14 965 14 992 l -36 965 q -30 1003 -36 978 q -6 1049 -24 1028 q 50 1071 13 1071 q 108 1055 83 1071 q 155 1022 133 1039 q 199 1006 176 1006 q 232 1019 221 1006 q 244 1068 243 1033 l 292 1068 q 286 1025 292 1053 q 261 976 281 997 q 200 954 242 954 z "},"j":{"ha":281,"x_min":-22,"x_max":186,"o":"m 19 -215 q -2 -215 14 -215 q -22 -212 -18 -214 l -22 -153 q -6 -154 -19 -154 q 11 -154 8 -154 q 81 -136 60 -154 q 108 -91 103 -118 q 113 -35 113 -64 l 113 803 l 186 803 l 186 -39 q 142 -176 186 -136 q 19 -215 97 -215 m 113 908 l 113 1036 l 186 1036 l 186 908 l 113 908 z "},"ȷ":{"ha":281,"x_min":-22,"x_max":186,"o":"m 19 -215 q -2 -215 14 -215 q -22 -212 -18 -214 l -22 -153 q -6 -154 -19 -154 q 11 -154 8 -154 q 81 -136 60 -154 q 108 -91 103 -118 q 113 -35 113 -64 l 113 803 l 186 803 l 186 -39 q 142 -176 186 -136 q 19 -215 97 -215 z "},"ĵ":{"ha":281,"x_min":-22,"x_max":314,"o":"m 19 -215 q -2 -215 14 -215 q -22 -212 -18 -214 l -22 -153 q -6 -154 -19 -154 q 11 -154 8 -154 q 81 -136 60 -154 q 108 -91 103 -118 q 113 -35 113 -64 l 113 803 l 186 803 l 186 -39 q 142 -176 186 -136 q 19 -215 97 -215 m -15 875 l 104 1125 l 196 1125 l 314 875 l 261 875 l 150 1088 l 39 875 l -15 875 z "},"k":{"ha":532,"x_min":79,"x_max":531,"o":"m 79 0 l 79 1125 l 153 1125 l 153 383 l 451 803 l 531 803 l 319 496 l 519 0 l 444 0 l 264 451 l 153 301 l 153 0 l 79 0 z "},"ǩ":{"ha":532,"x_min":79,"x_max":531,"o":"m 79 0 l 79 1125 l 153 1125 l 153 383 l 451 803 l 531 803 l 319 496 l 519 0 l 444 0 l 264 451 l 153 301 l 153 0 l 79 0 m 292 1124 l 174 1350 l 236 1350 l 319 1181 l 403 1350 l 465 1350 l 347 1124 l 292 1124 z "},"ķ":{"ha":532,"x_min":79,"x_max":531,"o":"m 79 0 l 79 1125 l 153 1125 l 153 383 l 451 803 l 531 803 l 319 496 l 519 0 l 444 0 l 264 451 l 153 301 l 153 0 l 79 0 m 235 -333 l 217 -304 q 263 -245 253 -281 q 274 -187 274 -210 l 225 -187 l 225 -83 l 315 -83 l 315 -169 q 299 -272 315 -233 q 235 -333 282 -310 z "},"ĸ":{"ha":571,"x_min":89,"x_max":525,"o":"m 89 0 l 89 803 l 163 803 l 163 383 l 442 803 l 521 803 l 315 489 l 525 0 l 450 0 l 263 439 l 163 297 l 163 0 l 89 0 z "},"l":{"ha":258,"x_min":93,"x_max":167,"o":"m 93 0 l 93 1125 l 167 1125 l 167 0 l 93 0 z "},"ĺ":{"ha":258,"x_min":93,"x_max":276,"o":"m 93 0 l 93 1125 l 167 1125 l 167 0 l 93 0 m 113 1192 l 201 1461 l 276 1461 l 151 1192 l 113 1192 z "},"ľ":{"ha":318,"x_min":93,"x_max":332,"o":"m 93 0 l 93 1125 l 167 1125 l 167 0 l 93 0 m 254 831 l 235 863 q 282 913 271 889 q 293 979 293 938 l 243 979 l 243 1125 l 332 1125 l 332 994 q 315 894 332 931 q 254 831 299 858 z "},"ļ":{"ha":258,"x_min":81,"x_max":179,"o":"m 93 0 l 93 1125 l 167 1125 l 167 0 l 93 0 m 99 -333 l 81 -304 q 127 -245 117 -281 q 138 -187 138 -210 l 89 -187 l 89 -83 l 179 -83 l 179 -169 q 163 -272 179 -233 q 99 -333 146 -310 z "},"ŀ":{"ha":304,"x_min":93,"x_max":317,"o":"m 93 0 l 93 1125 l 167 1125 l 167 0 l 93 0 m 249 561 l 249 665 l 317 665 l 317 561 l 249 561 z "},"ǉ":{"ha":539,"x_min":93,"x_max":444,"o":"m 93 0 l 93 1125 l 167 1125 l 167 0 l 93 0 m 278 -215 q 256 -215 272 -215 q 236 -212 240 -214 l 236 -153 q 253 -154 239 -154 q 269 -154 267 -154 q 340 -136 318 -154 q 366 -91 361 -118 q 371 -35 371 -64 l 371 803 l 444 803 l 444 -39 q 400 -176 444 -136 q 278 -215 356 -215 m 371 908 l 371 1036 l 444 1036 l 444 908 l 371 908 z "},"ł":{"ha":343,"x_min":49,"x_max":292,"o":"m 135 0 l 135 639 l 49 592 l 49 657 l 135 703 l 135 1125 l 208 1125 l 208 742 l 292 788 l 292 724 l 208 678 l 208 0 l 135 0 z "},"m":{"ha":865,"x_min":79,"x_max":792,"o":"m 79 0 l 79 803 l 149 803 l 149 718 q 236 791 188 765 q 338 817 285 817 q 413 794 378 817 q 463 710 449 772 q 553 789 503 761 q 658 817 603 817 q 722 801 692 817 q 772 747 753 786 q 792 635 792 707 l 792 0 l 721 0 l 721 636 q 696 739 721 714 q 635 764 671 764 q 549 738 592 764 q 468 669 506 713 q 470 653 469 663 q 471 635 471 644 l 471 0 l 400 0 l 400 636 q 375 739 400 714 q 314 764 350 764 q 229 738 272 764 q 149 671 186 713 l 149 0 l 79 0 z "},"ṁ":{"ha":865,"x_min":79,"x_max":792,"o":"m 79 0 l 79 803 l 149 803 l 149 718 q 236 791 188 765 q 338 817 285 817 q 413 794 378 817 q 463 710 449 772 q 553 789 503 761 q 658 817 603 817 q 722 801 692 817 q 772 747 753 786 q 792 635 792 707 l 792 0 l 721 0 l 721 636 q 696 739 721 714 q 635 764 671 764 q 549 738 592 764 q 468 669 506 713 q 470 653 469 663 q 471 635 471 644 l 471 0 l 400 0 l 400 636 q 375 739 400 714 q 314 764 350 764 q 229 738 272 764 q 149 671 186 713 l 149 0 l 79 0 m 392 939 l 392 1083 l 475 1083 l 475 939 l 392 939 z "},"n":{"ha":543,"x_min":79,"x_max":469,"o":"m 79 0 l 79 803 l 153 803 l 153 717 q 239 788 190 761 q 343 815 288 815 q 408 798 379 815 q 453 742 436 781 q 469 640 469 704 l 469 0 l 396 0 l 396 632 q 373 732 396 706 q 311 758 350 758 q 230 734 271 758 q 153 669 189 710 l 153 0 l 79 0 z "},"ń":{"ha":543,"x_min":79,"x_max":469,"o":"m 79 0 l 79 803 l 153 803 l 153 717 q 239 788 190 761 q 343 815 288 815 q 408 798 379 815 q 453 742 436 781 q 469 640 469 704 l 469 0 l 396 0 l 396 632 q 373 732 396 706 q 311 758 350 758 q 230 734 271 758 q 153 669 189 710 l 153 0 l 79 0 m 254 869 l 343 1139 l 418 1139 l 293 869 l 254 869 z "},"ŉ":{"ha":617,"x_min":22,"x_max":547,"o":"m 42 847 l 22 879 q 69 930 58 906 q 81 996 81 954 l 31 996 l 31 1142 l 119 1142 l 119 1011 q 103 911 119 947 q 42 847 86 875 m 157 0 l 157 803 l 231 803 l 231 717 q 317 788 268 761 q 421 815 365 815 q 485 798 457 815 q 531 742 514 781 q 547 640 547 704 l 547 0 l 474 0 l 474 632 q 451 732 474 706 q 389 758 428 758 q 308 734 349 758 q 231 669 267 710 l 231 0 l 157 0 z "},"ň":{"ha":543,"x_min":79,"x_max":469,"o":"m 79 0 l 79 803 l 153 803 l 153 717 q 239 788 190 761 q 343 815 288 815 q 408 798 379 815 q 453 742 436 781 q 469 640 469 704 l 469 0 l 396 0 l 396 632 q 373 732 396 706 q 311 758 350 758 q 230 734 271 758 q 153 669 189 710 l 153 0 l 79 0 m 244 899 l 126 1125 l 189 1125 l 272 956 l 356 1125 l 418 1125 l 300 899 l 244 899 z "},"ņ":{"ha":543,"x_min":79,"x_max":469,"o":"m 79 0 l 79 803 l 153 803 l 153 717 q 239 788 190 761 q 343 815 288 815 q 408 798 379 815 q 453 742 436 781 q 469 640 469 704 l 469 0 l 396 0 l 396 632 q 373 732 396 706 q 311 758 350 758 q 230 734 271 758 q 153 669 189 710 l 153 0 l 79 0 m 240 -333 l 222 -304 q 269 -245 258 -281 q 279 -187 279 -210 l 231 -187 l 231 -83 l 321 -83 l 321 -169 q 304 -272 321 -233 q 240 -333 288 -310 z "},"ŋ":{"ha":539,"x_min":75,"x_max":465,"o":"m 228 -217 l 228 -157 q 332 -138 297 -157 q 379 -86 367 -119 q 392 -7 392 -53 l 392 632 q 369 732 392 706 q 307 758 346 758 q 226 734 267 758 q 149 669 185 710 l 149 0 l 75 0 l 75 803 l 149 803 l 149 717 q 235 788 188 761 q 339 815 283 815 q 403 798 375 815 q 449 742 432 781 q 465 640 465 704 l 465 -8 q 435 -136 465 -90 q 354 -199 404 -182 q 246 -217 304 -217 l 228 -217 z "},"ǌ":{"ha":824,"x_min":79,"x_max":729,"o":"m 79 0 l 79 803 l 153 803 l 153 717 q 239 788 190 761 q 343 815 288 815 q 408 798 379 815 q 453 742 436 781 q 469 640 469 704 l 469 0 l 396 0 l 396 632 q 373 732 396 706 q 311 758 350 758 q 230 734 271 758 q 153 669 189 710 l 153 0 l 79 0 m 563 -215 q 541 -215 557 -215 q 521 -212 525 -214 l 521 -153 q 538 -154 524 -154 q 554 -154 551 -154 q 624 -136 603 -154 q 651 -91 646 -118 q 656 -35 656 -64 l 656 803 l 729 803 l 729 -39 q 685 -176 729 -136 q 563 -215 640 -215 m 656 908 l 656 1036 l 729 1036 l 729 908 l 656 908 z "},"ñ":{"ha":543,"x_min":79,"x_max":469,"o":"m 79 0 l 79 803 l 153 803 l 153 717 q 239 788 190 761 q 343 815 288 815 q 408 798 379 815 q 453 742 436 781 q 469 640 469 704 l 469 0 l 396 0 l 396 632 q 373 732 396 706 q 311 758 350 758 q 230 734 271 758 q 153 669 189 710 l 153 0 l 79 0 m 344 954 q 290 971 314 954 q 244 1003 265 988 q 201 1019 224 1019 q 170 1006 182 1019 q 158 965 158 992 l 108 965 q 115 1003 108 978 q 139 1049 121 1028 q 194 1071 157 1071 q 253 1055 228 1071 q 299 1022 278 1039 q 343 1006 321 1006 q 376 1019 365 1006 q 389 1068 388 1033 l 436 1068 q 431 1025 436 1053 q 406 976 425 997 q 344 954 386 954 z "},"o":{"ha":532,"x_min":64,"x_max":468,"o":"m 265 -12 q 142 22 186 -12 q 81 125 99 57 q 64 293 64 193 l 64 510 q 81 678 64 610 q 142 781 99 746 q 265 815 186 815 q 390 781 346 815 q 451 678 433 746 q 468 510 468 611 l 468 293 q 451 125 468 193 q 390 22 433 57 q 265 -12 346 -12 m 265 43 q 351 73 324 43 q 387 158 379 103 q 394 290 394 214 l 394 513 q 387 645 394 590 q 351 730 379 700 q 265 760 324 760 q 180 730 207 760 q 145 645 153 700 q 138 513 138 590 l 138 290 q 145 158 138 214 q 180 73 153 103 q 265 43 207 43 z "},"ó":{"ha":532,"x_min":64,"x_max":468,"o":"m 265 -12 q 142 22 186 -12 q 81 125 99 57 q 64 293 64 193 l 64 510 q 81 678 64 610 q 142 781 99 746 q 265 815 186 815 q 390 781 346 815 q 451 678 433 746 q 468 510 468 611 l 468 293 q 451 125 468 193 q 390 22 433 57 q 265 -12 346 -12 m 265 43 q 351 73 324 43 q 387 158 379 103 q 394 290 394 214 l 394 513 q 387 645 394 590 q 351 730 379 700 q 265 760 324 760 q 180 730 207 760 q 145 645 153 700 q 138 513 138 590 l 138 290 q 145 158 138 214 q 180 73 153 103 q 265 43 207 43 m 249 869 l 338 1139 l 413 1139 l 288 869 l 249 869 z "},"ŏ":{"ha":532,"x_min":64,"x_max":468,"o":"m 265 -12 q 142 22 186 -12 q 81 125 99 57 q 64 293 64 193 l 64 510 q 81 678 64 610 q 142 781 99 746 q 265 815 186 815 q 390 781 346 815 q 451 678 433 746 q 468 510 468 611 l 468 293 q 451 125 468 193 q 390 22 433 57 q 265 -12 346 -12 m 265 43 q 351 73 324 43 q 387 158 379 103 q 394 290 394 214 l 394 513 q 387 645 394 590 q 351 730 379 700 q 265 760 324 760 q 180 730 207 760 q 145 645 153 700 q 138 513 138 590 l 138 290 q 145 158 138 214 q 180 73 153 103 q 265 43 207 43 m 265 888 q 153 925 196 888 q 108 1042 111 963 l 160 1042 q 192 958 161 982 q 265 935 222 935 q 339 958 308 935 q 374 1042 369 982 l 425 1042 q 378 925 422 963 q 265 888 335 888 z "},"ô":{"ha":532,"x_min":64,"x_max":468,"o":"m 265 -12 q 142 22 186 -12 q 81 125 99 57 q 64 293 64 193 l 64 510 q 81 678 64 610 q 142 781 99 746 q 265 815 186 815 q 390 781 346 815 q 451 678 433 746 q 468 510 468 611 l 468 293 q 451 125 468 193 q 390 22 433 57 q 265 -12 346 -12 m 265 43 q 351 73 324 43 q 387 158 379 103 q 394 290 394 214 l 394 513 q 387 645 394 590 q 351 730 379 700 q 265 760 324 760 q 180 730 207 760 q 145 645 153 700 q 138 513 138 590 l 138 290 q 145 158 138 214 q 180 73 153 103 q 265 43 207 43 m 101 875 l 221 1125 l 313 1125 l 431 875 l 378 875 l 267 1088 l 156 875 l 101 875 z "},"ố":{"ha":532,"x_min":64,"x_max":556,"o":"m 265 -12 q 142 22 186 -12 q 81 125 99 57 q 64 293 64 193 l 64 510 q 81 678 64 610 q 142 781 99 746 q 265 815 186 815 q 390 781 346 815 q 451 678 433 746 q 468 510 468 611 l 468 293 q 451 125 468 193 q 390 22 433 57 q 265 -12 346 -12 m 265 43 q 351 73 324 43 q 387 158 379 103 q 394 290 394 214 l 394 513 q 387 645 394 590 q 351 730 379 700 q 265 760 324 760 q 180 730 207 760 q 145 645 153 700 q 138 513 138 590 l 138 290 q 145 158 138 214 q 180 73 153 103 q 265 43 207 43 m 101 875 l 221 1069 l 313 1069 l 431 875 l 378 875 l 267 1035 l 156 875 l 101 875 m 410 999 l 483 1158 l 556 1158 l 463 999 l 410 999 z "},"ộ":{"ha":532,"x_min":64,"x_max":468,"o":"m 265 -12 q 142 22 186 -12 q 81 125 99 57 q 64 293 64 193 l 64 510 q 81 678 64 610 q 142 781 99 746 q 265 815 186 815 q 390 781 346 815 q 451 678 433 746 q 468 510 468 611 l 468 293 q 451 125 468 193 q 390 22 433 57 q 265 -12 346 -12 m 265 43 q 351 73 324 43 q 387 158 379 103 q 394 290 394 214 l 394 513 q 387 645 394 590 q 351 730 379 700 q 265 760 324 760 q 180 730 207 760 q 145 645 153 700 q 138 513 138 590 l 138 290 q 145 158 138 214 q 180 73 153 103 q 265 43 207 43 m 225 -187 l 225 -83 l 308 -83 l 308 -187 l 225 -187 m 101 875 l 221 1069 l 313 1069 l 431 875 l 378 875 l 267 1035 l 156 875 l 101 875 z "},"ồ":{"ha":532,"x_min":64,"x_max":499,"o":"m 265 -12 q 142 22 186 -12 q 81 125 99 57 q 64 293 64 193 l 64 510 q 81 678 64 610 q 142 781 99 746 q 265 815 186 815 q 390 781 346 815 q 451 678 433 746 q 468 510 468 611 l 468 293 q 451 125 468 193 q 390 22 433 57 q 265 -12 346 -12 m 265 43 q 351 73 324 43 q 387 158 379 103 q 394 290 394 214 l 394 513 q 387 645 394 590 q 351 730 379 700 q 265 760 324 760 q 180 730 207 760 q 145 645 153 700 q 138 513 138 590 l 138 290 q 145 158 138 214 q 180 73 153 103 q 265 43 207 43 m 101 875 l 221 1069 l 313 1069 l 431 875 l 378 875 l 267 1035 l 156 875 l 101 875 m 446 999 l 353 1158 l 425 1158 l 499 999 l 446 999 z "},"ổ":{"ha":532,"x_min":64,"x_max":519,"o":"m 265 -12 q 142 22 186 -12 q 81 125 99 57 q 64 293 64 193 l 64 510 q 81 678 64 610 q 142 781 99 746 q 265 815 186 815 q 390 781 346 815 q 451 678 433 746 q 468 510 468 611 l 468 293 q 451 125 468 193 q 390 22 433 57 q 265 -12 346 -12 m 265 43 q 351 73 324 43 q 387 158 379 103 q 394 290 394 214 l 394 513 q 387 645 394 590 q 351 730 379 700 q 265 760 324 760 q 180 730 207 760 q 145 645 153 700 q 138 513 138 590 l 138 290 q 145 158 138 214 q 180 73 153 103 q 265 43 207 43 m 429 997 l 399 1029 q 447 1065 431 1047 q 463 1104 463 1082 q 447 1140 463 1128 q 403 1151 432 1151 q 372 1149 388 1151 q 340 1142 357 1147 l 340 1179 q 379 1189 360 1186 q 417 1192 399 1192 q 492 1170 465 1192 q 519 1108 519 1149 q 492 1042 519 1067 q 429 997 465 1017 m 101 875 l 221 1069 l 313 1069 l 431 875 l 378 875 l 267 1035 l 156 875 l 101 875 z "},"ỗ":{"ha":532,"x_min":64,"x_max":468,"o":"m 265 -12 q 142 22 186 -12 q 81 125 99 57 q 64 293 64 193 l 64 510 q 81 678 64 610 q 142 781 99 746 q 265 815 186 815 q 390 781 346 815 q 451 678 433 746 q 468 510 468 611 l 468 293 q 451 125 468 193 q 390 22 433 57 q 265 -12 346 -12 m 265 43 q 351 73 324 43 q 387 158 379 103 q 394 290 394 214 l 394 513 q 387 645 394 590 q 351 730 379 700 q 265 760 324 760 q 180 730 207 760 q 145 645 153 700 q 138 513 138 590 l 138 290 q 145 158 138 214 q 180 73 153 103 q 265 43 207 43 m 101 875 l 221 1069 l 313 1069 l 431 875 l 378 875 l 267 1035 l 156 875 l 101 875 m 339 1139 q 284 1156 308 1139 q 239 1188 260 1172 q 196 1204 218 1204 q 165 1190 176 1204 q 153 1150 153 1176 l 103 1150 q 109 1188 103 1163 q 133 1234 115 1213 q 189 1256 151 1256 q 247 1240 222 1256 q 294 1207 272 1224 q 338 1190 315 1190 q 371 1204 360 1190 q 383 1253 382 1218 l 431 1253 q 425 1210 431 1238 q 400 1160 419 1182 q 339 1139 381 1139 z "},"ȍ":{"ha":532,"x_min":51,"x_max":468,"o":"m 265 -12 q 142 22 186 -12 q 81 125 99 57 q 64 293 64 193 l 64 510 q 81 678 64 610 q 142 781 99 746 q 265 815 186 815 q 390 781 346 815 q 451 678 433 746 q 468 510 468 611 l 468 293 q 451 125 468 193 q 390 22 433 57 q 265 -12 346 -12 m 265 43 q 351 73 324 43 q 387 158 379 103 q 394 290 394 214 l 394 513 q 387 645 394 590 q 351 730 379 700 q 265 760 324 760 q 180 730 207 760 q 145 645 153 700 q 138 513 138 590 l 138 290 q 145 158 138 214 q 180 73 153 103 q 265 43 207 43 m 171 921 l 51 1125 l 133 1125 l 211 921 l 171 921 m 307 921 l 214 1125 l 286 1125 l 344 921 l 307 921 z "},"ö":{"ha":532,"x_min":64,"x_max":468,"o":"m 265 -12 q 142 22 186 -12 q 81 125 99 57 q 64 293 64 193 l 64 510 q 81 678 64 610 q 142 781 99 746 q 265 815 186 815 q 390 781 346 815 q 451 678 433 746 q 468 510 468 611 l 468 293 q 451 125 468 193 q 390 22 433 57 q 265 -12 346 -12 m 265 43 q 351 73 324 43 q 387 158 379 103 q 394 290 394 214 l 394 513 q 387 645 394 590 q 351 730 379 700 q 265 760 324 760 q 180 730 207 760 q 145 645 153 700 q 138 513 138 590 l 138 290 q 145 158 138 214 q 180 73 153 103 q 265 43 207 43 m 340 1019 l 340 1125 l 418 1125 l 418 1019 l 340 1019 m 118 1019 l 118 1125 l 194 1125 l 194 1019 l 118 1019 z "},"ȫ":{"ha":532,"x_min":64,"x_max":468,"o":"m 265 -12 q 142 22 186 -12 q 81 125 99 57 q 64 293 64 193 l 64 510 q 81 678 64 610 q 142 781 99 746 q 265 815 186 815 q 390 781 346 815 q 451 678 433 746 q 468 510 468 611 l 468 293 q 451 125 468 193 q 390 22 433 57 q 265 -12 346 -12 m 265 43 q 351 73 324 43 q 387 158 379 103 q 394 290 394 214 l 394 513 q 387 645 394 590 q 351 730 379 700 q 265 760 324 760 q 180 730 207 760 q 145 645 153 700 q 138 513 138 590 l 138 290 q 145 158 138 214 q 180 73 153 103 q 265 43 207 43 m 340 1019 l 340 1125 l 418 1125 l 418 1019 l 340 1019 m 118 1019 l 118 1125 l 194 1125 l 194 1019 l 118 1019 m 147 1294 l 147 1350 l 386 1350 l 386 1294 l 147 1294 z "},"ȱ":{"ha":532,"x_min":64,"x_max":468,"o":"m 265 -12 q 142 22 186 -12 q 81 125 99 57 q 64 293 64 193 l 64 510 q 81 678 64 610 q 142 781 99 746 q 265 815 186 815 q 390 781 346 815 q 451 678 433 746 q 468 510 468 611 l 468 293 q 451 125 468 193 q 390 22 433 57 q 265 -12 346 -12 m 265 43 q 351 73 324 43 q 387 158 379 103 q 394 290 394 214 l 394 513 q 387 645 394 590 q 351 730 379 700 q 265 760 324 760 q 180 730 207 760 q 145 645 153 700 q 138 513 138 590 l 138 290 q 145 158 138 214 q 180 73 153 103 q 265 43 207 43 m 225 939 l 225 1083 l 308 1083 l 308 939 l 225 939 m 147 1253 l 147 1308 l 386 1308 l 386 1253 l 147 1253 z "},"ọ":{"ha":532,"x_min":64,"x_max":468,"o":"m 265 -12 q 142 22 186 -12 q 81 125 99 57 q 64 293 64 193 l 64 510 q 81 678 64 610 q 142 781 99 746 q 265 815 186 815 q 390 781 346 815 q 451 678 433 746 q 468 510 468 611 l 468 293 q 451 125 468 193 q 390 22 433 57 q 265 -12 346 -12 m 265 43 q 351 73 324 43 q 387 158 379 103 q 394 290 394 214 l 394 513 q 387 645 394 590 q 351 730 379 700 q 265 760 324 760 q 180 730 207 760 q 145 645 153 700 q 138 513 138 590 l 138 290 q 145 158 138 214 q 180 73 153 103 q 265 43 207 43 m 225 -187 l 225 -83 l 308 -83 l 308 -187 l 225 -187 z "},"ò":{"ha":532,"x_min":64,"x_max":468,"o":"m 265 -12 q 142 22 186 -12 q 81 125 99 57 q 64 293 64 193 l 64 510 q 81 678 64 610 q 142 781 99 746 q 265 815 186 815 q 390 781 346 815 q 451 678 433 746 q 468 510 468 611 l 468 293 q 451 125 468 193 q 390 22 433 57 q 265 -12 346 -12 m 265 43 q 351 73 324 43 q 387 158 379 103 q 394 290 394 214 l 394 513 q 387 645 394 590 q 351 730 379 700 q 265 760 324 760 q 180 730 207 760 q 145 645 153 700 q 138 513 138 590 l 138 290 q 145 158 138 214 q 180 73 153 103 q 265 43 207 43 m 246 869 l 133 1139 l 208 1139 l 283 869 l 246 869 z "},"ỏ":{"ha":532,"x_min":64,"x_max":468,"o":"m 265 -12 q 142 22 186 -12 q 81 125 99 57 q 64 293 64 193 l 64 510 q 81 678 64 610 q 142 781 99 746 q 265 815 186 815 q 390 781 346 815 q 451 678 433 746 q 468 510 468 611 l 468 293 q 451 125 468 193 q 390 22 433 57 q 265 -12 346 -12 m 265 43 q 351 73 324 43 q 387 158 379 103 q 394 290 394 214 l 394 513 q 387 645 394 590 q 351 730 379 700 q 265 760 324 760 q 180 730 207 760 q 145 645 153 700 q 138 513 138 590 l 138 290 q 145 158 138 214 q 180 73 153 103 q 265 43 207 43 m 265 917 l 235 949 q 284 984 267 967 q 301 1024 301 1001 q 286 1060 301 1049 q 238 1071 271 1071 q 208 1069 224 1071 q 176 1064 193 1067 l 176 1103 q 250 1111 214 1111 q 310 1102 286 1111 q 346 1074 333 1093 q 358 1028 358 1056 q 346 980 358 1000 q 312 944 333 960 q 265 917 290 929 z "},"ơ":{"ha":532,"x_min":64,"x_max":468,"o":"m 265 -12 q 142 22 186 -12 q 81 125 99 57 q 64 293 64 193 l 64 510 q 81 678 64 610 q 142 781 99 746 q 265 815 186 815 q 390 781 346 815 q 451 678 433 746 q 468 510 468 611 l 468 293 q 451 125 468 193 q 390 22 433 57 q 265 -12 346 -12 m 265 43 q 351 73 324 43 q 387 158 379 103 q 394 290 394 214 l 394 513 q 387 645 394 590 q 351 730 379 700 q 265 760 324 760 q 180 730 207 760 q 145 645 153 700 q 138 513 138 590 l 138 290 q 145 158 138 214 q 180 73 153 103 q 265 43 207 43 m 322 756 l 322 803 l 336 803 q 394 825 378 803 q 411 890 411 847 l 468 890 q 435 789 468 822 q 339 756 401 756 l 322 756 z "},"ớ":{"ha":532,"x_min":64,"x_max":468,"o":"m 265 -12 q 142 22 186 -12 q 81 125 99 57 q 64 293 64 193 l 64 510 q 81 678 64 610 q 142 781 99 746 q 265 815 186 815 q 390 781 346 815 q 451 678 433 746 q 468 510 468 611 l 468 293 q 451 125 468 193 q 390 22 433 57 q 265 -12 346 -12 m 265 43 q 351 73 324 43 q 387 158 379 103 q 394 290 394 214 l 394 513 q 387 645 394 590 q 351 730 379 700 q 265 760 324 760 q 180 730 207 760 q 145 645 153 700 q 138 513 138 590 l 138 290 q 145 158 138 214 q 180 73 153 103 q 265 43 207 43 m 322 756 l 322 803 l 336 803 q 394 825 378 803 q 411 890 411 847 l 468 890 q 435 789 468 822 q 339 756 401 756 l 322 756 m 249 869 l 338 1139 l 413 1139 l 288 869 l 249 869 z "},"ợ":{"ha":532,"x_min":64,"x_max":468,"o":"m 265 -12 q 142 22 186 -12 q 81 125 99 57 q 64 293 64 193 l 64 510 q 81 678 64 610 q 142 781 99 746 q 265 815 186 815 q 390 781 346 815 q 451 678 433 746 q 468 510 468 611 l 468 293 q 451 125 468 193 q 390 22 433 57 q 265 -12 346 -12 m 265 43 q 351 73 324 43 q 387 158 379 103 q 394 290 394 214 l 394 513 q 387 645 394 590 q 351 730 379 700 q 265 760 324 760 q 180 730 207 760 q 145 645 153 700 q 138 513 138 590 l 138 290 q 145 158 138 214 q 180 73 153 103 q 265 43 207 43 m 322 756 l 322 803 l 336 803 q 394 825 378 803 q 411 890 411 847 l 468 890 q 435 789 468 822 q 339 756 401 756 l 322 756 m 225 -187 l 225 -83 l 308 -83 l 308 -187 l 225 -187 z "},"ờ":{"ha":532,"x_min":64,"x_max":468,"o":"m 265 -12 q 142 22 186 -12 q 81 125 99 57 q 64 293 64 193 l 64 510 q 81 678 64 610 q 142 781 99 746 q 265 815 186 815 q 390 781 346 815 q 451 678 433 746 q 468 510 468 611 l 468 293 q 451 125 468 193 q 390 22 433 57 q 265 -12 346 -12 m 265 43 q 351 73 324 43 q 387 158 379 103 q 394 290 394 214 l 394 513 q 387 645 394 590 q 351 730 379 700 q 265 760 324 760 q 180 730 207 760 q 145 645 153 700 q 138 513 138 590 l 138 290 q 145 158 138 214 q 180 73 153 103 q 265 43 207 43 m 322 756 l 322 803 l 336 803 q 394 825 378 803 q 411 890 411 847 l 468 890 q 435 789 468 822 q 339 756 401 756 l 322 756 m 246 869 l 133 1139 l 208 1139 l 283 869 l 246 869 z "},"ở":{"ha":532,"x_min":64,"x_max":468,"o":"m 265 -12 q 142 22 186 -12 q 81 125 99 57 q 64 293 64 193 l 64 510 q 81 678 64 610 q 142 781 99 746 q 265 815 186 815 q 390 781 346 815 q 451 678 433 746 q 468 510 468 611 l 468 293 q 451 125 468 193 q 390 22 433 57 q 265 -12 346 -12 m 265 43 q 351 73 324 43 q 387 158 379 103 q 394 290 394 214 l 394 513 q 387 645 394 590 q 351 730 379 700 q 265 760 324 760 q 180 730 207 760 q 145 645 153 700 q 138 513 138 590 l 138 290 q 145 158 138 214 q 180 73 153 103 q 265 43 207 43 m 322 756 l 322 803 l 336 803 q 394 825 378 803 q 411 890 411 847 l 468 890 q 435 789 468 822 q 339 756 401 756 l 322 756 m 265 917 l 235 949 q 284 984 267 967 q 301 1024 301 1001 q 286 1060 301 1049 q 238 1071 271 1071 q 208 1069 224 1071 q 176 1064 193 1067 l 176 1103 q 250 1111 214 1111 q 310 1102 286 1111 q 346 1074 333 1093 q 358 1028 358 1056 q 346 980 358 1000 q 312 944 333 960 q 265 917 290 929 z "},"ỡ":{"ha":532,"x_min":64,"x_max":468,"o":"m 265 -12 q 142 22 186 -12 q 81 125 99 57 q 64 293 64 193 l 64 510 q 81 678 64 610 q 142 781 99 746 q 265 815 186 815 q 390 781 346 815 q 451 678 433 746 q 468 510 468 611 l 468 293 q 451 125 468 193 q 390 22 433 57 q 265 -12 346 -12 m 265 43 q 351 73 324 43 q 387 158 379 103 q 394 290 394 214 l 394 513 q 387 645 394 590 q 351 730 379 700 q 265 760 324 760 q 180 730 207 760 q 145 645 153 700 q 138 513 138 590 l 138 290 q 145 158 138 214 q 180 73 153 103 q 265 43 207 43 m 322 756 l 322 803 l 336 803 q 394 825 378 803 q 411 890 411 847 l 468 890 q 435 789 468 822 q 339 756 401 756 l 322 756 m 339 954 q 284 971 308 954 q 239 1003 260 988 q 196 1019 218 1019 q 165 1006 176 1019 q 153 965 153 992 l 103 965 q 109 1003 103 978 q 133 1049 115 1028 q 189 1071 151 1071 q 247 1055 222 1071 q 294 1022 272 1039 q 338 1006 315 1006 q 371 1019 360 1006 q 383 1068 382 1033 l 431 1068 q 425 1025 431 1053 q 400 976 419 997 q 339 954 381 954 z "},"ő":{"ha":532,"x_min":64,"x_max":478,"o":"m 265 -12 q 142 22 186 -12 q 81 125 99 57 q 64 293 64 193 l 64 510 q 81 678 64 610 q 142 781 99 746 q 265 815 186 815 q 390 781 346 815 q 451 678 433 746 q 468 510 468 611 l 468 293 q 451 125 468 193 q 390 22 433 57 q 265 -12 346 -12 m 265 43 q 351 73 324 43 q 387 158 379 103 q 394 290 394 214 l 394 513 q 387 645 394 590 q 351 730 379 700 q 265 760 324 760 q 180 730 207 760 q 145 645 153 700 q 138 513 138 590 l 138 290 q 145 158 138 214 q 180 73 153 103 q 265 43 207 43 m 317 926 l 392 1139 l 478 1139 l 360 926 l 317 926 m 194 926 l 247 1139 l 321 1139 l 235 926 l 194 926 z "},"ȏ":{"ha":532,"x_min":64,"x_max":468,"o":"m 265 -12 q 142 22 186 -12 q 81 125 99 57 q 64 293 64 193 l 64 510 q 81 678 64 610 q 142 781 99 746 q 265 815 186 815 q 390 781 346 815 q 451 678 433 746 q 468 510 468 611 l 468 293 q 451 125 468 193 q 390 22 433 57 q 265 -12 346 -12 m 265 43 q 351 73 324 43 q 387 158 379 103 q 394 290 394 214 l 394 513 q 387 645 394 590 q 351 730 379 700 q 265 760 324 760 q 180 730 207 760 q 145 645 153 700 q 138 513 138 590 l 138 290 q 145 158 138 214 q 180 73 153 103 q 265 43 207 43 m 108 971 q 131 1058 111 1024 q 186 1108 151 1092 q 267 1125 221 1125 q 349 1108 314 1125 q 403 1058 383 1092 q 425 971 424 1024 l 374 971 q 342 1053 372 1031 q 267 1076 311 1076 q 193 1053 224 1076 q 160 971 163 1031 l 108 971 z "},"ō":{"ha":532,"x_min":64,"x_max":468,"o":"m 265 -12 q 142 22 186 -12 q 81 125 99 57 q 64 293 64 193 l 64 510 q 81 678 64 610 q 142 781 99 746 q 265 815 186 815 q 390 781 346 815 q 451 678 433 746 q 468 510 468 611 l 468 293 q 451 125 468 193 q 390 22 433 57 q 265 -12 346 -12 m 265 43 q 351 73 324 43 q 387 158 379 103 q 394 290 394 214 l 394 513 q 387 645 394 590 q 351 730 379 700 q 265 760 324 760 q 180 730 207 760 q 145 645 153 700 q 138 513 138 590 l 138 290 q 145 158 138 214 q 180 73 153 103 q 265 43 207 43 m 147 972 l 147 1028 l 386 1028 l 386 972 l 147 972 z "},"ǫ":{"ha":532,"x_min":64,"x_max":468,"o":"m 265 -12 q 142 22 186 -12 q 81 125 99 57 q 64 293 64 193 l 64 510 q 81 678 64 610 q 142 781 99 746 q 265 815 186 815 q 390 781 346 815 q 451 678 433 746 q 468 510 468 611 l 468 293 q 451 125 468 193 q 390 22 433 57 q 265 -12 346 -12 m 265 43 q 351 73 324 43 q 387 158 379 103 q 394 290 394 214 l 394 513 q 387 645 394 590 q 351 730 379 700 q 265 760 324 760 q 180 730 207 760 q 145 645 153 700 q 138 513 138 590 l 138 290 q 145 158 138 214 q 180 73 153 103 q 265 43 207 43 m 321 -279 q 265 -272 290 -279 q 220 -250 239 -264 q 192 -215 201 -236 q 182 -168 182 -194 q 197 -105 182 -135 q 236 -48 211 -75 q 292 0 261 -21 l 333 0 q 286 -53 307 -26 q 253 -107 265 -81 q 240 -162 240 -133 q 269 -219 240 -201 q 340 -236 299 -236 q 353 -235 347 -236 q 365 -233 360 -235 l 357 -276 q 342 -278 351 -278 q 321 -279 332 -279 z "},"ø":{"ha":532,"x_min":64,"x_max":468,"o":"m 108 -90 l 81 -81 l 436 881 l 465 868 l 108 -90 m 265 -12 q 142 22 186 -12 q 81 125 99 57 q 64 293 64 193 l 64 510 q 81 678 64 610 q 142 781 99 746 q 265 815 186 815 q 390 781 346 815 q 451 678 433 746 q 468 510 468 611 l 468 293 q 451 125 468 193 q 390 22 433 57 q 265 -12 346 -12 m 265 43 q 351 73 324 43 q 387 158 379 103 q 394 290 394 214 l 394 513 q 387 645 394 590 q 351 730 379 700 q 265 760 324 760 q 180 730 207 760 q 145 645 153 700 q 138 513 138 590 l 138 290 q 145 158 138 214 q 180 73 153 103 q 265 43 207 43 z "},"ǿ":{"ha":532,"x_min":64,"x_max":468,"o":"m 108 -90 l 81 -81 l 436 881 l 465 868 l 108 -90 m 265 -12 q 142 22 186 -12 q 81 125 99 57 q 64 293 64 193 l 64 510 q 81 678 64 610 q 142 781 99 746 q 265 815 186 815 q 390 781 346 815 q 451 678 433 746 q 468 510 468 611 l 468 293 q 451 125 468 193 q 390 22 433 57 q 265 -12 346 -12 m 265 43 q 351 73 324 43 q 387 158 379 103 q 394 290 394 214 l 394 513 q 387 645 394 590 q 351 730 379 700 q 265 760 324 760 q 180 730 207 760 q 145 645 153 700 q 138 513 138 590 l 138 290 q 145 158 138 214 q 180 73 153 103 q 265 43 207 43 m 249 869 l 338 1139 l 413 1139 l 288 869 l 249 869 z "},"õ":{"ha":532,"x_min":64,"x_max":468,"o":"m 265 -12 q 142 22 186 -12 q 81 125 99 57 q 64 293 64 193 l 64 510 q 81 678 64 610 q 142 781 99 746 q 265 815 186 815 q 390 781 346 815 q 451 678 433 746 q 468 510 468 611 l 468 293 q 451 125 468 193 q 390 22 433 57 q 265 -12 346 -12 m 265 43 q 351 73 324 43 q 387 158 379 103 q 394 290 394 214 l 394 513 q 387 645 394 590 q 351 730 379 700 q 265 760 324 760 q 180 730 207 760 q 145 645 153 700 q 138 513 138 590 l 138 290 q 145 158 138 214 q 180 73 153 103 q 265 43 207 43 m 339 954 q 284 971 308 954 q 239 1003 260 988 q 196 1019 218 1019 q 165 1006 176 1019 q 153 965 153 992 l 103 965 q 109 1003 103 978 q 133 1049 115 1028 q 189 1071 151 1071 q 247 1055 222 1071 q 294 1022 272 1039 q 338 1006 315 1006 q 371 1019 360 1006 q 383 1068 382 1033 l 431 1068 q 425 1025 431 1053 q 400 976 419 997 q 339 954 381 954 z "},"ȭ":{"ha":532,"x_min":64,"x_max":468,"o":"m 265 -12 q 142 22 186 -12 q 81 125 99 57 q 64 293 64 193 l 64 510 q 81 678 64 610 q 142 781 99 746 q 265 815 186 815 q 390 781 346 815 q 451 678 433 746 q 468 510 468 611 l 468 293 q 451 125 468 193 q 390 22 433 57 q 265 -12 346 -12 m 265 43 q 351 73 324 43 q 387 158 379 103 q 394 290 394 214 l 394 513 q 387 645 394 590 q 351 730 379 700 q 265 760 324 760 q 180 730 207 760 q 145 645 153 700 q 138 513 138 590 l 138 290 q 145 158 138 214 q 180 73 153 103 q 265 43 207 43 m 339 954 q 284 971 308 954 q 239 1003 260 988 q 196 1019 218 1019 q 165 1006 176 1019 q 153 965 153 992 l 103 965 q 109 1003 103 978 q 133 1049 115 1028 q 189 1071 151 1071 q 247 1055 222 1071 q 294 1022 272 1039 q 338 1006 315 1006 q 371 1019 360 1006 q 383 1068 382 1033 l 431 1068 q 425 1025 431 1053 q 400 976 419 997 q 339 954 381 954 m 147 1297 l 147 1353 l 386 1353 l 386 1297 l 147 1297 z "},"œ":{"ha":871,"x_min":69,"x_max":806,"o":"m 271 -12 q 148 22 192 -12 q 87 124 104 56 q 69 292 69 192 l 69 511 q 87 678 69 611 q 148 781 104 746 q 271 815 192 815 q 351 801 317 815 q 406 759 385 786 q 438 692 428 732 q 478 768 453 742 q 538 805 504 794 q 608 815 571 815 q 725 784 682 815 q 787 683 768 753 q 806 499 806 614 l 806 421 l 475 421 l 475 310 q 489 156 475 214 q 533 72 503 97 q 613 46 564 46 q 701 81 669 46 q 732 210 732 117 l 732 271 l 806 271 l 806 211 q 763 48 806 108 q 613 -12 719 -12 q 506 17 554 -12 q 439 118 458 46 q 382 20 424 53 q 271 -12 340 -12 m 271 46 q 358 76 331 46 q 393 160 385 106 q 401 292 401 215 l 401 511 q 393 644 401 589 q 358 728 385 699 q 271 757 331 757 q 185 728 213 757 q 151 644 158 699 q 143 511 143 589 l 143 292 q 151 160 143 215 q 185 76 158 106 q 271 46 213 46 m 475 464 l 732 464 l 732 513 q 725 638 732 583 q 692 725 718 693 q 607 757 665 757 q 532 735 561 757 q 489 660 503 713 q 475 519 475 608 l 475 464 z "},"p":{"ha":556,"x_min":79,"x_max":489,"o":"m 79 -264 l 79 803 l 153 803 l 153 735 q 214 790 176 764 q 307 815 251 815 q 398 792 363 815 q 453 726 433 769 q 481 621 474 682 q 489 485 489 560 l 489 331 q 472 142 489 218 q 413 26 454 65 q 300 -12 372 -12 q 212 14 249 -12 q 153 67 175 40 l 153 -264 l 79 -264 m 292 44 q 369 74 342 44 q 406 167 396 104 q 415 328 415 231 l 415 485 q 406 641 415 581 q 371 730 397 701 q 292 758 344 758 q 211 733 247 758 q 153 683 175 707 l 153 117 q 213 67 176 89 q 292 44 249 44 z "},"ṗ":{"ha":556,"x_min":79,"x_max":489,"o":"m 79 -264 l 79 803 l 153 803 l 153 735 q 214 790 176 764 q 307 815 251 815 q 398 792 363 815 q 453 726 433 769 q 481 621 474 682 q 489 485 489 560 l 489 331 q 472 142 489 218 q 413 26 454 65 q 300 -12 372 -12 q 212 14 249 -12 q 153 67 175 40 l 153 -264 l 79 -264 m 292 44 q 369 74 342 44 q 406 167 396 104 q 415 328 415 231 l 415 485 q 406 641 415 581 q 371 730 397 701 q 292 758 344 758 q 211 733 247 758 q 153 683 175 707 l 153 117 q 213 67 176 89 q 292 44 249 44 m 236 939 l 236 1083 l 319 1083 l 319 939 l 236 939 z "},"þ":{"ha":553,"x_min":81,"x_max":489,"o":"m 81 -264 l 81 1125 l 154 1125 l 154 735 q 215 790 176 764 q 308 815 253 815 q 399 792 364 815 q 454 726 435 769 q 481 621 474 682 q 489 485 489 560 l 489 331 q 472 142 489 218 q 413 26 454 65 q 300 -12 372 -12 q 212 14 249 -12 q 154 67 175 40 l 154 -264 l 81 -264 m 292 44 q 369 74 342 44 q 406 167 396 104 q 415 328 415 231 l 415 485 q 406 641 415 581 q 372 730 397 701 q 293 758 346 758 q 211 733 247 758 q 154 683 175 707 l 154 117 q 213 67 178 89 q 292 44 249 44 z "},"q":{"ha":550,"x_min":67,"x_max":472,"o":"m 399 -264 l 399 61 q 341 11 376 35 q 256 -12 306 -12 q 109 67 151 -12 q 67 329 67 147 l 67 472 q 83 662 67 586 q 139 776 99 738 q 253 815 179 815 q 340 792 303 815 q 399 740 376 768 l 399 803 l 472 803 l 472 -264 l 399 -264 m 267 44 q 340 65 307 44 q 399 114 374 86 l 399 688 q 342 735 376 711 q 264 758 307 758 q 165 694 188 758 q 142 490 142 631 l 142 324 q 152 165 142 226 q 190 74 163 103 q 267 44 217 44 z "},"r":{"ha":393,"x_min":89,"x_max":367,"o":"m 89 0 l 89 803 l 163 803 l 163 694 q 252 783 199 754 q 353 811 306 811 q 359 811 356 811 q 367 810 363 811 l 367 733 q 352 737 361 736 q 336 738 343 738 q 237 711 281 738 q 163 635 193 685 l 163 0 l 89 0 z "},"ŕ":{"ha":393,"x_min":89,"x_max":371,"o":"m 89 0 l 89 803 l 163 803 l 163 694 q 252 783 199 754 q 353 811 306 811 q 359 811 356 811 q 367 810 363 811 l 367 733 q 352 737 361 736 q 336 738 343 738 q 237 711 281 738 q 163 635 193 685 l 163 0 l 89 0 m 207 869 l 296 1139 l 371 1139 l 246 869 l 207 869 z "}}}
